<?xml version="1.0" encoding="UTF-8"?>
<svg width="126px" height="129px" viewBox="0 0 126 129" version="1.1" xmlns="http://www.w3.org/2000/svg" xmlns:xlink="http://www.w3.org/1999/xlink">
    <!-- Generator: Sketch 47.1 (45422) - http://www.bohemiancoding.com/sketch -->
    <title>deals-done-mobile</title>
    <desc>Created with Sketch.</desc>
    <defs>
        <path d="M6.36733494,13.8676508 L17.1868482,3.90334344 C17.3584465,3.73606423 17.605629,3.69459201 17.8106301,3.79912274 C21.1296536,5.52600396 23.7170874,7.97364798 25.5729316,11.136059 C27.4498433,14.3923362 28.4857978,18.4592593 28.6807951,23.2945079 C28.6890587,23.4990943 28.6086195,23.6887164 28.4650656,23.8029473 L16.0641594,33.0104228 C16.1790877,28.7101965 15.3475381,24.9680939 13.5695105,21.8342945 C11.9146935,18.9669132 9.54710709,16.6120626 6.46675117,14.7801921 C6.19644153,14.6223668 6.09933367,14.2786602 6.24985687,14.0116416 C6.28050797,13.9572106 6.32022451,13.9085312 6.36733494,13.8676508 Z" id="path-1"></path>
        <path d="M6.36733494,13.8676508 L17.1868482,3.90334344 C17.3584465,3.73606423 17.605629,3.69459201 17.8106301,3.79912274 C21.1296536,5.52600396 23.7170874,7.97364798 25.5729316,11.136059 C27.4498433,14.3923362 28.4857978,18.4592593 28.6807951,23.2945079 C28.6890587,23.4990943 28.6086195,23.6887164 28.4650656,23.8029473 L16.0641594,33.0104228 C16.1790877,28.7101965 15.3475381,24.9680939 13.5695105,21.8342945 C11.9146935,18.9669132 9.54710709,16.6120626 6.46675117,14.7801921 C6.19644153,14.6223668 6.09933367,14.2786602 6.24985687,14.0116416 C6.28050797,13.9572106 6.32022451,13.9085312 6.36733494,13.8676508 Z" id="path-2"></path>
        <path d="M6.36733494,13.8676508 L17.1868482,3.90334344 C17.3584465,3.73606423 17.605629,3.69459201 17.8106301,3.79912274 C21.1296536,5.52600396 23.7170874,7.97364798 25.5729316,11.136059 C27.4498433,14.3923362 28.4857978,18.4592593 28.6807951,23.2945079 C28.6890587,23.4990943 28.6086195,23.6887164 28.4650656,23.8029473 L16.0641594,33.0104228 C16.1790877,28.7101965 15.3475381,24.9680939 13.5695105,21.8342945 C11.9146935,18.9669132 9.54710709,16.6120626 6.46675117,14.7801921 C6.19644153,14.6223668 6.09933367,14.2786602 6.24985687,14.0116416 C6.28050797,13.9572106 6.32022451,13.9085312 6.36733494,13.8676508 Z" id="path-3"></path>
        <path d="M0.203580931,21.2763166 L25.8306717,0.128134391 L25.8306765,0.128140175 C26.0062873,-0.0167787308 26.2521589,-0.040944167 26.4526235,0.067012239 C33.809758,4.02905677 39.4494569,9.27953337 43.3717201,15.8184421 C47.3134989,22.3898857 49.3038879,30.4794957 49.3428871,40.0872719 L49.3429145,40.0872718 C49.3436483,40.2680413 49.2570794,40.4380488 49.1104561,40.5437832 L21.7622461,60.2653735 L21.7622742,60.2654124 C21.5113961,60.4463278 21.1613584,60.3896119 20.980443,60.1387339 C20.9066815,60.0364479 20.8696004,59.9122609 20.8752027,59.7862775 C21.2543255,51.260667 19.6849493,43.9055427 16.167074,37.7209049 C12.6070815,31.4622222 7.3108093,26.2859795 0.278257484,22.1921769 L0.278278163,22.1921413 C0.011007894,22.0365574 -0.0795318086,21.6937664 0.0760520775,21.4264962 C0.109351594,21.3692925 0.152529422,21.3184457 0.203580931,21.2763166 Z" id="path-4"></path>
    </defs>
    <g id="assets" stroke="none" stroke-width="1" fill="none" fill-rule="evenodd">
        <g id="deals-done-mobile">
            <g transform="translate(-12.000000, -10.000000)">
                <g id="moneyeuro-copy" transform="translate(120.466238, 129.310790) rotate(317.000000) translate(-120.466238, -129.310790) translate(102.966238, 110.810790)">
                    <g id="paper-02-copy" transform="translate(17.430181, 18.376227) rotate(-31.000000) translate(-17.430181, -18.376227) ">
                        <use fill="#FFFFFF" fill-rule="evenodd" xlink:href="#path-1"></use>
                        <path stroke="#112E47" stroke-width="1.12" d="M6.73874719,14.2866856 C6.7403019,14.2881006 6.74367663,14.2934201 6.75298888,14.2988731 C9.910921,16.1768777 12.3490444,18.5991957 14.0565756,21.5579477 C15.7264207,24.5010738 16.5855608,27.9595595 16.6325815,31.8909242 L28.1163771,23.3647506 C28.1154044,23.3655246 28.1225287,23.3487328 28.1212499,23.3170734 C27.9294385,18.5608224 26.9136661,14.5835038 25.0899552,11.4194911 C23.2866698,8.3466418 20.7764564,5.97350052 17.5562458,4.29801013 C17.568295,4.30415405 17.579935,4.30220694 17.5662133,4.31526831 L6.74670006,14.2795757 L6.73874719,14.2866856 Z"></path>
                    </g>
                    <path d="M19.8186208,16.7543404 L18.4071298,16.7543404 C18.4153601,16.9930852 18.4517101,17.1954664 18.5161808,17.3614901 C18.5806516,17.5275138 18.6684402,17.6612912 18.7795494,17.7628264 C18.8906586,17.8643615 19.0230274,17.9377676 19.1766599,17.9830468 C19.3302923,18.028326 19.5017545,18.0509652 19.6910516,18.0509652 C19.8364537,18.0509652 19.9770527,18.0406747 20.1128528,18.0200932 C20.2486529,17.9995118 20.3782784,17.9658959 20.501733,17.9192446 L20.6334173,18.8536377 C20.4715545,18.8920564 20.3028357,18.9222421 20.1272558,18.9441956 C19.9516759,18.9661492 19.7733552,18.9771258 19.5922884,18.9771258 C19.2575891,18.9771258 18.949643,18.9304752 18.6684408,18.8371726 C18.3872386,18.7438701 18.1430764,18.6046044 17.935947,18.4193713 C17.7288175,18.2341383 17.5655855,18.0022574 17.446246,17.7237218 C17.3269065,17.4451862 17.2617509,17.1220623 17.2507771,16.7543404 L16.5470892,16.7543404 L16.5470892,16.1451326 L17.2507771,16.1451326 L17.2507771,15.6264827 L16.5470892,15.6264827 L16.5470892,15.0213911 L17.2590074,15.0213911 C17.2809549,14.6591576 17.3550266,14.3408359 17.4812246,14.0664166 C17.6074227,13.7919973 17.7754557,13.5621746 17.9853286,13.3769415 C18.1952014,13.1917085 18.442107,13.0524428 18.7260527,12.9591402 C19.0099983,12.8658376 19.3206879,12.8191871 19.6581305,12.8191871 C19.8254801,12.8191871 19.989398,12.8308497 20.149889,12.8541753 C20.3103801,12.877501 20.4715545,12.9083727 20.6334173,12.9467914 L20.501733,13.8853008 C20.3837652,13.8468821 20.2561974,13.8153243 20.1190255,13.7906266 C19.9818537,13.7659289 19.844684,13.7535802 19.7075121,13.7535802 C19.3289179,13.7535802 19.0271444,13.8537417 18.8021827,14.0540678 C18.5772209,14.2543939 18.4482813,14.5768318 18.4153601,15.0213911 L19.8186208,15.0213911 L19.8186208,15.6264827 L18.4071298,15.6264827 L18.4071298,16.1451326 L19.8186208,16.1451326 L19.8186208,16.7543404 Z" id="€" fill="#112E47" transform="translate(18.590253, 15.898156) rotate(24.000000) translate(-18.590253, -15.898156) "></path>
                </g>
                <g id="money-copy-2" transform="translate(23.358729, 106.234339) rotate(-18.000000) translate(-23.358729, -106.234339) translate(5.858729, 87.734339)">
                    <g id="paper-02-copy" transform="translate(17.430181, 18.376227) rotate(-31.000000) translate(-17.430181, -18.376227) ">
                        <use fill="#FFFFFF" fill-rule="evenodd" xlink:href="#path-2"></use>
                        <path stroke="#112E47" stroke-width="1.12" d="M6.73874719,14.2866856 C6.7403019,14.2881006 6.74367663,14.2934201 6.75298888,14.2988731 C9.910921,16.1768777 12.3490444,18.5991957 14.0565756,21.5579477 C15.7264207,24.5010738 16.5855608,27.9595595 16.6325815,31.8909242 L28.1163771,23.3647506 C28.1154044,23.3655246 28.1225287,23.3487328 28.1212499,23.3170734 C27.9294385,18.5608224 26.9136661,14.5835038 25.0899552,11.4194911 C23.2866698,8.3466418 20.7764564,5.97350052 17.5562458,4.29801013 C17.568295,4.30415405 17.579935,4.30220694 17.5662133,4.31526831 L6.74670006,14.2795757 L6.73874719,14.2866856 Z"></path>
                    </g>
                    <path d="M18.6960429,17.2089523 C18.7228234,17.119612 18.7351522,17.0321575 18.7330297,16.9463094 C18.7309072,16.8604343 18.709317,16.7734349 18.6682583,16.6849123 C18.6271997,16.5958339 18.5655589,16.5048949 18.4833341,16.4116287 C18.4011094,16.3171882 18.2936299,16.2159567 18.1608925,16.1072016 C17.9995157,15.9708512 17.8506227,15.8195005 17.7142091,15.6531845 C17.5777956,15.4837197 17.4662151,15.3014003 17.3794645,15.1068987 C17.2927139,14.9101521 17.2371421,14.7029109 17.2127476,14.4863293 C17.188353,14.2690497 17.2087727,14.0465367 17.2740073,13.8208294 C17.3371818,13.6041842 17.4313076,13.4320425 17.5563874,13.3048397 C17.6814672,13.1801276 17.8272909,13.1005194 17.9938628,13.0652855 C18.1604348,13.0315729 18.3421751,13.0405335 18.5390893,13.0907504 C18.7360036,13.1405988 18.9382226,13.2284488 19.1457527,13.3525384 C19.3608293,13.478269 19.5461782,13.6231133 19.7018049,13.7866914 C19.8574316,13.9468346 19.9789601,14.1160624 20.066394,14.2951467 C20.1538278,14.4718186 20.2052362,14.6543811 20.2206207,14.8442868 C20.2360052,15.0337097 20.2100505,15.223206 20.1427559,15.4147634 L19.3673521,15.0824661 C19.3972261,14.9792839 19.4116184,14.8788604 19.4105294,14.7808151 C19.4094404,14.6827533 19.3902535,14.5894856 19.3529681,14.50065 C19.3156827,14.4113186 19.259785,14.3275547 19.1852733,14.2491225 C19.1107615,14.1698835 19.0159646,14.0991512 18.9008798,14.0369009 C18.7952281,13.9790164 18.6967343,13.9413693 18.6053955,13.9244351 C18.5140566,13.9074311 18.431677,13.9095074 18.3582543,13.9309612 C18.2848315,13.9527417 18.2219978,13.9925205 18.1697511,14.0504115 C18.1175045,14.1087792 18.0779915,14.1818988 18.051211,14.2696716 C18.0230572,14.3623143 18.0169881,14.4566053 18.0330038,14.5521046 C18.0490194,14.6473918 18.0847176,14.7440377 18.1400994,14.8416509 C18.1954812,14.938526 18.2679717,15.037173 18.3575731,15.1372196 C18.4471745,15.236028 18.5514825,15.3365207 18.6705001,15.4383293 C18.8392501,15.5848284 18.9884413,15.7355671 19.1180782,15.89095 C19.2477152,16.0432516 19.3498608,16.2008959 19.4245183,16.3647402 C19.4991757,16.5266403 19.5428695,16.6954709 19.5556008,16.8724274 C19.5683322,17.0490267 19.5437977,17.234292 19.4819965,17.429863 C19.4160753,17.6404798 19.3212195,17.8204857 19.1974264,17.9701708 C19.0736332,18.1223081 18.9299112,18.2440282 18.7662559,18.3345709 C18.6026006,18.4265472 18.4230052,18.4842534 18.2274643,18.5062454 C18.0319235,18.5277434 17.8294478,18.5115659 17.6200311,18.4560048 C17.4898531,18.4200703 17.3644405,18.3671991 17.2437894,18.2970835 C17.1231383,18.2254888 17.0127838,18.1366388 16.9127227,18.030442 C16.8126615,17.9226476 16.7250834,17.79896 16.6499855,17.6594916 C16.5748876,17.5185806 16.5179321,17.3643343 16.4791173,17.1971972 C16.4403025,17.0292164 16.4223311,16.8487241 16.4252026,16.6563999 C16.4280742,16.4641456 16.4569767,16.263481 16.5119111,16.0554273 L17.2929747,16.4055618 C17.2514272,16.5713418 17.2343264,16.7214607 17.2416718,16.8551433 C17.2490172,16.9886946 17.2777637,17.1065851 17.3279122,17.2083794 C17.3780607,17.3094568 17.4478514,17.3947573 17.5372863,17.4640937 C17.6267212,17.5324604 17.7308661,17.5858215 17.8497243,17.6242366 C17.9553759,17.657634 18.053698,17.6709828 18.1446936,17.6647488 C18.2356891,17.6584305 18.317382,17.6363476 18.3897747,17.5987777 C18.4621675,17.5614942 18.5246145,17.5094477 18.5771178,17.4427657 C18.6296211,17.3765425 18.6692624,17.2986346 18.6960429,17.2089523 Z" id="S" stroke="#112E47" stroke-width="0.559999999" fill="#112E47"></path>
                    <g id="moneysuff" transform="translate(16.235521, 11.760000)" stroke="#112E47" stroke-width="1.12">
                        <path d="M2.7992278,1.37788049 L3.23686368,0.15387661" id="Path-19"></path>
                        <path d="M0.55984556,7.53788049 L0.99748144,6.31387661" id="Path-19-Copy"></path>
                    </g>
                </g>
                <g id="money-copy-2" transform="translate(123.492809, 22.686126) rotate(105.000000) translate(-123.492809, -22.686126) translate(105.992809, 4.186126)">
                    <g id="paper-02-copy" transform="translate(17.430181, 18.376227) rotate(-31.000000) translate(-17.430181, -18.376227) ">
                        <use fill="#FFFFFF" fill-rule="evenodd" xlink:href="#path-3"></use>
                        <path stroke="#112E47" stroke-width="1.12" d="M6.73472597,14.2902806 L6.73435939,14.2906083 C6.73448337,14.2905008 6.73460556,14.2903915 6.73472583,14.2902807 Z M6.73874719,14.2866856 C6.7403019,14.2881006 6.74367663,14.2934201 6.75298888,14.2988731 C9.910921,16.1768777 12.3490444,18.5991957 14.0565756,21.5579477 C15.7264207,24.5010738 16.5855608,27.9595595 16.6325815,31.8909242 L28.1163771,23.3647506 C28.1154044,23.3655246 28.1225287,23.3487328 28.1212499,23.3170734 C27.9294385,18.5608224 26.9136661,14.5835038 25.0899552,11.4194911 C23.2866698,8.3466418 20.7764564,5.97350052 17.5562458,4.29801013 C17.568295,4.30415405 17.579935,4.30220694 17.5662133,4.31526831 L6.74670006,14.2795757 L6.73874719,14.2866856 Z"></path>
                    </g>
                    <path d="M18.6960429,17.2089523 C18.7228234,17.119612 18.7351522,17.0321575 18.7330297,16.9463094 C18.7309072,16.8604343 18.709317,16.7734349 18.6682583,16.6849123 C18.6271997,16.5958339 18.5655589,16.5048949 18.4833341,16.4116287 C18.4011094,16.3171882 18.2936299,16.2159567 18.1608925,16.1072016 C17.9995157,15.9708512 17.8506227,15.8195005 17.7142091,15.6531845 C17.5777956,15.4837197 17.4662151,15.3014003 17.3794645,15.1068987 C17.2927139,14.9101521 17.2371421,14.7029109 17.2127476,14.4863293 C17.188353,14.2690497 17.2087727,14.0465367 17.2740073,13.8208294 C17.3371818,13.6041842 17.4313076,13.4320425 17.5563874,13.3048397 C17.6814672,13.1801276 17.8272909,13.1005194 17.9938628,13.0652855 C18.1604348,13.0315729 18.3421751,13.0405335 18.5390893,13.0907504 C18.7360036,13.1405988 18.9382226,13.2284488 19.1457527,13.3525384 C19.3608293,13.478269 19.5461782,13.6231133 19.7018049,13.7866914 C19.8574316,13.9468346 19.9789601,14.1160624 20.066394,14.2951467 C20.1538278,14.4718186 20.2052362,14.6543811 20.2206207,14.8442868 C20.2360052,15.0337097 20.2100505,15.223206 20.1427559,15.4147634 L19.3673521,15.0824661 C19.3972261,14.9792839 19.4116184,14.8788604 19.4105294,14.7808151 C19.4094404,14.6827533 19.3902535,14.5894856 19.3529681,14.50065 C19.3156827,14.4113186 19.259785,14.3275547 19.1852733,14.2491225 C19.1107615,14.1698835 19.0159646,14.0991512 18.9008798,14.0369009 C18.7952281,13.9790164 18.6967343,13.9413693 18.6053955,13.9244351 C18.5140566,13.9074311 18.431677,13.9095074 18.3582543,13.9309612 C18.2848315,13.9527417 18.2219978,13.9925205 18.1697511,14.0504115 C18.1175045,14.1087792 18.0779915,14.1818988 18.051211,14.2696716 C18.0230572,14.3623143 18.0169881,14.4566053 18.0330038,14.5521046 C18.0490194,14.6473918 18.0847176,14.7440377 18.1400994,14.8416509 C18.1954812,14.938526 18.2679717,15.037173 18.3575731,15.1372196 C18.4471745,15.236028 18.5514825,15.3365207 18.6705001,15.4383293 C18.8392501,15.5848284 18.9884413,15.7355671 19.1180782,15.89095 C19.2477152,16.0432516 19.3498608,16.2008959 19.4245183,16.3647402 C19.4991757,16.5266403 19.5428695,16.6954709 19.5556008,16.8724274 C19.5683322,17.0490267 19.5437977,17.234292 19.4819965,17.429863 C19.4160753,17.6404798 19.3212195,17.8204857 19.1974264,17.9701708 C19.0736332,18.1223081 18.9299112,18.2440282 18.7662559,18.3345709 C18.6026006,18.4265472 18.4230052,18.4842534 18.2274643,18.5062454 C18.0319235,18.5277434 17.8294478,18.5115659 17.6200311,18.4560048 C17.4898531,18.4200703 17.3644405,18.3671991 17.2437894,18.2970835 C17.1231383,18.2254888 17.0127838,18.1366388 16.9127227,18.030442 C16.8126615,17.9226476 16.7250834,17.79896 16.6499855,17.6594916 C16.5748876,17.5185806 16.5179321,17.3643343 16.4791173,17.1971972 C16.4403025,17.0292164 16.4223311,16.8487241 16.4252026,16.6563999 C16.4280742,16.4641456 16.4569767,16.263481 16.5119111,16.0554273 L17.2929747,16.4055618 C17.2514272,16.5713418 17.2343264,16.7214607 17.2416718,16.8551433 C17.2490172,16.9886946 17.2777637,17.1065851 17.3279122,17.2083794 C17.3780607,17.3094568 17.4478514,17.3947573 17.5372863,17.4640937 C17.6267212,17.5324604 17.7308661,17.5858215 17.8497243,17.6242366 C17.9553759,17.657634 18.053698,17.6709828 18.1446936,17.6647488 C18.2356891,17.6584305 18.317382,17.6363476 18.3897747,17.5987777 C18.4621675,17.5614942 18.5246145,17.5094477 18.5771178,17.4427657 C18.6296211,17.3765425 18.6692624,17.2986346 18.6960429,17.2089523 Z" id="S" stroke="#112E47" stroke-width="0.559999999" fill="#112E47"></path>
                    <g id="moneysuff" transform="translate(16.235521, 11.760000)" stroke="#112E47" stroke-width="1.12">
                        <path d="M2.7992278,1.37788049 L3.23686368,0.15387661" id="Path-19"></path>
                        <path d="M0.55984556,7.53788049 L0.99748144,6.31387661" id="Path-19-Copy"></path>
                    </g>
                </g>
                <ellipse id="Oval-6-Copy" stroke="#112E47" stroke-width="1.12" fill="#A6F9FC" cx="26.1930502" cy="25.08" rx="2.7992278" ry="2.8"></ellipse>
                <g id="IV-paper" transform="translate(45.227799, 43.560000)">
                    <g id="paper-02-copy">
                        <use fill="#FFFFFF" fill-rule="evenodd" xlink:href="#path-4"></use>
                        <path stroke="#112E47" stroke-width="1.12" d="M0.560013871,21.7082374 L0.560023233,21.7082264 L0.559987709,21.7082057 C7.6753935,25.8502395 13.0433125,31.0965052 16.6538386,37.444029 C20.226608,43.725174 21.8182577,51.1846864 21.4346499,59.8111554 L21.4346589,59.8111856 L21.4346978,59.8111576 L48.7829077,40.0895673 L48.7828917,40.089545 C48.7442801,30.5772449 46.7780771,22.5859349 42.891489,16.1065012 C39.0223581,9.65617077 33.4575679,4.47543306 26.1871011,0.560061771 L0.560013871,21.7082374 Z"></path>
                    </g>
                    <g id="Group-4-Copy" transform="translate(28.562928, 26.748184) rotate(60.000000) translate(-28.562928, -26.748184) translate(24.062928, 20.248184)" stroke-width="1.00800004">
                        <polyline id="Path-13" stroke="#32EAFF" points="1.65880166 9.58222222 0 9.58222222 0 0 5.97168597 0 5.97168597 9.58222222 4.31288431 9.58222222"></polyline>
                        <polyline id="Path-13-Copy" stroke="#2762A7" transform="translate(5.971686, 7.528889) rotate(-180.000000) translate(-5.971686, -7.528889) " points="4.64464464 12.32 2.98584299 12.32 2.98584299 2.73777778 8.95752896 2.73777778 8.95752896 12.32 7.2987273 12.32"></polyline>
                    </g>
                </g>
                <ellipse id="spec-03" stroke="#112E47" stroke-width="1.12" fill="#516CFF" cx="126.405405" cy="76.04" rx="2.7992278" ry="2.8"></ellipse>
            </g>
        </g>
    </g>
</svg>