<?xml version="1.0" encoding="UTF-8"?>
<svg width="310px" height="310px" viewBox="0 0 310 310" version="1.1" xmlns="http://www.w3.org/2000/svg" xmlns:xlink="http://www.w3.org/1999/xlink">
    <!-- Generator: Sketch 47.1 (45422) - http://www.bohemiancoding.com/sketch -->
    <title>Artboard 4@2x</title>
    <desc>Created with Sketch.</desc>
    <defs>
        <path d="M11.3733776,24.7636622 L30.6992667,6.97025615 C31.0057769,6.67154327 31.4472959,6.59748573 31.8134703,6.78414774 C37.7419329,9.86786421 42.3636251,14.2386571 45.6785467,19.8858196 C49.0310994,25.7006004 50.8815285,32.9629631 51.229834,41.5973355 C51.2445945,41.9626684 51.1009135,42.3012793 50.8444965,42.505263 L28.6939124,58.9471837 C28.8991981,51.2682081 27.4138784,44.5858819 24.2379532,38.9898116 C21.2821077,33.8694878 17.0531085,29.6643975 11.5509555,26.3932002 C11.0681266,26.1113693 10.8946719,25.4976075 11.1635374,25.0207886 C11.2182867,24.9235903 11.2892286,24.8366629 11.3733776,24.7636622 Z" id="path-1"></path>
        <path d="M11.3733776,24.7636622 L30.6992667,6.97025615 C31.0057769,6.67154327 31.4472959,6.59748573 31.8134703,6.78414774 C37.7419329,9.86786421 42.3636251,14.2386571 45.6785467,19.8858196 C49.0310994,25.7006004 50.8815285,32.9629631 51.229834,41.5973355 C51.2445945,41.9626684 51.1009135,42.3012793 50.8444965,42.505263 L28.6939124,58.9471837 C28.8991981,51.2682081 27.4138784,44.5858819 24.2379532,38.9898116 C21.2821077,33.8694878 17.0531085,29.6643975 11.5509555,26.3932002 C11.0681266,26.1113693 10.8946719,25.4976075 11.1635374,25.0207886 C11.2182867,24.9235903 11.2892286,24.8366629 11.3733776,24.7636622 Z" id="path-2"></path>
        <path d="M11.3733776,24.7636622 L30.6992667,6.97025615 C31.0057769,6.67154327 31.4472959,6.59748573 31.8134703,6.78414774 C37.7419329,9.86786421 42.3636251,14.2386571 45.6785467,19.8858196 C49.0310994,25.7006004 50.8815285,32.9629631 51.229834,41.5973355 C51.2445945,41.9626684 51.1009135,42.3012793 50.8444965,42.505263 L28.6939124,58.9471837 C28.8991981,51.2682081 27.4138784,44.5858819 24.2379532,38.9898116 C21.2821077,33.8694878 17.0531085,29.6643975 11.5509555,26.3932002 C11.0681266,26.1113693 10.8946719,25.4976075 11.1635374,25.0207886 C11.2182867,24.9235903 11.2892286,24.8366629 11.3733776,24.7636622 Z" id="path-3"></path>
        <path d="M0.363769055,37.9933142 L46.1391409,0.228632374 L46.139143,0.228634915 C46.4527006,-0.0300501031 46.8916475,-0.0731881871 47.2495651,0.119506727 C60.391073,7.19460465 70.4648398,16.5705084 77.4708655,28.247218 C84.511698,39.9819387 88.0669446,54.4276708 88.1366052,71.5844141 L88.1365863,71.5844142 C88.1378971,71.9072416 87.9832761,72.2108439 87.721404,72.3996354 L38.871252,107.617187 L38.8712655,107.617206 C38.4232548,107.94019 37.7982397,107.838836 37.4752552,107.390826 C37.3435935,107.208198 37.2774099,106.986486 37.2874151,106.761569 C37.9646669,91.5371118 35.1614416,78.4028417 28.8777392,67.3587587 C22.5188759,56.1825749 13.0586776,46.9393074 0.497144224,39.6289564 L0.497160448,39.6289285 C0.0198395451,39.3511453 -0.141917697,38.7390124 0.135865536,38.2616915 C0.195362205,38.1594571 0.272525908,38.0685898 0.363769055,37.9933142 Z" id="path-4"></path>
    </defs>
    <g id="assets" stroke="none" stroke-width="1" fill="none" fill-rule="evenodd">
        <g id="Artboard-4">
            <g id="moneyeuro-copy" transform="translate(245.177911, 255.276621) rotate(317.000000) translate(-245.177911, -255.276621) translate(214.177911, 222.276621)">
                <g id="paper-02-copy" transform="translate(31.133910, 32.814691) rotate(-31.000000) translate(-31.133910, -32.814691) ">
                    <use fill="#FFFFFF" fill-rule="evenodd" xlink:href="#path-1"></use>
                    <path stroke="#112E47" stroke-width="2" d="M12.0365418,25.5120022 C12.039341,25.5144963 12.0453708,25.5239109 12.0619902,25.53364 C17.7026766,28.8871997 22.0576522,33.2127504 25.1076539,38.4962322 C28.090402,43.751919 29.6250144,49.927934 29.7089598,56.9484028 L50.2219437,41.7226852 C50.2202214,41.7240553 50.2329283,41.6941139 50.2306467,41.6376422 C49.8880332,33.1443731 48.0736625,26.0420536 44.8161498,20.3920523 C41.5951047,14.904814 37.1113219,10.6670405 31.359312,7.67506878 C31.3806556,7.68594892 31.4012092,7.6825117 31.3766034,7.70592938 L12.0507142,25.4993354 L12.0365418,25.5120022 Z"></path>
                </g>
                <path d="M35.4001571,29.918465 L32.8789422,29.918465 C32.8936432,30.3447951 32.9585718,30.7061901 33.0737299,31.0026609 C33.188888,31.2991318 33.3456967,31.5380201 33.5441607,31.7193328 C33.7426247,31.9006456 33.9790628,32.0317278 34.2534821,32.1125835 C34.5279014,32.1934392 34.8341684,32.2338665 35.1722922,32.2338665 C35.4320105,32.2338665 35.6831494,32.2154904 35.9257164,32.1787379 C36.1682835,32.1419853 36.3998214,32.0819569 36.6203369,31.9986511 L36.8555523,33.6672102 C36.5664319,33.735815 36.2650652,33.789718 35.9514431,33.8289208 C35.6378211,33.8681235 35.3193034,33.8877246 34.9958806,33.8877246 C34.3980385,33.8877246 33.8479831,33.80442 33.3456977,33.6378083 C32.8434123,33.4711966 32.4072882,33.2225078 32.0373121,32.8917345 C31.6673361,32.5609612 31.3757699,32.1468883 31.1626049,31.6495032 C30.9494399,31.1521182 30.8330585,30.5751113 30.8134571,29.918465 L29.5565249,29.918465 L29.5565249,28.8305939 L30.8134571,28.8305939 L30.8134571,27.9044333 L29.5565249,27.9044333 L29.5565249,26.8239126 L30.8281581,26.8239126 C30.8673608,26.1770671 30.9996681,25.6086356 31.225084,25.1186011 C31.4504999,24.6285666 31.7506415,24.2181689 32.1255179,23.8873956 C32.5003943,23.5566223 32.9414187,23.3079335 33.4486044,23.1413218 C33.9557901,22.9747101 34.5107459,22.8914055 35.1134883,22.8914055 C35.4124094,22.8914055 35.7052006,22.9122316 35.9918708,22.9538845 C36.278541,22.9955375 36.5664319,23.0506655 36.8555523,23.1192704 L36.6203369,24.79518 C36.409622,24.7265751 36.1817594,24.670222 35.9367422,24.6261189 C35.6917249,24.5820158 35.4467113,24.5599646 35.2016941,24.5599646 C34.5254465,24.5599646 33.9864166,24.7388245 33.5845883,25.0965497 C33.18276,25.4542749 32.9524473,26.0300568 32.8936431,26.8239126 L35.4001571,26.8239126 L35.4001571,27.9044333 L32.8789422,27.9044333 L32.8789422,28.8305939 L35.4001571,28.8305939 L35.4001571,29.918465 Z" id="€" fill="#112E47" transform="translate(33.206039, 28.389565) rotate(24.000000) translate(-33.206039, -28.389565) "></path>
            </g>
            <g id="money-copy-2" transform="translate(71.680313, 213.964392) rotate(-18.000000) translate(-71.680313, -213.964392) translate(40.680313, 180.964392)">
                <g id="paper-02-copy" transform="translate(31.133910, 32.814691) rotate(-31.000000) translate(-31.133910, -32.814691) ">
                    <use fill="#FFFFFF" fill-rule="evenodd" xlink:href="#path-2"></use>
                    <path stroke="#112E47" stroke-width="2" d="M12.0365418,25.5120022 C12.039341,25.5144963 12.0453708,25.5239109 12.0619902,25.53364 C17.7026766,28.8871997 22.0576522,33.2127504 25.1076539,38.4962322 C28.090402,43.751919 29.6250144,49.927934 29.7089598,56.9484028 L50.2219437,41.7226852 C50.2202214,41.7240553 50.2329283,41.6941139 50.2306467,41.6376422 C49.8880332,33.1443731 48.0736625,26.0420536 44.8161498,20.3920523 C41.5951047,14.904814 37.1113219,10.6670405 31.359312,7.67506878 C31.3806556,7.68594892 31.4012092,7.6825117 31.3766034,7.70592938 L12.0507142,25.4993354 L12.0365418,25.5120022 Z"></path>
                </g>
                <path d="M33.3950007,30.7302719 C33.4428362,30.5707357 33.4648581,30.414567 33.4610669,30.2612668 C33.4572757,30.1079183 33.418711,29.9525624 33.3453718,29.7944862 C33.2720326,29.6354176 33.1619294,29.4730266 33.0150589,29.3064798 C32.8681884,29.137836 32.6762079,28.9570655 32.4391114,28.76286 C32.150859,28.5193772 31.8849054,28.2491081 31.6412425,27.9521152 C31.3975797,27.6494995 31.1982739,27.3239292 31.0433193,26.9766049 C30.8883647,26.6252716 30.7891021,26.2551981 30.7455284,25.8684452 C30.7019547,25.4804458 30.7384285,25.0831012 30.8549509,24.6800525 C30.9677937,24.293186 31.1359218,23.9857901 31.3593402,23.7586423 C31.5827586,23.5359422 31.8432299,23.3937847 32.1407618,23.330867 C32.4382938,23.2706659 32.7629197,23.286667 33.1146492,23.3763399 C33.4663788,23.465355 33.8275839,23.6222299 34.1982755,23.8438185 C34.5824468,24.0683375 34.9135182,24.3269881 35.1914998,24.6190918 C35.4694813,24.9050617 35.6865563,25.2072542 35.8427313,25.5270477 C35.9989063,25.8425333 36.0907323,26.1685377 36.1182121,26.5076551 C36.145692,26.8459102 36.0993315,27.1842965 35.9791295,27.5263633 L34.5940978,26.9329752 C34.647459,26.7487213 34.6731666,26.5693936 34.6712215,26.3943128 C34.6692763,26.2192022 34.6350045,26.0526528 34.5684051,25.8940178 C34.5018057,25.7344975 34.4019608,25.5849191 34.2688674,25.4448616 C34.135774,25.3033635 33.9664472,25.1770558 33.7608818,25.0658945 C33.5721661,24.9625292 33.3962358,24.8953023 33.2330857,24.8650626 C33.0699356,24.8346983 32.9227886,24.838406 32.7916404,24.8767165 C32.6604922,24.9156101 32.5482581,24.9866438 32.4549348,25.0900205 C32.3616115,25.1942485 32.2910331,25.3248192 32.2431976,25.4815563 C32.192909,25.6469899 32.1820684,25.8153666 32.2106757,25.9859011 C32.2392829,26.1560567 32.3030472,26.3286387 32.4019706,26.502948 C32.500894,26.6759393 32.6303771,26.8520946 32.7904237,27.0307494 C32.9504703,27.2071928 33.1367859,27.3866441 33.3493761,27.5684452 C33.6507984,27.8300506 33.9172848,28.099227 34.1488432,28.3766964 C34.3804016,28.6486636 34.5628549,28.9301713 34.6962085,29.2227504 C34.8295621,29.5118576 34.9076082,29.8133409 34.9303491,30.1293347 C34.95309,30.4446905 34.9092662,30.7755214 34.7988766,31.1247553 C34.6811276,31.5008569 34.5116956,31.8222959 34.2905754,32.0895907 C34.0694552,32.3612644 33.8127379,32.5786218 33.5204157,32.7403051 C33.2280935,32.9045486 32.9072989,33.0075954 32.5580225,33.0468668 C32.2087461,33.0852561 31.8470825,33.0563677 31.473021,32.9571514 C31.2404963,32.8929826 31.0164834,32.7985698 30.8009755,32.6733634 C30.5854677,32.5455158 30.3883517,32.386855 30.2096219,32.1972178 C30.030892,32.0047279 29.8744592,31.7838572 29.7403189,31.5348064 C29.6061785,31.2831796 29.5044443,31.0077398 29.435113,30.7092808 C29.3657817,30.409315 29.3336811,30.0870073 29.3388102,29.7435713 C29.3439394,29.4002599 29.3955653,29.0419303 29.4936894,28.6704059 L30.8888308,29.2956461 C30.8146182,29.5916818 30.7840726,29.8597512 30.797193,30.0984703 C30.8103135,30.3369546 30.8616607,30.5474734 30.9512363,30.7292489 C31.0408119,30.9097443 31.1654724,31.0620665 31.3252217,31.1858816 C31.484971,31.3079649 31.6709954,31.4032527 31.8833006,31.4718511 C32.0720163,31.5314893 32.2476399,31.5553264 32.4101768,31.5441943 C32.5727136,31.5329115 32.7186341,31.4934779 32.8479425,31.4263888 C32.9772508,31.3598111 33.0887942,31.2668709 33.1825759,31.147796 C33.2763577,31.0295401 33.3471652,30.8904189 33.3950007,30.7302719 Z" id="S" stroke="#112E47" fill="#112E47"></path>
                <g id="moneysuff" transform="translate(29.000000, 21.000000)" stroke="#112E47" stroke-width="2">
                    <path d="M5,2.46050087 L5.78170823,0.274779661" id="Path-19"></path>
                    <path d="M1,13.4605009 L1.78170823,11.2747797" id="Path-19-Copy"></path>
                </g>
            </g>
            <g id="money-copy-2" transform="translate(250.898943, 64.484729) rotate(105.000000) translate(-250.898943, -64.484729) translate(219.898943, 31.484729)">
                <g id="paper-02-copy" transform="translate(31.133910, 32.814691) rotate(-31.000000) translate(-31.133910, -32.814691) ">
                    <use fill="#FFFFFF" fill-rule="evenodd" xlink:href="#path-3"></use>
                    <path stroke="#112E47" stroke-width="2" d="M12.0365418,25.5120022 C12.039341,25.5144963 12.0453708,25.5239109 12.0619902,25.53364 C17.7026766,28.8871997 22.0576522,33.2127504 25.1076539,38.4962322 C28.090402,43.751919 29.6250144,49.927934 29.7089598,56.9484028 L50.2219437,41.7226852 C50.2202214,41.7240553 50.2329283,41.6941139 50.2306467,41.6376422 C49.8880332,33.1443731 48.0736625,26.0420536 44.8161498,20.3920523 C41.5951047,14.904814 37.1113219,10.6670405 31.359312,7.67506878 C31.3806556,7.68594892 31.4012092,7.6825117 31.3766034,7.70592938 L12.0507142,25.4993354 L12.0365418,25.5120022 Z"></path>
                </g>
                <path d="M33.3950007,30.7302719 C33.4428362,30.5707357 33.4648581,30.414567 33.4610669,30.2612668 C33.4572757,30.1079183 33.418711,29.9525624 33.3453718,29.7944862 C33.2720326,29.6354176 33.1619294,29.4730266 33.0150589,29.3064798 C32.8681884,29.137836 32.6762079,28.9570655 32.4391114,28.76286 C32.150859,28.5193772 31.8849054,28.2491081 31.6412425,27.9521152 C31.3975797,27.6494995 31.1982739,27.3239292 31.0433193,26.9766049 C30.8883647,26.6252716 30.7891021,26.2551981 30.7455284,25.8684452 C30.7019547,25.4804458 30.7384285,25.0831012 30.8549509,24.6800525 C30.9677937,24.293186 31.1359218,23.9857901 31.3593402,23.7586423 C31.5827586,23.5359422 31.8432299,23.3937847 32.1407618,23.330867 C32.4382938,23.2706659 32.7629197,23.286667 33.1146492,23.3763399 C33.4663788,23.465355 33.8275839,23.6222299 34.1982755,23.8438185 C34.5824468,24.0683375 34.9135182,24.3269881 35.1914998,24.6190918 C35.4694813,24.9050617 35.6865563,25.2072542 35.8427313,25.5270477 C35.9989063,25.8425333 36.0907323,26.1685377 36.1182121,26.5076551 C36.145692,26.8459102 36.0993315,27.1842965 35.9791295,27.5263633 L34.5940978,26.9329752 C34.647459,26.7487213 34.6731666,26.5693936 34.6712215,26.3943128 C34.6692763,26.2192022 34.6350045,26.0526528 34.5684051,25.8940178 C34.5018057,25.7344975 34.4019608,25.5849191 34.2688674,25.4448616 C34.135774,25.3033635 33.9664472,25.1770558 33.7608818,25.0658945 C33.5721661,24.9625292 33.3962358,24.8953023 33.2330857,24.8650626 C33.0699356,24.8346983 32.9227886,24.838406 32.7916404,24.8767165 C32.6604922,24.9156101 32.5482581,24.9866438 32.4549348,25.0900205 C32.3616115,25.1942485 32.2910331,25.3248192 32.2431976,25.4815563 C32.192909,25.6469899 32.1820684,25.8153666 32.2106757,25.9859011 C32.2392829,26.1560567 32.3030472,26.3286387 32.4019706,26.502948 C32.500894,26.6759393 32.6303771,26.8520946 32.7904237,27.0307494 C32.9504703,27.2071928 33.1367859,27.3866441 33.3493761,27.5684452 C33.6507984,27.8300506 33.9172848,28.099227 34.1488432,28.3766964 C34.3804016,28.6486636 34.5628549,28.9301713 34.6962085,29.2227504 C34.8295621,29.5118576 34.9076082,29.8133409 34.9303491,30.1293347 C34.95309,30.4446905 34.9092662,30.7755214 34.7988766,31.1247553 C34.6811276,31.5008569 34.5116956,31.8222959 34.2905754,32.0895907 C34.0694552,32.3612644 33.8127379,32.5786218 33.5204157,32.7403051 C33.2280935,32.9045486 32.9072989,33.0075954 32.5580225,33.0468668 C32.2087461,33.0852561 31.8470825,33.0563677 31.473021,32.9571514 C31.2404963,32.8929826 31.0164834,32.7985698 30.8009755,32.6733634 C30.5854677,32.5455158 30.3883517,32.386855 30.2096219,32.1972178 C30.030892,32.0047279 29.8744592,31.7838572 29.7403189,31.5348064 C29.6061785,31.2831796 29.5044443,31.0077398 29.435113,30.7092808 C29.3657817,30.409315 29.3336811,30.0870073 29.3388102,29.7435713 C29.3439394,29.4002599 29.3955653,29.0419303 29.4936894,28.6704059 L30.8888308,29.2956461 C30.8146182,29.5916818 30.7840726,29.8597512 30.797193,30.0984703 C30.8103135,30.3369546 30.8616607,30.5474734 30.9512363,30.7292489 C31.0408119,30.9097443 31.1654724,31.0620665 31.3252217,31.1858816 C31.484971,31.3079649 31.6709954,31.4032527 31.8833006,31.4718511 C32.0720163,31.5314893 32.2476399,31.5553264 32.4101768,31.5441943 C32.5727136,31.5329115 32.7186341,31.4934779 32.8479425,31.4263888 C32.9772508,31.3598111 33.0887942,31.2668709 33.1825759,31.147796 C33.2763577,31.0295401 33.3471652,30.8904189 33.3950007,30.7302719 Z" id="S" stroke="#112E47" fill="#112E47"></path>
                <g id="moneysuff" transform="translate(29.000000, 21.000000)" stroke="#112E47" stroke-width="2">
                    <path d="M5,2.46050087 L5.78170823,0.274779661" id="Path-19"></path>
                    <path d="M1,13.4605009 L1.78170823,11.2747797" id="Path-19-Copy"></path>
                </g>
            </g>
            <circle id="Oval-6-Copy" stroke="#112E47" stroke-width="2" fill="#A6F9FC" cx="77" cy="69" r="5"></circle>
            <g id="IV-paper" transform="translate(111.000000, 102.000000)">
                <g id="paper-02-copy">
                    <use fill="#FFFFFF" fill-rule="evenodd" xlink:href="#path-4"></use>
                    <path stroke="#112E47" stroke-width="2" d="M1.00015936,38.7646788 L1.00013148,38.7646626 C13.7096238,46.1611203 23.2977789,55.5294103 29.746903,66.8642344 C36.1286731,78.0806788 38.9716928,91.4014022 38.2864272,106.806009 L38.2864315,106.806024 L87.1366024,71.588459 L87.1366135,71.5884744 C87.0676452,54.6022651 83.5556097,40.3321089 76.6133726,28.7617137 C69.7022484,17.2431733 59.7622628,7.99178313 46.7755223,1.00000855 L1.00015201,38.7646874 Z"></path>
                </g>
                <g id="Group-4-Copy" transform="translate(51.526279, 47.428203) rotate(60.000000) translate(-51.526279, -47.428203) translate(43.526279, 36.428203)" stroke-width="1.80000007">
                    <polyline id="Path-13" stroke="#32EAFF" points="2.96296296 17.1111111 0 17.1111111 0 0 10.6666667 0 10.6666667 17.1111111 7.7037037 17.1111111"></polyline>
                    <polyline id="Path-13-Copy" stroke="#2762A7" transform="translate(10.666667, 13.444444) rotate(-180.000000) translate(-10.666667, -13.444444) " points="8.2962963 22 5.33333333 22 5.33333333 4.88888889 16 4.88888889 16 22 13.037037 22"></polyline>
                </g>
            </g>
            <circle id="spec-03" stroke="#112E47" stroke-width="2" fill="#516CFF" cx="256" cy="160" r="5"></circle>
        </g>
    </g>
</svg>