<?xml version="1.0" encoding="UTF-8"?>
<svg width="421px" height="382px" viewBox="0 0 421 382" version="1.1" xmlns="http://www.w3.org/2000/svg" xmlns:xlink="http://www.w3.org/1999/xlink">
    <!-- Generator: Sketch 47.1 (45422) - http://www.bohemiancoding.com/sketch -->
    <title>Artboard 6@2x</title>
    <desc>Created with Sketch.</desc>
    <defs>
        <path d="M6.36241015,13.8573861 L17.1735551,3.90045422 C17.3450207,3.73329882 17.592012,3.6918573 17.7968545,3.79631065 C21.1133109,5.52191365 23.6987435,7.96774594 25.5531523,11.1278161 C27.4286123,14.3816831 28.4637656,18.4455959 28.6586121,23.2772655 C28.6668693,23.4817005 28.5864923,23.6711822 28.4430494,23.7853285 L16.0517347,32.9859888 C16.1665741,28.6889454 15.3356676,24.9496127 13.5590152,21.8181329 C11.9054782,18.952874 9.53972293,16.5997665 6.46174949,14.7692519 C6.19164892,14.6115434 6.09461617,14.2680912 6.24502295,14.0012703 C6.27565034,13.9468795 6.31533617,13.8982363 6.36241015,13.8573861 Z" id="path-1"></path>
        <ellipse id="path-2" cx="43.6341789" cy="43.6476684" rx="43.6341789" ry="43.6476684"></ellipse>
        <path d="M3.24701347,22.9069148 L28.8535808,1.77496591 L28.8535759,1.77496 C29.0291947,1.63002966 29.275082,1.60586307 29.4755564,1.71382975 C36.8268724,5.67292515 42.4621219,10.9194684 46.3813049,17.4534594 C50.3200107,24.0199984 52.30886,32.1035613 52.3478529,41.7041481 L52.3478547,41.7041481 C52.3485889,41.8849067 52.2620269,42.0549044 52.1154141,42.1606347 L24.7892407,61.8669895 L24.7892483,61.8670001 C24.5383889,62.0479082 24.1883721,61.9912014 24.007464,61.7403419 C23.9337056,61.6380634 23.8966249,61.5138849 23.9022248,61.3879094 C24.2809138,52.8689666 22.7127389,45.5195669 19.1977002,39.3397101 C15.6405508,33.0858178 10.3485522,27.9135097 3.32170436,23.8227858 L3.32170946,23.8227771 C3.05442842,23.6671777 2.96389252,23.3243655 3.11949186,23.0570844 C3.15279071,22.9998853 3.19596593,22.9490421 3.24701347,22.9069148 Z" id="path-4"></path>
        <ellipse id="path-5" cx="2.79706275" cy="2.79792746" rx="2.79706275" ry="2.79792746"></ellipse>
        <path d="M8.65983751,-0.147103068 L13.4534258,-0.144337606 L13.4534256,-0.144014445 C13.7625788,-0.143836091 14.0131025,0.106832142 14.0131025,0.415985419 L14.0134256,22.2389907 L14.0137486,22.2389907 C14.0137486,22.5482701 13.7630281,22.7989906 13.4537487,22.7989906 C13.453641,22.7989906 13.4535333,22.7989906 13.4534256,22.7989906 L8.65983751,22.7959021 L8.6598377,22.795579 C8.35068447,22.7954006 8.10016081,22.5447324 8.10016081,22.2355791 L8.09983765,0.41257382 L8.09951467,0.41257382 C8.09951467,0.103294384 8.35023519,-0.147426137 8.65951463,-0.147426137 C8.65962232,-0.147426137 8.65973001,-0.147426106 8.6598377,-0.147426044 Z" id="path-6"></path>
        <path d="M16.8310481,21.2270789 L20.9469403,22.1816185 L20.9469403,22.1816185 C21.2482236,22.2514908 21.5491047,22.0638951 21.618977,21.7626118 C21.6380699,21.6802845 21.6382817,21.5947034 21.6195963,21.5122826 L20.7288781,17.5833491 L16.8310481,21.2270789 Z" id="path-7"></path>
        <path d="M6.36241015,13.8573861 L17.1735551,3.90045422 C17.3450207,3.73329882 17.592012,3.6918573 17.7968545,3.79631065 C21.1133109,5.52191365 23.6987435,7.96774594 25.5531523,11.1278161 C27.4286123,14.3816831 28.4637656,18.4455959 28.6586121,23.2772655 C28.6668693,23.4817005 28.5864923,23.6711822 28.4430494,23.7853285 L16.0517347,32.9859888 C16.1665741,28.6889454 15.3356676,24.9496127 13.5590152,21.8181329 C11.9054782,18.952874 9.53972293,16.5997665 6.46174949,14.7692519 C6.19164892,14.6115434 6.09461617,14.2680912 6.24502295,14.0012703 C6.27565034,13.9468795 6.31533617,13.8982363 6.36241015,13.8573861 Z" id="path-8"></path>
        <path d="M6.36241015,13.8573861 L17.1735551,3.90045422 C17.3450207,3.73329882 17.592012,3.6918573 17.7968545,3.79631065 C21.1133109,5.52191365 23.6987435,7.96774594 25.5531523,11.1278161 C27.4286123,14.3816831 28.4637656,18.4455959 28.6586121,23.2772655 C28.6668693,23.4817005 28.5864923,23.6711822 28.4430494,23.7853285 L16.0517347,32.9859888 C16.1665741,28.6889454 15.3356676,24.9496127 13.5590152,21.8181329 C11.9054782,18.952874 9.53972293,16.5997665 6.46174949,14.7692519 C6.19164892,14.6115434 6.09461617,14.2680912 6.24502295,14.0012703 C6.27565034,13.9468795 6.31533617,13.8982363 6.36241015,13.8573861 Z" id="path-9"></path>
    </defs>
    <g id="assets" stroke="none" stroke-width="1" fill="none" fill-rule="evenodd">
        <g id="Artboard-6">
            <g id="footer-illustration" transform="translate(1.000000, 1.000000)">
                <path d="M25.3588338,17.6665873 C97.1173451,149.095529 162.467748,218.120742 221.410043,224.742228 C280.352337,231.363713 346.090613,300.388927 418.624869,431.817868 L0.261430575,431.817868 L0.261430575,0.136318896 L25.3588338,17.6665873 Z" id="Path-32" stroke="#112E47" stroke-width="1.11999991"></path>
                <g id="moneyeuro" transform="translate(173.836347, 138.293100) rotate(336.000000) translate(-173.836347, -138.293100) translate(156.336347, 119.793100)">
                    <g id="paper-02-copy" transform="translate(17.416700, 18.362625) rotate(-31.000000) translate(-17.416700, -18.362625) ">
                        <use fill="#FFFFFF" fill-rule="evenodd" xlink:href="#path-1"></use>
                        <path stroke="#112E47" stroke-width="1.11999991" d="M6.73404193,14.2762246 C6.73564583,14.2775833 6.73898268,14.2826598 6.74799422,14.2879371 C9.90354596,16.1645886 12.3398359,18.5851656 14.0460843,21.5417931 C15.714555,24.4825949 16.5730436,27.9383055 16.6201402,31.8664802 L28.0943539,23.3471375 C28.0932739,23.3479969 28.1003397,23.3313424 28.0990669,23.2998302 C27.9074063,18.5471605 26.8924355,14.5728483 25.0701718,11.4112412 C23.2683211,8.34073446 20.7601085,5.96940576 17.5424635,4.29519458 C17.5546761,4.301422 17.5665147,4.2994416 17.552927,4.31237277 L6.74178208,14.2693047 L6.73404193,14.2762246 Z"></path>
                    </g>
                    <path d="M19.8032921,16.741939 L18.3928929,16.741939 C18.4011168,16.9805071 18.4374387,17.1827385 18.5018596,17.3486393 C18.5662805,17.5145401 18.6540012,17.6482185 18.7650245,17.7496785 C18.8760477,17.8511385 19.0083141,17.9244902 19.1618278,17.9697359 C19.3153414,18.0149815 19.486671,18.037604 19.6758217,18.037604 C19.8211113,18.037604 19.9616016,18.0273211 20.0972967,18.0067549 C20.2329917,17.9861887 20.3625169,17.9525977 20.485876,17.9059809 L20.6174585,18.8396824 C20.4557209,18.8780727 20.2871326,18.908236 20.1116885,18.9301733 C19.9362444,18.9521106 19.7580616,18.9630791 19.5771348,18.9630791 C19.2426945,18.9630791 18.9349865,18.916463 18.6540018,18.8232295 C18.3730171,18.729996 18.1290437,18.5908334 17.9220745,18.4057374 C17.7151052,18.2206415 17.5519995,17.9889323 17.4327523,17.7106029 C17.3135051,17.4322734 17.2483999,17.1093887 17.2374346,16.741939 L16.534291,16.741939 L16.534291,16.1331821 L17.2374346,16.1331821 L17.2374346,15.6149161 L16.534291,15.6149161 L16.534291,15.0102724 L17.2456585,15.0102724 C17.267589,14.648307 17.3416034,14.330221 17.4677039,14.0560048 C17.5938043,13.7817886 17.7617073,13.552136 17.9714179,13.36704 C18.1811285,13.1819441 18.4278431,13.0427815 18.7115691,12.949548 C18.9952952,12.8563144 19.3057444,12.8096984 19.642926,12.8096984 C19.8101462,12.8096984 19.9739373,12.8213524 20.1343042,12.8446608 C20.2946711,12.8679692 20.4557209,12.898818 20.6174585,12.9372083 L20.485876,13.875023 C20.3679995,13.8366327 20.2405303,13.8050983 20.1034646,13.7804189 C19.9663989,13.7557394 19.8293352,13.7433999 19.6922695,13.7433999 C19.3139681,13.7433999 19.012428,13.8434873 18.7876402,14.0436651 C18.5628524,14.2438429 18.4340126,14.5660421 18.4011168,15.0102724 L19.8032921,15.0102724 L19.8032921,15.6149161 L18.3928929,15.6149161 L18.3928929,16.1331821 L19.8032921,16.1331821 L19.8032921,16.741939 Z" id="€" fill="#112E47" transform="translate(18.575875, 15.886389) rotate(24.000000) translate(-18.575875, -15.886389) "></path>
                </g>
                <ellipse id="Oval-6" stroke="#112E47" stroke-width="1.11999991" fill="#516CFF" cx="261.928414" cy="176.26943" rx="2.79706275" ry="2.79792746"></ellipse>
                <g id="beachball" transform="translate(186.136421, 221.087304) rotate(-195.000000) translate(-186.136421, -221.087304) translate(142.136421, 177.087304)">
                    <mask id="mask-3" fill="white">
                        <use xlink:href="#path-2"></use>
                    </mask>
                    <g id="Oval-5">
                        <use fill="#FFFFFF" fill-rule="evenodd" xlink:href="#path-2"></use>
                        <ellipse stroke="#112E47" stroke-width="1.11999991" cx="43.6341789" cy="43.6476684" rx="44.1941789" ry="44.2076684"></ellipse>
                    </g>
                    <path d="M61.3394027,3.43520279 C68.8984056,20.7719529 68.8984056,37.1490619 61.3394027,52.5665297 C53.7803999,67.9839975 43.4587531,78.4602224 30.3744622,83.9952046 L61.3394027,3.43520279 Z" id="Path-25-Copy-2" stroke="#112E47" stroke-width="1.11999991" stroke-linecap="round" mask="url(#mask-3)"></path>
                    <path d="M55.7186736,1.05386973 L22.4781569,80.7291773 C16.7486921,67.9091391 16.4675826,53.3276396 21.6348284,36.9846788 C26.8020741,20.641718 38.1633559,8.66478165 55.7186736,1.05386973 Z" id="Path-25-Copy-3" stroke="#112E47" stroke-width="1.11999991" stroke-linecap="round" mask="url(#mask-3)"></path>
                    <path d="M0.426760128,40.006266 C9.41494453,49.7137914 20.3917629,57.2900194 33.3572153,62.7349499 C46.3226676,68.1798805 60.5024053,71.9044425 75.8964282,73.908636" id="Path-25" stroke="#112E47" stroke-width="1.11999991" mask="url(#mask-3)"></path>
                    <path d="M88.2165685,48.895317 L11.6991585,14.1752425 C24.2973508,15.1706563 37.6654812,18.6371277 51.8035499,24.5746569 C65.9416185,30.5121861 78.0792914,38.6190728 88.2165685,48.895317 Z" id="Path-25-Copy" stroke="#112E47" stroke-width="1.11999991" mask="url(#mask-3)"></path>
                    <path d="M76.0074047,73.8469906 L-0.228146552,40.0100704" id="Path-5" stroke="#112E47" stroke-width="1.11999991" mask="url(#mask-3)"></path>
                </g>
                <g id="sign-here" transform="translate(133.241820, 40.559445) rotate(4.000000) translate(-133.241820, -40.559445) translate(95.241820, 2.559445)">
                    <g id="close" transform="translate(20.817089, 11.191710)">
                        <g id="paper-02" transform="translate(27.695612, 31.809851) scale(-1, 1) rotate(4.000000) translate(-27.695612, -31.809851) ">
                            <use fill="#FFFFFF" fill-rule="evenodd" xlink:href="#path-4"></use>
                            <path stroke="#112E47" stroke-width="1.11999991" d="M3.603447,23.338822 C10.7131462,27.4777783 16.0767884,32.7201096 19.6844687,39.0628412 C23.2543971,45.3392005 24.8448444,52.7929825 24.4616723,61.4127783 L24.4616853,61.4127788 L51.7878586,41.706424 C51.7492524,32.2013086 49.7845877,24.2160426 45.9010696,17.7415115 C42.0350169,11.2960982 36.474674,6.11929476 29.2100244,2.20687408 L3.60345344,23.3388298 Z"></path>
                        </g>
                        <path d="M8.8317757,39.1709845 L26.655996,50.0630555" id="Path-20" stroke="#032E49" stroke-width="1.11999991" stroke-linecap="round"></path>
                        <g id="x" transform="translate(25.614152, 42.528497)" stroke="#112E47" stroke-width="1.11999991" stroke-linecap="round">
                            <path d="M0.279706275,1.95854922 L3.39600469,1.11917098" id="Path-21"></path>
                            <path d="M1.73312294,0 L1.73312294,3.07772021" id="Path-21-Copy"></path>
                        </g>
                        <path d="M10.9594439,36.2828386 L11.2230861,36.2327958 L11.2230861,36.2327958 C12.2285811,36.0419396 13.2005526,36.6953336 13.4033969,37.6984789 L13.4033969,37.6984789 L13.4033969,37.6984789 C13.6059642,38.7002533 14.5788515,39.3509327 15.5820611,39.1555972 L18.6322113,38.5617005 L18.6322113,38.5617005 C19.2081966,38.44955 19.7762684,38.7889384 19.9504779,39.3492846 L19.9504779,39.3492846 L19.9504779,39.3492846 C20.1533989,40.0019819 20.2566044,40.6815775 20.2566044,41.365091 L20.2566044,41.7356408 L20.2566044,41.7356408 C20.2566044,42.1336576 20.5792608,42.456314 20.9772776,42.456314 C21.1276672,42.456314 21.2742892,42.409266 21.3966006,42.321762 L22.4846686,41.543336 L22.4846686,41.543336 C23.0230195,41.1581887 23.1472156,40.4095456 22.7620684,39.8711947 C22.5866212,39.6259581 22.3251834,39.4558635 22.0298908,39.394831" id="Path-23" stroke="#112E47" stroke-width="0.559999957" stroke-linecap="round" transform="translate(16.972688, 39.327999) scale(-1, 1) rotate(299.000000) translate(-16.972688, -39.327999) "></path>
                    </g>
                    <g id="pencil" transform="translate(0.000000, -0.000000)">
                        <g id="Oval-4">
                            <use fill="#FFFFFF" fill-rule="evenodd" xlink:href="#path-5"></use>
                            <ellipse stroke="#112E47" stroke-width="1.11999991" cx="2.79706275" cy="2.79792746" rx="2.23706279" ry="2.2379275"></ellipse>
                        </g>
                        <g id="Rectangle-11" transform="translate(11.056632, 11.325782) rotate(-44.000000) translate(-11.056632, -11.325782) ">
                            <use fill="#FFFFFF" fill-rule="evenodd" xlink:href="#path-6"></use>
                            <path stroke="#112E47" stroke-width="1.11999991" d="M13.4531027,0.415662257 L13.4534258,-0.144337606 L12.8934259,-0.144660675 L12.8934257,-0.144337513 L13.4527796,0.415662071 L13.4531027,0.415662257 Z M13.4534257,22.238999 L13.453434,22.7989906 L14.0137486,22.7989906 L14.0137486,22.2389907 L13.4537487,22.2389907 L13.4534257,22.238999 Z M8.66019831,22.2359023 L8.65983751,22.7959021 L9.21983737,22.7962252 L9.21983756,22.795902 L8.66048376,22.2359025 L8.66019831,22.2359023 Z M8.65951463,0.41257382 L8.6598377,-0.147426044 L8.65974854,-0.147426095 L8.65967616,-0.147426137 L8.09983783,-0.147749113 L8.09983765,-0.147426137 L8.09951467,-0.147426137 L8.09951467,0.412412286 L8.09951462,0.412493006 L8.09951467,0.412573727 L8.09959546,0.41257382 L8.09967611,0.41257382 L8.65951463,0.41257382 Z M8.09967611,0.41257382 L8.65983761,0.412896982 L8.65982931,-0.147426137 L8.65974854,-0.147426137 L8.65967616,-0.147426137 L8.09983765,-0.147426137 L8.09951467,0.412412286 L8.09951467,0.412493006 L8.09951458,0.412573727 L8.09959544,0.412573773 L8.09967611,0.41257382 Z"></path>
                        </g>
                        <g id="Path-14">
                            <use fill="#032E49" fill-rule="evenodd" xlink:href="#path-7"></use>
                            <path stroke="#112E47" stroke-width="1.11999991" d="M17.9807983,20.9188614 L21.0734553,21.6360968 L20.398478,18.6587907 L17.9807983,20.9188614 Z"></path>
                        </g>
                    </g>
                </g>
                <g id="money-copy-2" transform="translate(332.609499, 239.061552) rotate(-18.000000) translate(-332.609499, -239.061552) translate(315.109499, 220.561552)">
                    <g id="paper-02-copy" transform="translate(17.416700, 18.362625) rotate(-31.000000) translate(-17.416700, -18.362625) ">
                        <use fill="#FFFFFF" fill-rule="evenodd" xlink:href="#path-8"></use>
                        <path stroke="#112E47" stroke-width="1.11999991" d="M6.72981712,14.2800018 L6.72944154,14.2803375 C6.72956861,14.2802273 6.72969385,14.2801152 6.72981712,14.2800018 Z M6.73404193,14.2762246 C6.73564583,14.2775833 6.73898268,14.2826598 6.74799422,14.2879371 C9.90354596,16.1645886 12.3398359,18.5851656 14.0460843,21.5417931 C15.714555,24.4825949 16.5730436,27.9383055 16.6201402,31.8664802 L28.0943539,23.3471375 C28.0932739,23.3479969 28.1003397,23.3313424 28.0990669,23.2998302 C27.9074063,18.5471605 26.8924355,14.5728483 25.0701718,11.4112412 C23.2683211,8.34073446 20.7601085,5.96940576 17.5424635,4.29519458 C17.5546761,4.301422 17.5665147,4.2994416 17.552927,4.31237277 L6.74178208,14.2693047 L6.73404193,14.2762246 Z"></path>
                    </g>
                    <path d="M18.6815825,17.1962143 C18.7083423,17.1069402 18.7206616,17.0195504 18.7185407,16.9337659 C18.7164199,16.8479543 18.6948464,16.7610194 18.6538195,16.6725622 C18.6127926,16.5835498 18.5511995,16.4926781 18.4690383,16.3994809 C18.3868771,16.3051103 18.2794808,16.2039537 18.146846,16.0952792 C17.985594,15.9590297 17.8368162,15.8077911 17.7005082,15.6415982 C17.5642001,15.4722588 17.452706,15.2900743 17.3660224,15.0957167 C17.2793389,14.8991157 17.2238101,14.692028 17.1994344,14.4756067 C17.1750588,14.2584878 17.1954627,14.0361395 17.2606468,13.8105993 C17.3237724,13.5941145 17.4178254,13.4221002 17.5428085,13.2949915 C17.6677915,13.1703718 17.8135024,13.0908225 17.9799455,13.0556147 C18.1463887,13.021927 18.3279884,13.030881 18.5247504,13.0810607 C18.7215123,13.1308722 18.923575,13.2186572 19.1309445,13.3426549 C19.3458547,13.4682925 19.5310603,13.6130296 19.6865666,13.7764866 C19.842073,13.9365112 19.9635075,14.1056138 20.0508737,14.2845656 C20.13824,14.4611067 20.1896086,14.6435341 20.2049812,14.8332992 C20.2203537,15.0225819 20.1944191,15.2119379 20.1271766,15.4033535 L19.3523725,15.0713022 C19.3822234,14.9681964 19.3966046,14.8678472 19.3955164,14.7698745 C19.3944282,14.6718852 19.3752562,14.5786866 19.3379997,14.4899167 C19.3007431,14.4006514 19.2448886,14.3169495 19.1704345,14.2385754 C19.0959804,14.1593951 19.0012568,14.0887151 18.886261,14.0265109 C18.7806911,13.9686692 18.6822734,13.93105 18.5910052,13.9141283 C18.499737,13.8971369 18.4174211,13.8992116 18.3440552,13.9206496 C18.2706892,13.942414 18.2079041,13.9821633 18.1556978,14.0400115 C18.1034916,14.0983359 18.0640092,14.1714014 18.0372494,14.2591093 C18.0091173,14.3516834 18.003053,14.4459046 18.0190562,14.5413333 C18.0350595,14.6365499 18.07073,14.7331242 18.126069,14.8306652 C18.181408,14.9274686 18.2538425,15.0260426 18.3433745,15.1260152 C18.4329066,15.2247504 18.5371339,15.3251687 18.6560595,15.426902 C18.824679,15.5732926 18.9737548,15.7239198 19.1032914,15.8791876 C19.2328281,16.0313765 19.3348948,16.1889042 19.4094945,16.3526272 C19.4840942,16.5144074 19.5277541,16.683113 19.5404757,16.8599386 C19.5531972,17.0364071 19.5286816,17.2215353 19.4669283,17.4169615 C19.401058,17.6274225 19.3062756,17.8072951 19.1825782,17.9568694 C19.0588808,18.1088941 18.9152699,18.2305241 18.7517412,18.3209998 C18.5882125,18.412908 18.408756,18.4705715 18.2133664,18.4925472 C18.0179768,18.5140293 17.8156577,18.4978638 17.606403,18.4423438 C17.4763257,18.4064359 17.3510101,18.3536038 17.2304523,18.2835401 C17.1098945,18.2119985 16.9996253,18.1232142 16.8996416,18.017096 C16.7996579,17.9093814 16.7121474,17.7857854 16.6371076,17.6464202 C16.5620678,17.5056135 16.5051564,17.3514814 16.4663716,17.184468 C16.4275868,17.0166115 16.4096293,16.8362528 16.4124987,16.644071 C16.415368,16.4519589 16.4442481,16.2514429 16.49914,16.0435432 L17.2795996,16.3934185 C17.2380841,16.5590758 17.2209965,16.7090836 17.2283363,16.8426673 C17.235676,16.9761197 17.2644003,17.0939229 17.31451,17.1956419 C17.3646197,17.2966445 17.4343564,17.3818818 17.5237222,17.4511669 C17.6130879,17.519483 17.7171523,17.5728046 17.8359185,17.6111913 C17.9414884,17.644564 18.0397345,17.6579028 18.1306596,17.6516735 C18.2215848,17.6453598 18.3032145,17.6232933 18.3755513,17.5857512 C18.447888,17.5484953 18.5102868,17.4964873 18.5627494,17.4298547 C18.6152121,17.3636805 18.6548227,17.2858303 18.6815825,17.1962143 Z" id="S" stroke="#112E47" stroke-width="0.559999957" fill="#112E47"></path>
                    <g id="moneysuff" transform="translate(16.222964, 11.751295)" stroke="#112E47" stroke-width="1.11999991">
                        <path d="M2.79706275,1.37686059 L3.23436014,0.153762712" id="Path-19"></path>
                        <path d="M0.55941255,7.53230101 L0.996709943,6.30920313" id="Path-19-Copy"></path>
                    </g>
                </g>
                <g id="money-copy-3" transform="translate(104.032782, 139.299965) rotate(-18.000000) translate(-104.032782, -139.299965) translate(86.532782, 120.799965)">
                    <g id="paper-02-copy" transform="translate(17.416700, 18.362625) rotate(-31.000000) translate(-17.416700, -18.362625) ">
                        <use fill="#FFFFFF" fill-rule="evenodd" xlink:href="#path-9"></use>
                        <path stroke="#112E47" stroke-width="1.11999991" d="M6.73404193,14.2762246 C6.73564583,14.2775833 6.73898268,14.2826598 6.74799422,14.2879371 C9.90354596,16.1645886 12.3398359,18.5851656 14.0460843,21.5417931 C15.714555,24.4825949 16.5730436,27.9383055 16.6201402,31.8664802 L28.0943539,23.3471375 C28.0932739,23.3479969 28.1003397,23.3313424 28.0990669,23.2998302 C27.9074063,18.5471605 26.8924355,14.5728483 25.0701718,11.4112412 C23.2683211,8.34073446 20.7601085,5.96940576 17.5424635,4.29519458 C17.5546761,4.301422 17.5665147,4.2994416 17.552927,4.31237277 L6.74178208,14.2693047 L6.73404193,14.2762246 Z"></path>
                    </g>
                    <path d="M18.6815825,17.1962143 C18.7083423,17.1069402 18.7206616,17.0195504 18.7185407,16.9337659 C18.7164199,16.8479543 18.6948464,16.7610194 18.6538195,16.6725622 C18.6127926,16.5835498 18.5511995,16.4926781 18.4690383,16.3994809 C18.3868771,16.3051103 18.2794808,16.2039537 18.146846,16.0952792 C17.985594,15.9590297 17.8368162,15.8077911 17.7005082,15.6415982 C17.5642001,15.4722588 17.452706,15.2900743 17.3660224,15.0957167 C17.2793389,14.8991157 17.2238101,14.692028 17.1994344,14.4756067 C17.1750588,14.2584878 17.1954627,14.0361395 17.2606468,13.8105993 C17.3237724,13.5941145 17.4178254,13.4221002 17.5428085,13.2949915 C17.6677915,13.1703718 17.8135024,13.0908225 17.9799455,13.0556147 C18.1463887,13.021927 18.3279884,13.030881 18.5247504,13.0810607 C18.7215123,13.1308722 18.923575,13.2186572 19.1309445,13.3426549 C19.3458547,13.4682925 19.5310603,13.6130296 19.6865666,13.7764866 C19.842073,13.9365112 19.9635075,14.1056138 20.0508737,14.2845656 C20.13824,14.4611067 20.1896086,14.6435341 20.2049812,14.8332992 C20.2203537,15.0225819 20.1944191,15.2119379 20.1271766,15.4033535 L19.3523725,15.0713022 C19.3822234,14.9681964 19.3966046,14.8678472 19.3955164,14.7698745 C19.3944282,14.6718852 19.3752562,14.5786866 19.3379997,14.4899167 C19.3007431,14.4006514 19.2448886,14.3169495 19.1704345,14.2385754 C19.0959804,14.1593951 19.0012568,14.0887151 18.886261,14.0265109 C18.7806911,13.9686692 18.6822734,13.93105 18.5910052,13.9141283 C18.499737,13.8971369 18.4174211,13.8992116 18.3440552,13.9206496 C18.2706892,13.942414 18.2079041,13.9821633 18.1556978,14.0400115 C18.1034916,14.0983359 18.0640092,14.1714014 18.0372494,14.2591093 C18.0091173,14.3516834 18.003053,14.4459046 18.0190562,14.5413333 C18.0350595,14.6365499 18.07073,14.7331242 18.126069,14.8306652 C18.181408,14.9274686 18.2538425,15.0260426 18.3433745,15.1260152 C18.4329066,15.2247504 18.5371339,15.3251687 18.6560595,15.426902 C18.824679,15.5732926 18.9737548,15.7239198 19.1032914,15.8791876 C19.2328281,16.0313765 19.3348948,16.1889042 19.4094945,16.3526272 C19.4840942,16.5144074 19.5277541,16.683113 19.5404757,16.8599386 C19.5531972,17.0364071 19.5286816,17.2215353 19.4669283,17.4169615 C19.401058,17.6274225 19.3062756,17.8072951 19.1825782,17.9568694 C19.0588808,18.1088941 18.9152699,18.2305241 18.7517412,18.3209998 C18.5882125,18.412908 18.408756,18.4705715 18.2133664,18.4925472 C18.0179768,18.5140293 17.8156577,18.4978638 17.606403,18.4423438 C17.4763257,18.4064359 17.3510101,18.3536038 17.2304523,18.2835401 C17.1098945,18.2119985 16.9996253,18.1232142 16.8996416,18.017096 C16.7996579,17.9093814 16.7121474,17.7857854 16.6371076,17.6464202 C16.5620678,17.5056135 16.5051564,17.3514814 16.4663716,17.184468 C16.4275868,17.0166115 16.4096293,16.8362528 16.4124987,16.644071 C16.415368,16.4519589 16.4442481,16.2514429 16.49914,16.0435432 L17.2795996,16.3934185 C17.2380841,16.5590758 17.2209965,16.7090836 17.2283363,16.8426673 C17.235676,16.9761197 17.2644003,17.0939229 17.31451,17.1956419 C17.3646197,17.2966445 17.4343564,17.3818818 17.5237222,17.4511669 C17.6130879,17.519483 17.7171523,17.5728046 17.8359185,17.6111913 C17.9414884,17.644564 18.0397345,17.6579028 18.1306596,17.6516735 C18.2215848,17.6453598 18.3032145,17.6232933 18.3755513,17.5857512 C18.447888,17.5484953 18.5102868,17.4964873 18.5627494,17.4298547 C18.6152121,17.3636805 18.6548227,17.2858303 18.6815825,17.1962143 Z" id="S" stroke="#112E47" stroke-width="0.559999957" fill="#112E47"></path>
                    <g id="moneysuff" transform="translate(16.222964, 11.751295)" stroke="#112E47" stroke-width="1.11999991">
                        <path d="M2.79706275,1.37686059 L3.23436014,0.153762712" id="Path-19"></path>
                        <path d="M0.55941255,7.53230101 L0.996709943,6.30920313" id="Path-19-Copy"></path>
                    </g>
                </g>
                <ellipse id="Oval-6-Copy" stroke="#112E47" stroke-width="1.11999991" fill="#A6F9FC" cx="79.0005101" cy="229.430052" rx="2.79706275" ry="2.79792746"></ellipse>
            </g>
        </g>
    </g>
</svg>