<?xml version="1.0" encoding="UTF-8"?>
<svg width="718px" height="635px" viewBox="0 0 718 635" version="1.1" xmlns="http://www.w3.org/2000/svg" xmlns:xlink="http://www.w3.org/1999/xlink">
    <!-- Generator: Sketch 47.1 (45422) - http://www.bohemiancoding.com/sketch -->
    <title>footer-illustration@2x</title>
    <desc>Created with Sketch.</desc>
    <defs>
        <path d="M11.3733776,24.7636622 L30.6992667,6.97025615 C31.0057769,6.67154327 31.4472959,6.59748573 31.8134703,6.78414774 C37.7419329,9.86786421 42.3636251,14.2386571 45.6785467,19.8858196 C49.0310994,25.7006004 50.8815285,32.9629631 51.229834,41.5973355 C51.2445945,41.9626684 51.1009135,42.3012793 50.8444965,42.505263 L28.6939124,58.9471837 C28.8991981,51.2682081 27.4138784,44.5858819 24.2379532,38.9898116 C21.2821077,33.8694878 17.0531085,29.6643975 11.5509555,26.3932002 C11.0681266,26.1113693 10.8946719,25.4976075 11.1635374,25.0207886 C11.2182867,24.9235903 11.2892286,24.8366629 11.3733776,24.7636622 Z" id="path-1"></path>
        <circle id="path-2" cx="78" cy="78" r="78"></circle>
        <path d="M4.01650785,40.9360584 L49.7918797,3.17137664 L49.7918818,3.17137918 C50.1054394,2.91269416 50.5443863,2.86955608 50.9023039,3.06225099 C64.0438118,10.1373489 74.1175786,19.5132527 81.1236043,31.1899622 C88.1644368,42.924683 91.7196834,57.3704151 91.789344,74.5271584 L91.7893251,74.5271585 C91.7906359,74.8499859 91.6360149,75.1535881 91.3741428,75.3423797 L42.5239907,110.559931 L42.5240043,110.55995 C42.0759936,110.882934 41.4509784,110.781581 41.127994,110.33357 C40.9963322,110.150942 40.9301486,109.92923 40.9401539,109.704313 C41.6174057,94.479856 38.8141803,81.345586 32.5304779,70.301503 C26.1716147,59.1253191 16.7114164,49.8820517 4.14988301,42.5717006 L4.14989924,42.5716728 C3.67257833,42.2938895 3.51082109,41.6817567 3.78860433,41.2044358 C3.84810099,41.1022014 3.9252647,41.011334 4.01650785,40.9360584 Z" id="path-4"></path>
        <path d="M11.3733776,24.7636622 L30.6992667,6.97025615 C31.0057769,6.67154327 31.4472959,6.59748573 31.8134703,6.78414774 C37.7419329,9.86786421 42.3636251,14.2386571 45.6785467,19.8858196 C49.0310994,25.7006004 50.8815285,32.9629631 51.229834,41.5973355 C51.2445945,41.9626684 51.1009135,42.3012793 50.8444965,42.505263 L28.6939124,58.9471837 C28.8991981,51.2682081 27.4138784,44.5858819 24.2379532,38.9898116 C21.2821077,33.8694878 17.0531085,29.6643975 11.5509555,26.3932002 C11.0681266,26.1113693 10.8946719,25.4976075 11.1635374,25.0207886 C11.2182867,24.9235903 11.2892286,24.8366629 11.3733776,24.7636622 Z" id="path-5"></path>
        <path d="M11.3733776,24.7636622 L30.6992667,6.97025615 C31.0057769,6.67154327 31.4472959,6.59748573 31.8134703,6.78414774 C37.7419329,9.86786421 42.3636251,14.2386571 45.6785467,19.8858196 C49.0310994,25.7006004 50.8815285,32.9629631 51.229834,41.5973355 C51.2445945,41.9626684 51.1009135,42.3012793 50.8444965,42.505263 L28.6939124,58.9471837 C28.8991981,51.2682081 27.4138784,44.5858819 24.2379532,38.9898116 C21.2821077,33.8694878 17.0531085,29.6643975 11.5509555,26.3932002 C11.0681266,26.1113693 10.8946719,25.4976075 11.1635374,25.0207886 C11.2182867,24.9235903 11.2892286,24.8366629 11.3733776,24.7636622 Z" id="path-6"></path>
        <path d="M11.3733776,24.7636622 L30.6992667,6.97025615 C31.0057769,6.67154327 31.4472959,6.59748573 31.8134703,6.78414774 C37.7419329,9.86786421 42.3636251,14.2386571 45.6785467,19.8858196 C49.0310994,25.7006004 50.8815285,32.9629631 51.229834,41.5973355 C51.2445945,41.9626684 51.1009135,42.3012793 50.8444965,42.505263 L28.6939124,58.9471837 C28.8991981,51.2682081 27.4138784,44.5858819 24.2379532,38.9898116 C21.2821077,33.8694878 17.0531085,29.6643975 11.5509555,26.3932002 C11.0681266,26.1113693 10.8946719,25.4976075 11.1635374,25.0207886 C11.2182867,24.9235903 11.2892286,24.8366629 11.3733776,24.7636622 Z" id="path-7"></path>
    </defs>
    <g id="assets" stroke="none" stroke-width="1" fill="none" fill-rule="evenodd">
        <g id="footer-illustration">
            <g transform="translate(-35.000000, -48.000000)">
                <path d="M45.331185,31.5708459 C173.605946,266.439232 290.42564,389.789845 395.790267,401.622685 C501.154894,413.455525 618.667945,536.806138 748.329419,771.674524 L0.467330551,771.674524 L0.467330551,0.243606917 L45.331185,31.5708459 Z" id="Path-32" stroke="#112E47" stroke-width="2"></path>
                <g id="moneyeuro" transform="translate(378.742218, 250.755836) rotate(336.000000) translate(-378.742218, -250.755836) translate(347.742218, 217.755836)">
                    <g id="paper-02-copy" transform="translate(31.133910, 32.814691) rotate(-31.000000) translate(-31.133910, -32.814691) ">
                        <use fill="#FFFFFF" fill-rule="evenodd" xlink:href="#path-1"></use>
                        <path stroke="#112E47" stroke-width="2" d="M12.0365418,25.5120022 C12.039341,25.5144963 12.0453708,25.5239109 12.0619902,25.53364 C17.7026766,28.8871997 22.0576522,33.2127504 25.1076539,38.4962322 C28.090402,43.751919 29.6250144,49.927934 29.7089598,56.9484028 L50.2219437,41.7226852 C50.2202214,41.7240553 50.2329283,41.6941139 50.2306467,41.6376422 C49.8880332,33.1443731 48.0736625,26.0420536 44.8161498,20.3920523 C41.5951047,14.904814 37.1113219,10.6670405 31.359312,7.67506878 C31.3806556,7.68594892 31.4012092,7.6825117 31.3766034,7.70592938 L12.0507142,25.4993354 L12.0365418,25.5120022 Z"></path>
                    </g>
                    <path d="M35.4001571,29.918465 L32.8789422,29.918465 C32.8936432,30.3447951 32.9585718,30.7061901 33.0737299,31.0026609 C33.188888,31.2991318 33.3456967,31.5380201 33.5441607,31.7193328 C33.7426247,31.9006456 33.9790628,32.0317278 34.2534821,32.1125835 C34.5279014,32.1934392 34.8341684,32.2338665 35.1722922,32.2338665 C35.4320105,32.2338665 35.6831494,32.2154904 35.9257164,32.1787379 C36.1682835,32.1419853 36.3998214,32.0819569 36.6203369,31.9986511 L36.8555523,33.6672102 C36.5664319,33.735815 36.2650652,33.789718 35.9514431,33.8289208 C35.6378211,33.8681235 35.3193034,33.8877246 34.9958806,33.8877246 C34.3980385,33.8877246 33.8479831,33.80442 33.3456977,33.6378083 C32.8434123,33.4711966 32.4072882,33.2225078 32.0373121,32.8917345 C31.6673361,32.5609612 31.3757699,32.1468883 31.1626049,31.6495032 C30.9494399,31.1521182 30.8330585,30.5751113 30.8134571,29.918465 L29.5565249,29.918465 L29.5565249,28.8305939 L30.8134571,28.8305939 L30.8134571,27.9044333 L29.5565249,27.9044333 L29.5565249,26.8239126 L30.8281581,26.8239126 C30.8673608,26.1770671 30.9996681,25.6086356 31.225084,25.1186011 C31.4504999,24.6285666 31.7506415,24.2181689 32.1255179,23.8873956 C32.5003943,23.5566223 32.9414187,23.3079335 33.4486044,23.1413218 C33.9557901,22.9747101 34.5107459,22.8914055 35.1134883,22.8914055 C35.4124094,22.8914055 35.7052006,22.9122316 35.9918708,22.9538845 C36.278541,22.9955375 36.5664319,23.0506655 36.8555523,23.1192704 L36.6203369,24.79518 C36.409622,24.7265751 36.1817594,24.670222 35.9367422,24.6261189 C35.6917249,24.5820158 35.4467113,24.5599646 35.2016941,24.5599646 C34.5254465,24.5599646 33.9864166,24.7388245 33.5845883,25.0965497 C33.18276,25.4542749 32.9524473,26.0300568 32.8936431,26.8239126 L35.4001571,26.8239126 L35.4001571,27.9044333 L32.8789422,27.9044333 L32.8789422,28.8305939 L35.4001571,28.8305939 L35.4001571,29.918465 Z" id="€" fill="#112E47" transform="translate(33.206039, 28.389565) rotate(24.000000) translate(-33.206039, -28.389565) "></path>
                </g>
                <circle id="Oval-6" stroke="#112E47" stroke-width="2" fill="#516CFF" cx="468.220482" cy="315" r="5"></circle>
                <g id="beachball" transform="translate(333.530100, 395.530100) rotate(-195.000000) translate(-333.530100, -395.530100) translate(255.530100, 317.530100)">
                    <mask id="mask-3" fill="white">
                        <use xlink:href="#path-2"></use>
                    </mask>
                    <g id="Oval-5">
                        <use fill="#FFFFFF" fill-rule="evenodd" xlink:href="#path-2"></use>
                        <circle stroke="#112E47" stroke-width="2" cx="78" cy="78" r="79"></circle>
                    </g>
                    <path d="M109.649672,6.13883462 C123.162066,37.1202492 123.162066,66.3867495 109.649672,93.9383354 C96.1372781,121.489921 77.6864106,140.211323 54.2970697,150.102541 L109.649672,6.13883462 Z" id="Path-25-Copy-2" stroke="#112E47" stroke-width="2" stroke-linecap="round" mask="url(#mask-3)"></path>
                    <path d="M99.6021159,1.88330425 L40.1817172,144.26603 C29.9397861,121.356147 29.4372777,95.298467 38.674192,66.0929908 C47.9111063,36.8875146 68.2204142,15.4842857 99.6021159,1.88330425 Z" id="Path-25-Copy-3" stroke="#112E47" stroke-width="2" stroke-linecap="round" mask="url(#mask-3)"></path>
                    <path d="M0.762871924,71.492679 C16.830056,88.8403865 36.4521012,102.379386 59.6290077,112.109679 C82.8059142,121.839972 108.153464,128.495902 135.671658,132.07747" id="Path-25" stroke="#112E47" stroke-width="2" mask="url(#mask-3)"></path>
                    <path d="M157.695012,87.3777425 L20.9132929,25.3316834 C43.4336891,27.1105246 67.3304187,33.3052375 92.6034817,43.9158221 C117.876545,54.5264066 139.573721,69.0137134 157.695012,87.3777425 Z" id="Path-25-Copy" stroke="#112E47" stroke-width="2" mask="url(#mask-3)"></path>
                    <path d="M135.870039,131.967307 L-0.407832381,71.4994777" id="Path-5" stroke="#112E47" stroke-width="2" mask="url(#mask-3)"></path>
                </g>
                <g id="sign-here" transform="translate(537.764191, 468.881245) rotate(4.000000) translate(-537.764191, -468.881245) translate(489.764191, 411.881245)">
                    <g id="close" transform="translate(-0.000000, 0.000000)">
                        <g id="paper-02" transform="translate(47.721041, 56.845798) scale(-1, 1) rotate(4.000000) translate(-47.721041, -56.845798) ">
                            <use fill="#FFFFFF" fill-rule="evenodd" xlink:href="#path-4"></use>
                            <path stroke="#112E47" stroke-width="2" d="M4.65289815,41.707423 L4.65287027,41.7074068 C17.3623626,49.1038645 26.9505177,58.4721546 33.3996418,69.8069787 C39.7814118,81.0234231 42.6244316,94.3441464 41.939166,109.748754 L41.9391703,109.748768 L90.7893412,74.5312033 L90.7893523,74.5312186 C90.720384,57.5450094 87.2083485,43.2748532 80.2661114,31.704458 C73.3549872,20.1859176 63.4150016,10.9345274 50.4282611,3.94275282 L4.6528908,41.7074317 Z"></path>
                        </g>
                        <path d="M14,70 L45.862389,89.4645344" id="Path-20" stroke="#032E49" stroke-width="2" stroke-linecap="round"></path>
                        <g id="x" transform="translate(44.000000, 76.000000)" stroke="#112E47" stroke-width="2" stroke-linecap="round">
                            <path d="M0.5,3.5 L6.07066233,2" id="Path-21"></path>
                            <path d="M3.09811237,0 L3.09811237,5.5" id="Path-21-Copy"></path>
                        </g>
                        <path d="M17.8034775,64.8388411 L18.2756897,64.7492367 L18.2756897,64.7492367 C20.0726481,64.4082557 21.8096476,65.5759246 22.1722623,67.3686427 L22.1722623,67.3686427 L22.1722623,67.3686427 C22.5343818,69.1589122 24.2730177,70.3217314 26.065894,69.9727472 L31.5197254,68.9111565 L31.5197254,68.9111565 C32.5491107,68.7107862 33.5643287,69.3172968 33.8757554,70.3186937 L33.8757554,70.3186937 L33.8757554,70.3186937 C34.2384938,71.485084 34.422984,72.6995714 34.422984,73.9210646 L34.422984,74.5832006 L34.422984,74.5832006 C34.422984,75.2945993 34.9996866,75.8713019 35.7110853,75.8713019 C35.9798211,75.8713019 36.2418277,75.7872506 36.4604126,75.6309188 L38.4058481,74.2395448 L38.4058481,74.2395448 C39.3679267,73.5514669 39.5900481,72.2137508 38.9019702,71.2516723 C38.5884389,70.813289 38.1211478,70.5092355 37.5933332,70.400178" id="Path-23" stroke="#112E47" stroke-linecap="round" transform="translate(28.552644, 70.280697) scale(-1, 1) rotate(299.000000) translate(-28.552644, -70.280697) "></path>
                    </g>
                </g>
                <g id="money-copy-2" transform="translate(161.900795, 537.964392) rotate(-18.000000) translate(-161.900795, -537.964392) translate(130.900795, 504.964392)">
                    <g id="paper-02-copy" transform="translate(31.133910, 32.814691) rotate(-31.000000) translate(-31.133910, -32.814691) ">
                        <use fill="#FFFFFF" fill-rule="evenodd" xlink:href="#path-5"></use>
                        <path stroke="#112E47" stroke-width="2" d="M12.0365418,25.5120022 C12.039341,25.5144963 12.0453708,25.5239109 12.0619902,25.53364 C17.7026766,28.8871997 22.0576522,33.2127504 25.1076539,38.4962322 C28.090402,43.751919 29.6250144,49.927934 29.7089598,56.9484028 L50.2219437,41.7226852 C50.2202214,41.7240553 50.2329283,41.6941139 50.2306467,41.6376422 C49.8880332,33.1443731 48.0736625,26.0420536 44.8161498,20.3920523 C41.5951047,14.904814 37.1113219,10.6670405 31.359312,7.67506878 C31.3806556,7.68594892 31.4012092,7.6825117 31.3766034,7.70592938 L12.0507142,25.4993354 L12.0365418,25.5120022 Z"></path>
                    </g>
                    <path d="M33.3950007,30.7302719 C33.4428362,30.5707357 33.4648581,30.414567 33.4610669,30.2612668 C33.4572757,30.1079183 33.418711,29.9525624 33.3453718,29.7944862 C33.2720326,29.6354176 33.1619294,29.4730266 33.0150589,29.3064798 C32.8681884,29.137836 32.6762079,28.9570655 32.4391114,28.76286 C32.150859,28.5193772 31.8849054,28.2491081 31.6412425,27.9521152 C31.3975797,27.6494995 31.1982739,27.3239292 31.0433193,26.9766049 C30.8883647,26.6252716 30.7891021,26.2551981 30.7455284,25.8684452 C30.7019547,25.4804458 30.7384285,25.0831012 30.8549509,24.6800525 C30.9677937,24.293186 31.1359218,23.9857901 31.3593402,23.7586423 C31.5827586,23.5359422 31.8432299,23.3937847 32.1407618,23.330867 C32.4382938,23.2706659 32.7629197,23.286667 33.1146492,23.3763399 C33.4663788,23.465355 33.8275839,23.6222299 34.1982755,23.8438185 C34.5824468,24.0683375 34.9135182,24.3269881 35.1914998,24.6190918 C35.4694813,24.9050617 35.6865563,25.2072542 35.8427313,25.5270477 C35.9989063,25.8425333 36.0907323,26.1685377 36.1182121,26.5076551 C36.145692,26.8459102 36.0993315,27.1842965 35.9791295,27.5263633 L34.5940978,26.9329752 C34.647459,26.7487213 34.6731666,26.5693936 34.6712215,26.3943128 C34.6692763,26.2192022 34.6350045,26.0526528 34.5684051,25.8940178 C34.5018057,25.7344975 34.4019608,25.5849191 34.2688674,25.4448616 C34.135774,25.3033635 33.9664472,25.1770558 33.7608818,25.0658945 C33.5721661,24.9625292 33.3962358,24.8953023 33.2330857,24.8650626 C33.0699356,24.8346983 32.9227886,24.838406 32.7916404,24.8767165 C32.6604922,24.9156101 32.5482581,24.9866438 32.4549348,25.0900205 C32.3616115,25.1942485 32.2910331,25.3248192 32.2431976,25.4815563 C32.192909,25.6469899 32.1820684,25.8153666 32.2106757,25.9859011 C32.2392829,26.1560567 32.3030472,26.3286387 32.4019706,26.502948 C32.500894,26.6759393 32.6303771,26.8520946 32.7904237,27.0307494 C32.9504703,27.2071928 33.1367859,27.3866441 33.3493761,27.5684452 C33.6507984,27.8300506 33.9172848,28.099227 34.1488432,28.3766964 C34.3804016,28.6486636 34.5628549,28.9301713 34.6962085,29.2227504 C34.8295621,29.5118576 34.9076082,29.8133409 34.9303491,30.1293347 C34.95309,30.4446905 34.9092662,30.7755214 34.7988766,31.1247553 C34.6811276,31.5008569 34.5116956,31.8222959 34.2905754,32.0895907 C34.0694552,32.3612644 33.8127379,32.5786218 33.5204157,32.7403051 C33.2280935,32.9045486 32.9072989,33.0075954 32.5580225,33.0468668 C32.2087461,33.0852561 31.8470825,33.0563677 31.473021,32.9571514 C31.2404963,32.8929826 31.0164834,32.7985698 30.8009755,32.6733634 C30.5854677,32.5455158 30.3883517,32.386855 30.2096219,32.1972178 C30.030892,32.0047279 29.8744592,31.7838572 29.7403189,31.5348064 C29.6061785,31.2831796 29.5044443,31.0077398 29.435113,30.7092808 C29.3657817,30.409315 29.3336811,30.0870073 29.3388102,29.7435713 C29.3439394,29.4002599 29.3955653,29.0419303 29.4936894,28.6704059 L30.8888308,29.2956461 C30.8146182,29.5916818 30.7840726,29.8597512 30.797193,30.0984703 C30.8103135,30.3369546 30.8616607,30.5474734 30.9512363,30.7292489 C31.0408119,30.9097443 31.1654724,31.0620665 31.3252217,31.1858816 C31.484971,31.3079649 31.6709954,31.4032527 31.8833006,31.4718511 C32.0720163,31.5314893 32.2476399,31.5553264 32.4101768,31.5441943 C32.5727136,31.5329115 32.7186341,31.4934779 32.8479425,31.4263888 C32.9772508,31.3598111 33.0887942,31.2668709 33.1825759,31.147796 C33.2763577,31.0295401 33.3471652,30.8904189 33.3950007,30.7302719 Z" id="S" stroke="#112E47" fill="#112E47"></path>
                    <g id="moneysuff" transform="translate(29.000000, 21.000000)" stroke="#112E47" stroke-width="2">
                        <path d="M5,2.46050087 L5.78170823,0.274779661" id="Path-19"></path>
                        <path d="M1,13.4605009 L1.78170823,11.2747797" id="Path-19-Copy"></path>
                    </g>
                </g>
                <g id="money-copy-3" transform="translate(185.680313, 248.964392) rotate(-18.000000) translate(-185.680313, -248.964392) translate(154.680313, 215.964392)">
                    <g id="paper-02-copy" transform="translate(31.133910, 32.814691) rotate(-31.000000) translate(-31.133910, -32.814691) ">
                        <use fill="#FFFFFF" fill-rule="evenodd" xlink:href="#path-6"></use>
                        <path stroke="#112E47" stroke-width="2" d="M12.0365418,25.5120022 C12.039341,25.5144963 12.0453708,25.5239109 12.0619902,25.53364 C17.7026766,28.8871997 22.0576522,33.2127504 25.1076539,38.4962322 C28.090402,43.751919 29.6250144,49.927934 29.7089598,56.9484028 L50.2219437,41.7226852 C50.2202214,41.7240553 50.2329283,41.6941139 50.2306467,41.6376422 C49.8880332,33.1443731 48.0736625,26.0420536 44.8161498,20.3920523 C41.5951047,14.904814 37.1113219,10.6670405 31.359312,7.67506878 C31.3806556,7.68594892 31.4012092,7.6825117 31.3766034,7.70592938 L12.0507142,25.4993354 L12.0365418,25.5120022 Z"></path>
                    </g>
                    <path d="M33.3950007,30.7302719 C33.4428362,30.5707357 33.4648581,30.414567 33.4610669,30.2612668 C33.4572757,30.1079183 33.418711,29.9525624 33.3453718,29.7944862 C33.2720326,29.6354176 33.1619294,29.4730266 33.0150589,29.3064798 C32.8681884,29.137836 32.6762079,28.9570655 32.4391114,28.76286 C32.150859,28.5193772 31.8849054,28.2491081 31.6412425,27.9521152 C31.3975797,27.6494995 31.1982739,27.3239292 31.0433193,26.9766049 C30.8883647,26.6252716 30.7891021,26.2551981 30.7455284,25.8684452 C30.7019547,25.4804458 30.7384285,25.0831012 30.8549509,24.6800525 C30.9677937,24.293186 31.1359218,23.9857901 31.3593402,23.7586423 C31.5827586,23.5359422 31.8432299,23.3937847 32.1407618,23.330867 C32.4382938,23.2706659 32.7629197,23.286667 33.1146492,23.3763399 C33.4663788,23.465355 33.8275839,23.6222299 34.1982755,23.8438185 C34.5824468,24.0683375 34.9135182,24.3269881 35.1914998,24.6190918 C35.4694813,24.9050617 35.6865563,25.2072542 35.8427313,25.5270477 C35.9989063,25.8425333 36.0907323,26.1685377 36.1182121,26.5076551 C36.145692,26.8459102 36.0993315,27.1842965 35.9791295,27.5263633 L34.5940978,26.9329752 C34.647459,26.7487213 34.6731666,26.5693936 34.6712215,26.3943128 C34.6692763,26.2192022 34.6350045,26.0526528 34.5684051,25.8940178 C34.5018057,25.7344975 34.4019608,25.5849191 34.2688674,25.4448616 C34.135774,25.3033635 33.9664472,25.1770558 33.7608818,25.0658945 C33.5721661,24.9625292 33.3962358,24.8953023 33.2330857,24.8650626 C33.0699356,24.8346983 32.9227886,24.838406 32.7916404,24.8767165 C32.6604922,24.9156101 32.5482581,24.9866438 32.4549348,25.0900205 C32.3616115,25.1942485 32.2910331,25.3248192 32.2431976,25.4815563 C32.192909,25.6469899 32.1820684,25.8153666 32.2106757,25.9859011 C32.2392829,26.1560567 32.3030472,26.3286387 32.4019706,26.502948 C32.500894,26.6759393 32.6303771,26.8520946 32.7904237,27.0307494 C32.9504703,27.2071928 33.1367859,27.3866441 33.3493761,27.5684452 C33.6507984,27.8300506 33.9172848,28.099227 34.1488432,28.3766964 C34.3804016,28.6486636 34.5628549,28.9301713 34.6962085,29.2227504 C34.8295621,29.5118576 34.9076082,29.8133409 34.9303491,30.1293347 C34.95309,30.4446905 34.9092662,30.7755214 34.7988766,31.1247553 C34.6811276,31.5008569 34.5116956,31.8222959 34.2905754,32.0895907 C34.0694552,32.3612644 33.8127379,32.5786218 33.5204157,32.7403051 C33.2280935,32.9045486 32.9072989,33.0075954 32.5580225,33.0468668 C32.2087461,33.0852561 31.8470825,33.0563677 31.473021,32.9571514 C31.2404963,32.8929826 31.0164834,32.7985698 30.8009755,32.6733634 C30.5854677,32.5455158 30.3883517,32.386855 30.2096219,32.1972178 C30.030892,32.0047279 29.8744592,31.7838572 29.7403189,31.5348064 C29.6061785,31.2831796 29.5044443,31.0077398 29.435113,30.7092808 C29.3657817,30.409315 29.3336811,30.0870073 29.3388102,29.7435713 C29.3439394,29.4002599 29.3955653,29.0419303 29.4936894,28.6704059 L30.8888308,29.2956461 C30.8146182,29.5916818 30.7840726,29.8597512 30.797193,30.0984703 C30.8103135,30.3369546 30.8616607,30.5474734 30.9512363,30.7292489 C31.0408119,30.9097443 31.1654724,31.0620665 31.3252217,31.1858816 C31.484971,31.3079649 31.6709954,31.4032527 31.8833006,31.4718511 C32.0720163,31.5314893 32.2476399,31.5553264 32.4101768,31.5441943 C32.5727136,31.5329115 32.7186341,31.4934779 32.8479425,31.4263888 C32.9772508,31.3598111 33.0887942,31.2668709 33.1825759,31.147796 C33.2763577,31.0295401 33.3471652,30.8904189 33.3950007,30.7302719 Z" id="S" stroke="#112E47" fill="#112E47"></path>
                    <g id="moneysuff" transform="translate(29.000000, 21.000000)" stroke="#112E47" stroke-width="2">
                        <path d="M5,2.46050087 L5.78170823,0.274779661" id="Path-19"></path>
                        <path d="M1,13.4605009 L1.78170823,11.2747797" id="Path-19-Copy"></path>
                    </g>
                </g>
                <g id="moneyeuro-copy" transform="translate(287.398393, 583.276621) rotate(317.000000) translate(-287.398393, -583.276621) translate(256.398393, 550.276621)">
                    <g id="paper-02-copy" transform="translate(31.133910, 32.814691) rotate(-31.000000) translate(-31.133910, -32.814691) ">
                        <use fill="#FFFFFF" fill-rule="evenodd" xlink:href="#path-7"></use>
                        <path stroke="#112E47" stroke-width="2" d="M12.0365418,25.5120022 C12.039341,25.5144963 12.0453708,25.5239109 12.0619902,25.53364 C17.7026766,28.8871997 22.0576522,33.2127504 25.1076539,38.4962322 C28.090402,43.751919 29.6250144,49.927934 29.7089598,56.9484028 L50.2219437,41.7226852 C50.2202214,41.7240553 50.2329283,41.6941139 50.2306467,41.6376422 C49.8880332,33.1443731 48.0736625,26.0420536 44.8161498,20.3920523 C41.5951047,14.904814 37.1113219,10.6670405 31.359312,7.67506878 C31.3806556,7.68594892 31.4012092,7.6825117 31.3766034,7.70592938 L12.0507142,25.4993354 L12.0365418,25.5120022 Z"></path>
                    </g>
                    <path d="M35.4001571,29.918465 L32.8789422,29.918465 C32.8936432,30.3447951 32.9585718,30.7061901 33.0737299,31.0026609 C33.188888,31.2991318 33.3456967,31.5380201 33.5441607,31.7193328 C33.7426247,31.9006456 33.9790628,32.0317278 34.2534821,32.1125835 C34.5279014,32.1934392 34.8341684,32.2338665 35.1722922,32.2338665 C35.4320105,32.2338665 35.6831494,32.2154904 35.9257164,32.1787379 C36.1682835,32.1419853 36.3998214,32.0819569 36.6203369,31.9986511 L36.8555523,33.6672102 C36.5664319,33.735815 36.2650652,33.789718 35.9514431,33.8289208 C35.6378211,33.8681235 35.3193034,33.8877246 34.9958806,33.8877246 C34.3980385,33.8877246 33.8479831,33.80442 33.3456977,33.6378083 C32.8434123,33.4711966 32.4072882,33.2225078 32.0373121,32.8917345 C31.6673361,32.5609612 31.3757699,32.1468883 31.1626049,31.6495032 C30.9494399,31.1521182 30.8330585,30.5751113 30.8134571,29.918465 L29.5565249,29.918465 L29.5565249,28.8305939 L30.8134571,28.8305939 L30.8134571,27.9044333 L29.5565249,27.9044333 L29.5565249,26.8239126 L30.8281581,26.8239126 C30.8673608,26.1770671 30.9996681,25.6086356 31.225084,25.1186011 C31.4504999,24.6285666 31.7506415,24.2181689 32.1255179,23.8873956 C32.5003943,23.5566223 32.9414187,23.3079335 33.4486044,23.1413218 C33.9557901,22.9747101 34.5107459,22.8914055 35.1134883,22.8914055 C35.4124094,22.8914055 35.7052006,22.9122316 35.9918708,22.9538845 C36.278541,22.9955375 36.5664319,23.0506655 36.8555523,23.1192704 L36.6203369,24.79518 C36.409622,24.7265751 36.1817594,24.670222 35.9367422,24.6261189 C35.6917249,24.5820158 35.4467113,24.5599646 35.2016941,24.5599646 C34.5254465,24.5599646 33.9864166,24.7388245 33.5845883,25.0965497 C33.18276,25.4542749 32.9524473,26.0300568 32.8936431,26.8239126 L35.4001571,26.8239126 L35.4001571,27.9044333 L32.8789422,27.9044333 L32.8789422,28.8305939 L35.4001571,28.8305939 L35.4001571,29.918465 Z" id="€" fill="#112E47" transform="translate(33.206039, 28.389565) rotate(24.000000) translate(-33.206039, -28.389565) "></path>
                </g>
                <circle id="Oval-6-Copy" stroke="#112E47" stroke-width="2" fill="#A6F9FC" cx="141.220482" cy="410" r="5"></circle>
                <circle id="Oval-6-Copy-2" stroke="#112E47" stroke-width="2" fill="#516CFF" cx="407.220482" cy="579" r="5"></circle>
            </g>
            <g id="pencil" transform="translate(419.000000, 317.000000)" stroke="#112E47">
                <path d="M17.0081051,-0.983107569 L21.9425345,-0.978769287 L21.9425337,-0.977889714 C22.4944749,-0.977404455 22.9416545,-0.529831538 22.9416545,0.0221098992 L22.9425341,39.0221099 L22.9434129,39.0221099 C22.9434129,39.5743946 22.4956977,40.0221099 21.9434129,40.0221099 C21.9431198,40.0221099 21.9428268,40.0221098 21.9425337,40.0221095 L17.0081051,40.0168924 L17.0081058,40.0160129 C16.4561646,40.0155276 16.008985,39.5679547 16.008985,39.0160132 L16.0081055,0.0160132448 L16.0072267,0.0160132448 C16.0072267,-0.536271505 16.4549419,-0.983986755 17.0072267,-0.983986755 C17.0075197,-0.983986755 17.0078128,-0.983986626 17.0081058,-0.983986369 Z" id="Rectangle-11" stroke-width="2" fill="#FFFFFF" transform="translate(19.475320, 19.519062) rotate(-44.000000) translate(-19.475320, -19.519062) "></path>
                <path d="M36.0007029,34.1497333 L38.7102309,38.4663307 L32.0523597,37.7724798 L34.3047029,34.1530327 L34.3047029,34.1530327 C34.5964986,33.6841258 35.21317,33.5405489 35.6820769,33.8323446 C35.8110064,33.9125761 35.9199704,34.0211169 36.0007029,34.1497333 Z" id="Triangle" fill="#112E47" transform="translate(35.381295, 36.073785) rotate(-225.000000) translate(-35.381295, -36.073785) "></path>
                <path d="M3.05207526,7.03846651 C0.523496842,5.21303144 0.241519068,3.31800247 2.20614194,1.3533796 C4.17076481,-0.611243269 6.05311414,-0.202541196 7.85318994,2.57948582" id="Path-2" stroke-width="2"></path>
            </g>
        </g>
    </g>
</svg>