<?xml version="1.0" encoding="UTF-8"?>
<svg width="204px" height="195px" viewBox="0 0 204 195" version="1.1" xmlns="http://www.w3.org/2000/svg" xmlns:xlink="http://www.w3.org/1999/xlink">
    <!-- Generator: Sketch 47.1 (45422) - http://www.bohemiancoding.com/sketch -->
    <title>hero-synergy-ball@2x</title>
    <desc>Created with Sketch.</desc>
    <defs></defs>
    <g id="illustrations" stroke="none" stroke-width="1" fill="none" fill-rule="evenodd">
        <g id="hero-synergy-ball">
            <g id="nebulus" transform="translate(-7.000000, -10.000000)">
                <circle id="globe" fill="#ACFAFF" transform="translate(113.500000, 103.500000) rotate(-195.000000) translate(-113.500000, -103.500000) " cx="113.5" cy="103.5" r="70.5"></circle>
                <path d="M185.671011,72.1743994 C197.762082,46.009131 192.528822,31.3582617 169.971231,28.2217914 C154.620069,26.087323 110.833108,39.3695929 77.9438737,67.6130785 C53.1128294,88.9366289 34.1920586,120.770209 31.5787082,141.568609 C28.2169516,168.323212 39.5017053,179.019357 65.4329692,173.657044" id="orbit-04" stroke="#FFFFFF" stroke-width="3" stroke-linejoin="round" transform="translate(111.500000, 101.500000) rotate(-13.000000) translate(-111.500000, -101.500000) "></path>
                <path d="M185.671011,79.1743994 C197.762082,53.009131 192.528822,38.3582617 169.971231,35.2217914 C154.620069,33.087323 110.833108,46.3695929 77.9438737,74.6130785 C53.1128294,95.9366289 34.1920586,127.770209 31.5787082,148.568609 C28.2169516,175.323212 39.5017053,186.019357 65.4329692,180.657044" id="orbit-03" stroke="#FFFFFF" stroke-width="3" stroke-linejoin="round" transform="translate(111.500000, 108.500000) rotate(-123.000000) translate(-111.500000, -108.500000) "></path>
                <path d="M185.671011,75.1743994 C197.762082,49.009131 192.528822,34.3582617 169.971231,31.2217914 C154.620069,29.087323 110.833108,42.3695929 77.9438737,70.6130785 C53.1128294,91.9366289 34.1920586,123.770209 31.5787082,144.568609 C28.2169516,171.323212 39.5017053,182.019357 65.4329692,176.657044" id="orbit-02" stroke="#FFFFFF" stroke-width="3" stroke-linejoin="round" transform="translate(111.500000, 104.500000) rotate(-339.000000) translate(-111.500000, -104.500000) "></path>
                <path d="M184.671011,76.1743994 C196.762082,50.009131 191.528822,35.3582617 168.971231,32.2217914 C153.620069,30.087323 109.833108,43.3695929 76.9438737,71.6130785 C52.1128294,92.9366289 33.1920586,124.770209 30.5787082,145.568609 C27.2169516,172.323212 38.5017053,183.019357 64.4329692,177.657044" id="orbit" stroke="#FFFFFF" stroke-width="3" stroke-linejoin="round" transform="translate(110.500000, 105.500000) rotate(108.000000) translate(-110.500000, -105.500000) "></path>
                <g id="dark-orbits" transform="translate(0.000000, 1.000000)" stroke="#112E47" stroke-width="3" stroke-linejoin="round">
                    <path d="M180.770576,73.169858 C192.882268,46.9624369 187.640083,32.2879648 165.044019,29.1464416 C149.666674,27.0085346 105.805033,40.3122024 72.8597052,68.6011887 C47.9863105,89.9590917 29.0332696,121.843957 26.415462,142.675863 C23.0479718,169.473568 35.3278455,178.845415 63.2550831,170.791402" id="Path-26-Copy-7" transform="translate(106.491140, 101.253771) rotate(-15.000000) translate(-106.491140, -101.253771) "></path>
                    <path d="M181.633908,76.2514446 C193.745601,50.0440235 188.503415,35.3695513 165.907351,32.2280281 C150.530007,30.0901211 106.668366,43.393789 73.7230377,71.6827753 C48.849643,93.0406783 32.855808,125.412608 27.2787945,145.757449 C20.294544,171.235864 30.0430539,184.092296 56.5243242,184.326743" id="Path-26-Copy-6" transform="translate(106.533034, 108.166311) rotate(-119.000000) translate(-106.533034, -108.166311) "></path>
                    <path d="M191.310809,66.6090772 C195.368819,49.7036456 187.384401,39.4797759 167.357556,35.9374681 C152.089974,33.2369691 108.11857,47.1032289 75.1732423,75.3922152 C50.2998476,96.7501182 31.3468067,128.634983 28.7289991,149.466889 C25.361509,176.264595 39.0574922,182.691671 69.8169489,168.748118" id="Path-26-Copy-5" transform="translate(110.283482, 105.756232) rotate(-342.000000) translate(-110.283482, -105.756232) "></path>
                    <path d="M179.102624,76.3191164 C194.918584,51.9205066 191.528532,38.15044 168.932468,35.0089168 C153.555124,32.8710098 109.693483,46.1746777 76.7481544,74.463664 C51.8747597,95.821567 32.9217188,127.706432 30.3039112,148.538338 C26.9364211,175.336044 36.3882878,185.145015 58.6595114,177.965251" id="Path-26-Copy-4" transform="translate(109.255650, 107.513874) rotate(110.000000) translate(-109.255650, -107.513874) "></path>
                </g>
            </g>
        </g>
    </g>
</svg>