<?xml version="1.0" encoding="UTF-8"?>
<svg width="641px" height="683px" viewBox="0 0 641 683" version="1.1" xmlns="http://www.w3.org/2000/svg" xmlns:xlink="http://www.w3.org/1999/xlink">
    <!-- Generator: Sketch 47.1 (45422) - http://www.bohemiancoding.com/sketch -->
    <title>hero-illustration</title>
    <desc>Created with Sketch.</desc>
    <defs>
        <path d="M3.86408636,39.1009574 L47.6615591,3.05072643 L47.6615523,3.05071821 C47.9749028,2.79279563 48.413063,2.74983734 48.77054,2.94199036 C61.3528052,9.70527967 70.998869,18.6656809 77.7087312,29.823194 C84.4529721,41.0378737 87.8600507,54.8421845 87.9299671,71.2361264 L87.9299989,71.2361262 C87.9313777,71.5594253 87.776375,71.8634456 87.5139148,72.0522281 L40.7864441,105.662387 L40.7864705,105.662424 C40.3380993,105.984928 39.7131809,105.882893 39.3906762,105.434522 C39.2595849,105.252269 39.1936315,105.031206 39.2034323,104.806918 C39.8379024,90.2871639 37.1501978,77.7579632 31.1403184,67.2193163 C25.0556281,56.549484 16.0078118,47.7222028 3.9968696,40.7374727 L3.99688874,40.7374398 C3.51948083,40.4598125 3.35752665,39.8477356 3.63515394,39.3703277 C3.6948617,39.2676542 3.77238367,39.176439 3.86408636,39.1009574 Z" id="path-1"></path>
        <path d="M10.8230529,23.6380412 L29.2138183,6.65342632 C29.5054973,6.3682913 29.9256525,6.29760001 30.2741088,6.47577739 C35.9157104,9.41932493 40.3137722,13.5914454 43.4682945,18.9819187 C46.6586268,24.5323913 48.419519,31.4646466 48.7509711,39.7065475 C48.7650173,40.0552744 48.6282886,40.3784939 48.3842789,40.5732056 L27.3054972,56.2677662 C27.5008498,48.937835 26.0874004,42.5592509 23.065149,37.2175474 C20.2523283,32.3299657 16.2279581,28.3160158 10.9920383,25.1935092 C10.5325721,24.9244888 10.3675103,24.3386253 10.6233663,23.88348 C10.6754663,23.7906998 10.7429756,23.7077237 10.8230529,23.6380412 Z" id="path-2"></path>
        <path d="M10.8230529,23.6380412 L29.2138183,6.65342632 C29.5054973,6.3682913 29.9256525,6.29760001 30.2741088,6.47577739 C35.9157104,9.41932493 40.3137722,13.5914454 43.4682945,18.9819187 C46.6586268,24.5323913 48.419519,31.4646466 48.7509711,39.7065475 C48.7650173,40.0552744 48.6282886,40.3784939 48.3842789,40.5732056 L27.3054972,56.2677662 C27.5008498,48.937835 26.0874004,42.5592509 23.065149,37.2175474 C20.2523283,32.3299657 16.2279581,28.3160158 10.9920383,25.1935092 C10.5325721,24.9244888 10.3675103,24.3386253 10.6233663,23.88348 C10.6754663,23.7906998 10.7429756,23.7077237 10.8230529,23.6380412 Z" id="path-3"></path>
        <path d="M10.8230529,23.6380412 L29.2138183,6.65342632 C29.5054973,6.3682913 29.9256525,6.29760001 30.2741088,6.47577739 C35.9157104,9.41932493 40.3137722,13.5914454 43.4682945,18.9819187 C46.6586268,24.5323913 48.419519,31.4646466 48.7509711,39.7065475 C48.7650173,40.0552744 48.6282886,40.3784939 48.3842789,40.5732056 L27.3054972,56.2677662 C27.5008498,48.937835 26.0874004,42.5592509 23.065149,37.2175474 C20.2523283,32.3299657 16.2279581,28.3160158 10.9920383,25.1935092 C10.5325721,24.9244888 10.3675103,24.3386253 10.6233663,23.88348 C10.6754663,23.7906998 10.7429756,23.7077237 10.8230529,23.6380412 Z" id="path-4"></path>
        <path d="M10.8230529,23.6380412 L29.2138183,6.65342632 C29.5054973,6.3682913 29.9256525,6.29760001 30.2741088,6.47577739 C35.9157104,9.41932493 40.3137722,13.5914454 43.4682945,18.9819187 C46.6586268,24.5323913 48.419519,31.4646466 48.7509711,39.7065475 C48.7650173,40.0552744 48.6282886,40.3784939 48.3842789,40.5732056 L27.3054972,56.2677662 C27.5008498,48.937835 26.0874004,42.5592509 23.065149,37.2175474 C20.2523283,32.3299657 16.2279581,28.3160158 10.9920383,25.1935092 C10.5325721,24.9244888 10.3675103,24.3386253 10.6233663,23.88348 C10.6754663,23.7906998 10.7429756,23.7077237 10.8230529,23.6380412 Z" id="path-5"></path>
    </defs>
    <g id="assets" stroke="none" stroke-width="1" fill="none" fill-rule="evenodd">
        <g id="hero-illustration">
            <g id="container" transform="translate(-4.000000, -8.000000)">
                <path d="M648.453379,583.164718 C506.904308,693.84454 420.93256,716.595233 390.538133,651.416794 C344.946492,553.649136 539.295763,446.819128 464.916948,412.238709 C390.538133,377.65829 313.020271,497.923233 226.077722,529.709427 C139.135173,561.495622 -76.694439,554.39422 43.6206102,423.627063 C163.93566,292.859906 262.985148,175.418993 131.234734,214.739884 C-0.515679019,254.060776 -91.8351669,30.476343 198.851284,62.2616017 C392.642252,83.4517742 483.436905,64.6034161 471.235246,5.71652728" id="Path-34" stroke="#112E47" stroke-width="2" transform="translate(327.479403, 346.684500) rotate(1.000000) translate(-327.479403, -346.684500) "></path>
                <g id="paper-signed" transform="translate(161.689674, 196.576039) rotate(4.000000) translate(-161.689674, -196.576039) translate(115.689674, 142.076039)">
                    <g id="paper" transform="translate(45.714730, 54.336746) scale(-1, 1) rotate(4.000000) translate(-45.714730, -54.336746) ">
                        <use fill="#FFFFFF" fill-rule="evenodd" xlink:href="#path-1"></use>
                        <path stroke="#112E47" stroke-width="2" d="M4.49960161,39.8730457 L4.49961033,39.8730355 L4.49957742,39.8730163 C16.6582913,46.9436802 25.8339823,55.8957192 32.0089946,66.7239359 C38.1171143,77.4348527 40.8448261,90.1505537 40.2024789,104.850574 L40.2024874,104.850602 L40.2025241,104.850576 L86.9299948,71.2404169 L86.9299762,71.2403911 C86.8607883,55.0172672 83.4971089,41.3887951 76.851759,30.3385566 C70.2369226,19.3390575 60.724663,10.5029494 48.2970794,3.82280536 L4.49960161,39.8730457 Z"></path>
                    </g>
                    <path d="M13.4166667,66.9298246 L43.9514561,85.5406514" id="underline" stroke="#032E49" stroke-width="2" stroke-linecap="round"></path>
                    <g id="x" transform="translate(42.166667, 72.666667)" stroke="#112E47" stroke-width="2" stroke-linecap="round">
                        <path d="M0.479166667,3.34649123 L5.81771807,1.9122807" id="x-line-02"></path>
                        <path d="M2.96902436,0 L2.96902436,5.25877193" id="x-line"></path>
                    </g>
                    <path d="M17.0612581,61.9945634 L17.520379,61.9076425 L17.520379,61.9076425 C19.2392438,61.5822264 20.9004177,62.698891 21.2480102,64.4134088 L21.2480102,64.4134088 L21.2480102,64.4134088 C21.5951294,66.1255922 23.257867,67.2376299 24.9728414,66.9045733 L30.2094678,65.8875941 L30.2094678,65.8875941 C31.1942589,65.6963427 32.1653245,66.2763302 32.4638578,67.2340716 L32.4638578,67.2340716 L32.4638578,67.2340716 C32.8114733,68.3492767 32.9882851,69.5106742 32.9882851,70.6788005 L32.9882851,71.3115387 L32.9882851,71.3115387 C32.9882851,71.9926421 33.5404285,72.5447855 34.221532,72.5447855 C34.4783672,72.5447855 34.7287944,72.4645985 34.9378614,72.3154161 L36.8051966,70.9829555 L36.8051966,70.9829555 C37.7252591,70.3264332 37.9389007,69.0483587 37.2823785,68.1282962 C36.982595,67.708174 36.5351468,67.416831 36.0296627,67.3126265" id="signature" stroke="#112E47" stroke-linecap="round" transform="translate(27.362216, 67.198038) scale(-1, 1) rotate(299.000000) translate(-27.362216, -67.198038) "></path>
                </g>
                <g id="money-dollar-02" transform="translate(131.500000, 443.500000) rotate(-18.000000) translate(-131.500000, -443.500000) translate(102.000000, 412.000000)">
                    <g id="paper-02-copy" transform="translate(29.627431, 31.323114) rotate(-31.000000) translate(-29.627431, -31.323114) ">
                        <use fill="#FFFFFF" fill-rule="evenodd" xlink:href="#path-2"></use>
                        <path stroke="#112E47" stroke-width="2" d="M11.4811647,24.3909208 L11.4795005,24.3924128 C11.4800636,24.3919228 11.4806185,24.3914253 11.4811647,24.3909208 Z M11.5276003,24.3485857 C16.8909314,27.5518805 21.0331449,31.6819041 23.9355004,36.7251163 C26.7646492,41.725519 28.2263534,47.5966975 28.3186209,54.2667338 L47.7582306,39.7932916 C47.7478185,39.8003422 47.7533097,39.7847409 47.7517787,39.7467305 C47.4260055,31.6460396 45.701137,24.8732671 42.6052188,19.4869933 C39.5560046,14.2764713 35.3164009,10.2483457 29.8808874,7.39858369 L11.5276003,24.3485857 Z"></path>
                    </g>
                    <path d="M31.7791136,29.3334413 C31.8246345,29.1811568 31.8455908,29.0320867 31.841983,28.8857547 C31.8383752,28.7393766 31.8016766,28.5910823 31.7318861,28.4401914 C31.6620955,28.2883532 31.5573199,28.1333436 31.417556,27.9743671 C31.2777922,27.8133889 31.095101,27.6408352 30.869477,27.4554573 C30.5951723,27.2230418 30.3420874,26.9650577 30.1102147,26.6815645 C29.878342,26.3927041 29.68868,26.0819324 29.5412232,25.7503956 C29.3937664,25.415032 29.2993068,25.06178 29.2578415,24.6926068 C29.2163762,24.3222438 29.2510852,23.9429602 29.3619694,23.5582319 C29.4693521,23.1889503 29.6293449,22.8955269 29.8419528,22.678704 C30.0545606,22.4661266 30.3024284,22.3304308 30.5855637,22.2703731 C30.8686989,22.2129084 31.1776171,22.2281821 31.5123275,22.313779 C31.8470378,22.398748 32.1907653,22.5484922 32.5435202,22.7600086 C32.9091026,22.9743222 33.2241544,23.2212159 33.4886853,23.5000422 C33.7532161,23.7730135 33.9597875,24.0614699 34.1084056,24.3667274 C34.2570237,24.6678727 34.3444065,24.9790587 34.3705567,25.3027616 C34.3967069,25.6256415 34.3525897,25.9486466 34.2382038,26.2751649 L32.9201899,25.7087491 C32.9709691,25.5328704 32.9954328,25.3616939 32.9935817,25.1945713 C32.9917306,25.0274203 32.9591172,24.8684413 32.8957403,24.717017 C32.8323635,24.5647476 32.7373498,24.4219682 32.6106964,24.288277 C32.484043,24.1532106 32.3229094,24.0326441 32.1272908,23.9265357 C31.9477065,23.8278688 31.7802889,23.7636976 31.6250332,23.7348325 C31.4697774,23.7058484 31.3297505,23.7093875 31.2049481,23.7459567 C31.0801458,23.7830824 30.9733424,23.8508872 30.8845347,23.949565 C30.7957271,24.0490554 30.7285638,24.1736911 30.6830429,24.3233038 C30.6351876,24.4812176 30.6248716,24.6419409 30.6520946,24.8047238 C30.6793176,24.967145 30.7399966,25.1318824 30.8341333,25.2982685 C30.9282701,25.4633966 31.0514879,25.6315448 31.2037903,25.8020789 C31.3560927,25.9705022 31.533393,26.1417967 31.7356966,26.3153341 C32.022534,26.5650483 32.2761258,26.8219894 32.4964798,27.0868465 C32.7168338,27.3464517 32.8904587,27.6151635 33.0173597,27.8944436 C33.1442607,28.1704095 33.2185304,28.458189 33.2401709,28.7598195 C33.2618114,29.0608409 33.2201082,29.376634 33.11506,29.7099937 C33.0030085,30.0689997 32.8417748,30.3758279 32.631354,30.6309729 C32.4209332,30.8902979 32.1766377,31.0977753 31.8984601,31.2521094 C31.6202825,31.4088873 31.3150103,31.5072501 30.9826343,31.5447365 C30.6502584,31.5813809 30.3060947,31.5538056 29.9501329,31.4590991 C29.7288594,31.397847 29.5156858,31.3077257 29.3106057,31.1882105 C29.1055257,31.0661742 28.9179476,30.9147253 28.747866,30.7337079 C28.5777843,30.5499676 28.4289209,30.3391364 28.3012712,30.1014061 C28.1736215,29.8612169 28.0768099,29.5982971 28.0108333,29.3134044 C27.9448568,29.0270734 27.9143094,28.719416 27.9191904,28.3915908 C27.9240714,28.0638845 27.9731992,27.7218426 28.0665754,27.3672056 L29.3942099,27.9640258 C29.3235883,28.2466053 29.2945207,28.5024898 29.3070063,28.730358 C29.3194919,28.9580021 29.3683546,29.1589519 29.4535959,29.3324649 C29.5388371,29.5047559 29.6574657,29.6501544 29.8094852,29.7683415 C29.9615046,29.8848756 30.1385279,29.9758321 30.3405602,30.0413124 C30.5201445,30.0982398 30.6872703,30.1209934 30.8419424,30.1103673 C30.9966146,30.0995974 31.1354743,30.0619561 31.2585259,29.9979165 C31.3815774,29.9343652 31.4877235,29.8456495 31.5769674,29.7319871 C31.6662113,29.6191065 31.7335927,29.486309 31.7791136,29.3334413 Z" id="S" stroke="#112E47" fill="#112E47"></path>
                    <g id="moneysuff" transform="translate(27.596774, 20.045455)" stroke="#112E47" stroke-width="2">
                        <path d="M4.75806452,2.34865992 L5.50194815,0.262289676" id="Path-19"></path>
                        <path d="M0.951612903,12.8486599 L1.69549654,10.7622897" id="Path-19-Copy"></path>
                    </g>
                </g>
                <g id="money-dollar" transform="translate(446.500000, 420.500000) rotate(-18.000000) translate(-446.500000, -420.500000) translate(417.000000, 389.000000)">
                    <g id="paper-02-copy" transform="translate(29.627431, 31.323114) rotate(-31.000000) translate(-29.627431, -31.323114) ">
                        <use fill="#FFFFFF" fill-rule="evenodd" xlink:href="#path-3"></use>
                        <path stroke="#112E47" stroke-width="2" d="M11.5276003,24.3485857 C16.8909314,27.5518805 21.0331449,31.6819041 23.9355004,36.7251163 C26.7646492,41.725519 28.2263534,47.5966975 28.3186209,54.2667338 L47.7582306,39.7932916 C47.7478185,39.8003422 47.7533097,39.7847409 47.7517787,39.7467305 C47.4260055,31.6460396 45.701137,24.8732671 42.6052188,19.4869933 C39.5560046,14.2764713 35.3164009,10.2483457 29.8808874,7.39858369 L11.5276003,24.3485857 Z"></path>
                    </g>
                    <path d="M31.7791136,29.3334413 C31.8246345,29.1811568 31.8455908,29.0320867 31.841983,28.8857547 C31.8383752,28.7393766 31.8016766,28.5910823 31.7318861,28.4401914 C31.6620955,28.2883532 31.5573199,28.1333436 31.417556,27.9743671 C31.2777922,27.8133889 31.095101,27.6408352 30.869477,27.4554573 C30.5951723,27.2230418 30.3420874,26.9650577 30.1102147,26.6815645 C29.878342,26.3927041 29.68868,26.0819324 29.5412232,25.7503956 C29.3937664,25.415032 29.2993068,25.06178 29.2578415,24.6926068 C29.2163762,24.3222438 29.2510852,23.9429602 29.3619694,23.5582319 C29.4693521,23.1889503 29.6293449,22.8955269 29.8419528,22.678704 C30.0545606,22.4661266 30.3024284,22.3304308 30.5855637,22.2703731 C30.8686989,22.2129084 31.1776171,22.2281821 31.5123275,22.313779 C31.8470378,22.398748 32.1907653,22.5484922 32.5435202,22.7600086 C32.9091026,22.9743222 33.2241544,23.2212159 33.4886853,23.5000422 C33.7532161,23.7730135 33.9597875,24.0614699 34.1084056,24.3667274 C34.2570237,24.6678727 34.3444065,24.9790587 34.3705567,25.3027616 C34.3967069,25.6256415 34.3525897,25.9486466 34.2382038,26.2751649 L32.9201899,25.7087491 C32.9709691,25.5328704 32.9954328,25.3616939 32.9935817,25.1945713 C32.9917306,25.0274203 32.9591172,24.8684413 32.8957403,24.717017 C32.8323635,24.5647476 32.7373498,24.4219682 32.6106964,24.288277 C32.484043,24.1532106 32.3229094,24.0326441 32.1272908,23.9265357 C31.9477065,23.8278688 31.7802889,23.7636976 31.6250332,23.7348325 C31.4697774,23.7058484 31.3297505,23.7093875 31.2049481,23.7459567 C31.0801458,23.7830824 30.9733424,23.8508872 30.8845347,23.949565 C30.7957271,24.0490554 30.7285638,24.1736911 30.6830429,24.3233038 C30.6351876,24.4812176 30.6248716,24.6419409 30.6520946,24.8047238 C30.6793176,24.967145 30.7399966,25.1318824 30.8341333,25.2982685 C30.9282701,25.4633966 31.0514879,25.6315448 31.2037903,25.8020789 C31.3560927,25.9705022 31.533393,26.1417967 31.7356966,26.3153341 C32.022534,26.5650483 32.2761258,26.8219894 32.4964798,27.0868465 C32.7168338,27.3464517 32.8904587,27.6151635 33.0173597,27.8944436 C33.1442607,28.1704095 33.2185304,28.458189 33.2401709,28.7598195 C33.2618114,29.0608409 33.2201082,29.376634 33.11506,29.7099937 C33.0030085,30.0689997 32.8417748,30.3758279 32.631354,30.6309729 C32.4209332,30.8902979 32.1766377,31.0977753 31.8984601,31.2521094 C31.6202825,31.4088873 31.3150103,31.5072501 30.9826343,31.5447365 C30.6502584,31.5813809 30.3060947,31.5538056 29.9501329,31.4590991 C29.7288594,31.397847 29.5156858,31.3077257 29.3106057,31.1882105 C29.1055257,31.0661742 28.9179476,30.9147253 28.747866,30.7337079 C28.5777843,30.5499676 28.4289209,30.3391364 28.3012712,30.1014061 C28.1736215,29.8612169 28.0768099,29.5982971 28.0108333,29.3134044 C27.9448568,29.0270734 27.9143094,28.719416 27.9191904,28.3915908 C27.9240714,28.0638845 27.9731992,27.7218426 28.0665754,27.3672056 L29.3942099,27.9640258 C29.3235883,28.2466053 29.2945207,28.5024898 29.3070063,28.730358 C29.3194919,28.9580021 29.3683546,29.1589519 29.4535959,29.3324649 C29.5388371,29.5047559 29.6574657,29.6501544 29.8094852,29.7683415 C29.9615046,29.8848756 30.1385279,29.9758321 30.3405602,30.0413124 C30.5201445,30.0982398 30.6872703,30.1209934 30.8419424,30.1103673 C30.9966146,30.0995974 31.1354743,30.0619561 31.2585259,29.9979165 C31.3815774,29.9343652 31.4877235,29.8456495 31.5769674,29.7319871 C31.6662113,29.6191065 31.7335927,29.486309 31.7791136,29.3334413 Z" id="S" stroke="#112E47" fill="#112E47"></path>
                    <g id="moneysuff" transform="translate(27.596774, 20.045455)" stroke="#112E47" stroke-width="2">
                        <path d="M4.75806452,2.34865992 L5.50194815,0.262289676" id="Path-19"></path>
                        <path d="M0.951612903,12.8486599 L1.69549654,10.7622897" id="Path-19-Copy"></path>
                    </g>
                </g>
                <g id="money-euro-02" transform="translate(338.500000, 168.500000) rotate(336.000000) translate(-338.500000, -168.500000) translate(309.000000, 137.000000)">
                    <g id="paper-02-copy" transform="translate(29.627431, 31.323114) rotate(-31.000000) translate(-29.627431, -31.323114) ">
                        <use fill="#FFFFFF" fill-rule="evenodd" xlink:href="#path-4"></use>
                        <path stroke="#112E47" stroke-width="2" d="M11.5276003,24.3485857 C16.8909314,27.5518805 21.0331449,31.6819041 23.9355004,36.7251163 C26.7646492,41.725519 28.2263534,47.5966975 28.3186209,54.2667338 L47.7582306,39.7932916 C47.7478185,39.8003422 47.7533097,39.7847409 47.7517787,39.7467305 C47.4260055,31.6460396 45.701137,24.8732671 42.6052188,19.4869933 C39.5560046,14.2764713 35.3164009,10.2483457 29.8808874,7.39858369 L11.5276003,24.3485857 Z"></path>
                    </g>
                    <path d="M33.6872462,28.5585348 L31.2880256,28.5585348 C31.3020153,28.9654862 31.3638022,29.3104542 31.4733882,29.5934491 C31.5829741,29.876444 31.7321953,30.1044737 31.9210561,30.277545 C32.109917,30.4506162 32.3349146,30.5757402 32.5960555,30.6529206 C32.8571965,30.7301011 33.1486441,30.7686907 33.4704071,30.7686907 C33.7175583,30.7686907 33.9565454,30.75115 34.1873753,30.716068 C34.4182053,30.6809859 34.6385397,30.6236862 34.8483851,30.5441669 L35.0722191,32.1368825 C34.7970884,32.2023689 34.510304,32.2538218 34.2118572,32.2912426 C33.9134104,32.3286634 33.6103049,32.3473735 33.3025316,32.3473735 C32.7336173,32.3473735 32.2101774,32.2678555 31.7321962,32.108817 C31.254215,31.9497785 30.8391936,31.7123938 30.4871196,31.3966557 C30.1350456,31.0809175 29.8575875,30.6856661 29.654737,30.2108895 C29.4518864,29.7361129 29.3411363,29.1853335 29.3224834,28.5585348 L28.1263705,28.5585348 L28.1263705,27.5201123 L29.3224834,27.5201123 L29.3224834,26.63605 L28.1263705,26.63605 L28.1263705,25.6046439 L29.336473,25.6046439 C29.3737788,24.9872004 29.4996842,24.4446067 29.7141929,23.9768465 C29.9287015,23.5090863 30.2143202,23.117343 30.5710574,22.8016049 C30.9277946,22.4858667 31.3474791,22.248482 31.8301236,22.0894435 C32.312768,21.9304051 32.8408711,21.850887 33.4144486,21.850887 C33.6989057,21.850887 33.9775296,21.8707665 34.2503286,21.9105262 C34.5231277,21.9502858 34.7970884,22.002908 35.0722191,22.0683944 L34.8483851,23.6681263 C34.6478661,23.6026399 34.4310291,23.5488483 34.1978675,23.5067499 C33.964706,23.4646514 33.7315479,23.4436026 33.4983863,23.4436026 C32.8548604,23.4436026 32.3419126,23.6143325 31.9595276,23.9557974 C31.5771426,24.2972624 31.357974,24.8468724 31.3020153,25.6046439 L33.6872462,25.6046439 L33.6872462,26.63605 L31.2880256,26.63605 L31.2880256,27.5201123 L33.6872462,27.5201123 L33.6872462,28.5585348 Z" id="€" fill="#112E47" transform="translate(31.599295, 27.099130) rotate(24.000000) translate(-31.599295, -27.099130) "></path>
                </g>
                <g id="money-euro" transform="translate(251.500000, 486.500000) rotate(317.000000) translate(-251.500000, -486.500000) translate(222.000000, 455.000000)">
                    <g id="paper-02-copy" transform="translate(29.627431, 31.323114) rotate(-31.000000) translate(-29.627431, -31.323114) ">
                        <use fill="#FFFFFF" fill-rule="evenodd" xlink:href="#path-5"></use>
                        <path stroke="#112E47" stroke-width="2" d="M11.5276003,24.3485857 C16.8909314,27.5518805 21.0331449,31.6819041 23.9355004,36.7251163 C26.7646492,41.725519 28.2263534,47.5966975 28.3186209,54.2667338 L47.7582306,39.7932916 C47.7478185,39.8003422 47.7533097,39.7847409 47.7517787,39.7467305 C47.4260055,31.6460396 45.701137,24.8732671 42.6052188,19.4869933 C39.5560046,14.2764713 35.3164009,10.2483457 29.8808874,7.39858369 L11.5276003,24.3485857 Z"></path>
                    </g>
                    <path d="M33.6872462,28.5585348 L31.2880256,28.5585348 C31.3020153,28.9654862 31.3638022,29.3104542 31.4733882,29.5934491 C31.5829741,29.876444 31.7321953,30.1044737 31.9210561,30.277545 C32.109917,30.4506162 32.3349146,30.5757402 32.5960555,30.6529206 C32.8571965,30.7301011 33.1486441,30.7686907 33.4704071,30.7686907 C33.7175583,30.7686907 33.9565454,30.75115 34.1873753,30.716068 C34.4182053,30.6809859 34.6385397,30.6236862 34.8483851,30.5441669 L35.0722191,32.1368825 C34.7970884,32.2023689 34.510304,32.2538218 34.2118572,32.2912426 C33.9134104,32.3286634 33.6103049,32.3473735 33.3025316,32.3473735 C32.7336173,32.3473735 32.2101774,32.2678555 31.7321962,32.108817 C31.254215,31.9497785 30.8391936,31.7123938 30.4871196,31.3966557 C30.1350456,31.0809175 29.8575875,30.6856661 29.654737,30.2108895 C29.4518864,29.7361129 29.3411363,29.1853335 29.3224834,28.5585348 L28.1263705,28.5585348 L28.1263705,27.5201123 L29.3224834,27.5201123 L29.3224834,26.63605 L28.1263705,26.63605 L28.1263705,25.6046439 L29.336473,25.6046439 C29.3737788,24.9872004 29.4996842,24.4446067 29.7141929,23.9768465 C29.9287015,23.5090863 30.2143202,23.117343 30.5710574,22.8016049 C30.9277946,22.4858667 31.3474791,22.248482 31.8301236,22.0894435 C32.312768,21.9304051 32.8408711,21.850887 33.4144486,21.850887 C33.6989057,21.850887 33.9775296,21.8707665 34.2503286,21.9105262 C34.5231277,21.9502858 34.7970884,22.002908 35.0722191,22.0683944 L34.8483851,23.6681263 C34.6478661,23.6026399 34.4310291,23.5488483 34.1978675,23.5067499 C33.964706,23.4646514 33.7315479,23.4436026 33.4983863,23.4436026 C32.8548604,23.4436026 32.3419126,23.6143325 31.9595276,23.9557974 C31.5771426,24.2972624 31.357974,24.8468724 31.3020153,25.6046439 L33.6872462,25.6046439 L33.6872462,26.63605 L31.2880256,26.63605 L31.2880256,27.5201123 L33.6872462,27.5201123 L33.6872462,28.5585348 Z" id="€" fill="#112E47" transform="translate(31.599295, 27.099130) rotate(24.000000) translate(-31.599295, -27.099130) "></path>
                </g>
                <circle id="spec-03" stroke="#112E47" stroke-width="2" fill="#516CFF" cx="434" cy="202" r="5"></circle>
                <circle id="spec-02" stroke="#112E47" stroke-width="2" fill="#59FF00" cx="112" cy="321" r="5"></circle>
                <circle id="spec" stroke="#112E47" stroke-width="2" fill="#ACFAFF" cx="366" cy="483" r="5"></circle>
            </g>
        </g>
    </g>
</svg>