<?xml version="1.0" encoding="UTF-8"?>
<svg width="469px" height="1284px" viewBox="0 0 469 1284" version="1.1" xmlns="http://www.w3.org/2000/svg" xmlns:xlink="http://www.w3.org/1999/xlink">
    <!-- Generator: Sketch 47.1 (45422) - http://www.bohemiancoding.com/sketch -->
    <title>howitworks-illustration</title>
    <desc>Created with Sketch.</desc>
    <defs>
        <path d="M0.363769055,37.9933142 L46.1391409,0.228632374 L46.139143,0.228634915 C46.4527006,-0.0300501031 46.8916475,-0.0731881871 47.2495651,0.119506727 C60.391073,7.19460465 70.4648398,16.5705084 77.4708655,28.247218 C84.511698,39.9819387 88.0669446,54.4276708 88.1366052,71.5844141 L88.1365863,71.5844142 C88.1378971,71.9072416 87.9832761,72.2108439 87.721404,72.3996354 L38.871252,107.617187 L38.8712655,107.617206 C38.4232548,107.94019 37.7982397,107.838836 37.4752552,107.390826 C37.3435935,107.208198 37.2774099,106.986486 37.2874151,106.761569 C37.9646669,91.5371118 35.1614416,78.4028417 28.8777392,67.3587587 C22.5188759,56.1825749 13.0586776,46.9393074 0.497144224,39.6289564 L0.497160448,39.6289285 C0.0198395451,39.3511453 -0.141917697,38.7390124 0.135865536,38.2616915 C0.195362205,38.1594571 0.272525908,38.0685898 0.363769055,37.9933142 Z" id="path-1"></path>
        <path d="M4.01650785,40.9360584 L49.7918797,3.17137664 L49.7918818,3.17137918 C50.1054394,2.91269416 50.5443863,2.86955608 50.9023039,3.06225099 C64.0438118,10.1373489 74.1175786,19.5132527 81.1236043,31.1899622 C88.1644368,42.924683 91.7196834,57.3704151 91.789344,74.5271584 L91.7893251,74.5271585 C91.7906359,74.8499859 91.6360149,75.1535881 91.3741428,75.3423797 L42.5239907,110.559931 L42.5240043,110.55995 C42.0759936,110.882934 41.4509784,110.781581 41.127994,110.33357 C40.9963322,110.150942 40.9301486,109.92923 40.9401539,109.704313 C41.6174057,94.479856 38.8141803,81.345586 32.5304779,70.301503 C26.1716147,59.1253191 16.7114164,49.8820517 4.14988301,42.5717006 L4.14989924,42.5716728 C3.67257833,42.2938895 3.51082109,41.6817567 3.78860433,41.2044358 C3.84810099,41.1022014 3.9252647,41.011334 4.01650785,40.9360584 Z" id="path-2"></path>
        <path d="M139.634786,142.439393 L155.662891,66.2364183 L155.662891,66.2364183 C155.736643,65.8857795 155.617156,65.5224797 155.349671,65.2840713 L83.4377274,1.18924897 L83.4377274,1.18924897 C83.0254377,0.821776913 82.393316,0.858108724 82.0258439,1.27039834 C81.9178689,1.39154224 81.8409983,1.53714371 81.8018678,1.69463423 L63.5412821,75.1889263" id="path-3"></path>
        <path d="M136.670583,134.530837 L150.798499,68.1697993 L150.798499,68.1697993 C150.873269,67.8185924 150.753998,67.4542588 150.486014,67.2152583 L85.1985198,8.9889439 L85.1985198,8.9889439 C84.7863426,8.62134577 84.1542097,8.65748427 83.7866116,9.06966149 C83.678746,9.19060806 83.6018909,9.33595793 83.5626631,9.49319733 L67.5811896,73.5526966 L136.670583,134.530837 Z" id="path-4"></path>
        <path d="M139.808533,141.564179 L139.337734,145.87448 L139.337734,145.87448 C139.294989,146.265823 139.026616,146.595675 138.652148,146.717123 L74.3969494,167.556397 L74.3969494,167.556397 C73.0238187,168.001731 71.5172624,167.672667 70.4548664,166.695362 L0.307238618,102.166081 L0.13467155,97.2244066 L139.808533,141.564179 Z" id="path-5"></path>
        <path d="M64.5871004,74.4356641 L139.300098,141.572241 L139.300098,141.572241 C139.710896,141.94138 139.744666,142.573644 139.375526,142.984441 C139.257726,143.115535 139.107372,143.213167 138.939694,143.267447 L74.1821701,164.230562 L74.1821701,164.230562 C73.4987325,164.451803 72.7491403,164.289522 72.218404,163.805421 L0.926206479,98.7776838 L0.926206479,98.7776838 C0.110126744,98.0333131 0.0519950365,96.7683182 0.796365675,95.9522384 C1.02311748,95.7036425 1.30892394,95.5162729 1.62732557,95.4074761 L63.5953725,74.2331961 L63.5953725,74.2331961 C63.9382174,74.1160471 64.3176111,74.1935029 64.5871004,74.4356641 Z" id="path-6"></path>
        <polygon id="path-7" points="0.714285714 6.91176471 14.2857143 6.91176471 14.2857143 42.8529412 7.5461638 46.5468328 0.714285714 42.8529412"></polygon>
        <path d="M4.72679946,2.55237325 L12.1612181,2.55237325 L12.1612181,2.55237325 C12.7135029,2.55237325 13.1612181,3.0000885 13.1612181,3.55237325 C13.1612181,3.64933465 13.1471163,3.74578061 13.1193553,3.83868293 L11.1502078,10.4284472 L11.1502078,10.4284472 C11.0236563,10.8519525 10.6340798,11.1421375 10.1920707,11.1421375 L2.75765203,11.1421375 L2.75765203,11.1421375 C2.20536728,11.1421375 1.75765203,10.6944222 1.75765203,10.1421375 C1.75765203,10.0451761 1.77175391,9.94873013 1.79951489,9.85582781 L3.76866233,3.26606357 L3.76866233,3.26606357 C3.89521382,2.84255821 4.28479033,2.55237325 4.72679946,2.55237325 Z" id="path-8"></path>
        <polygon id="path-9" points="0.714285714 6.8533471 14.2857143 6.8533471 14.2857143 51.9155212 7.5461638 56.5468328 0.714285714 51.9155212"></polygon>
        <path d="M4.46924015,2.74115853 L11.7472357,2.74115853 L11.7472357,2.74115853 C12.2995204,2.74115853 12.7472357,3.18887378 12.7472357,3.74115853 C12.7472357,3.83811993 12.7331338,3.93456589 12.7053728,4.02746821 L10.7783923,10.4761208 L10.7783923,10.4761208 C10.6518408,10.8996261 10.2622643,11.1898111 9.82025513,11.1898111 L2.54225958,11.1898111 L2.54225958,11.1898111 C1.98997483,11.1898111 1.54225958,10.7420958 1.54225958,10.1898111 C1.54225958,10.0928497 1.55636146,9.99640372 1.58412245,9.9035014 L3.51110301,3.45484885 L3.51110301,3.45484885 C3.6376545,3.03134349 4.02723101,2.74115853 4.46924015,2.74115853 Z" id="path-10"></path>
        <polygon id="path-11" points="0.614633609 6.13075574 14.1860622 6.13075574 14.1860622 31.2337013 7.40322984 35.0906223 0.614633609 31.2337013"></polygon>
        <path d="M4.85711203,2.8891445 L11.3374312,2.8891445 L11.3374312,2.8891445 C11.8897159,2.8891445 12.3374312,3.33685975 12.3374312,3.8891445 C12.3374312,3.97247328 12.3270158,4.05547534 12.3064272,4.13622061 L10.5131064,11.1693607 L10.5131064,11.1693607 C10.4001623,11.6123106 10.0012328,11.9222846 9.5441103,11.9222846 L3.06379118,11.9222846 L3.06379118,11.9222846 C2.51150643,11.9222846 2.06379118,11.4745693 2.06379118,10.9222846 C2.06379118,10.8389558 2.07420655,10.7559537 2.0947951,10.6752085 L3.88811595,3.6420684 L3.88811595,3.6420684 C4.00105999,3.19911852 4.39998956,2.8891445 4.85711203,2.8891445 Z" id="path-12"></path>
        <polygon id="path-13" points="1 6.95263325 14.1860622 6.95263325 14.1860622 22.6370135 7.44352898 26.2138881 1 22.6370135"></polygon>
        <path d="M4.88611431,2.83021634 L12.1323877,2.83021634 L12.1323877,2.83021634 C12.6846725,2.83021634 13.1323877,3.27793159 13.1323877,3.83021634 C13.1323877,3.92916544 13.1177018,4.02756664 13.0888099,4.12220375 L11.1823162,10.3670376 L11.1823162,10.3670376 C11.0538955,10.7876872 10.6657099,11.0750502 10.225894,11.0750502 L2.97962058,11.0750502 L2.97962058,11.0750502 C2.42733583,11.0750502 1.97962058,10.6273349 1.97962058,10.0750502 C1.97962058,9.97610105 1.99430653,9.87769986 2.02319842,9.78306274 L3.92969215,3.53822893 L3.92969215,3.53822893 C4.05811286,3.11757925 4.44629841,2.83021634 4.88611431,2.83021634 Z" id="path-14"></path>
    </defs>
    <g id="assets" stroke="none" stroke-width="1" fill="none" fill-rule="evenodd">
        <g id="howitworks-illustration">
            <g transform="translate(-415.000000, -9.000000)">
                <path d="M872.263016,130.962291 C794.701794,45.6658349 654.919283,32.7826383 570.102422,87.8368916 C464.854373,156.15294 475.482447,258.664831 431.116846,346.24718 C345.468656,515.325686 148.399638,363.129066 97.363207,538.081113 C73.3963302,620.239172 91.6181212,765.875841 234.213876,851.322674 C450.519823,980.938441 243.746855,1236.39191 500.064866,1240.3468" id="Oval" stroke="#112E47" stroke-width="2" transform="translate(480.391907, 647.507508) scale(-1, 1) rotate(-9.000000) translate(-480.391907, -647.507508) "></path>
                <g id="how-it-works-illustration" transform="translate(510.000000, 88.000000)">
                    <g id="Group-9" transform="translate(229.000000, 657.000000)">
                        <g id="paper-02-copy">
                            <use fill="#FFFFFF" fill-rule="evenodd" xlink:href="#path-1"></use>
                            <path stroke="#112E47" stroke-width="2" d="M1.00015936,38.7646788 L1.00013148,38.7646626 C13.7096238,46.1611203 23.2977789,55.5294103 29.746903,66.8642344 C36.1286731,78.0806788 38.9716928,91.4014022 38.2864272,106.806009 L38.2864315,106.806024 L87.1366024,71.588459 L87.1366135,71.5884744 C87.0676452,54.6022651 83.5556097,40.3321089 76.6133726,28.7617137 C69.7022484,17.2431733 59.7622628,7.99178313 46.7755223,1.00000855 L1.00015201,38.7646874 Z"></path>
                        </g>
                    </g>
                    <g id="sign-here" transform="translate(146.000000, 840.000000)">
                        <g id="close">
                            <g id="paper-02" transform="translate(47.721041, 56.845798) scale(-1, 1) rotate(4.000000) translate(-47.721041, -56.845798) ">
                                <use fill="#FFFFFF" fill-rule="evenodd" xlink:href="#path-2"></use>
                                <path stroke="#112E47" stroke-width="2" d="M4.65289815,41.707423 L4.65287027,41.7074068 C17.3623626,49.1038645 26.9505177,58.4721546 33.3996418,69.8069787 C39.7814118,81.0234231 42.6244316,94.3441464 41.939166,109.748754 L41.9391703,109.748768 L90.7893412,74.5312033 L90.7893523,74.5312186 C90.720384,57.5450094 87.2083485,43.2748532 80.2661114,31.704458 C73.3549872,20.1859176 63.4150016,10.9345274 50.4282611,3.94275282 L4.6528908,41.7074317 Z"></path>
                            </g>
                            <path d="M14,70 L45.862389,89.4645344" id="Path-20" stroke="#032E49" stroke-width="2" stroke-linecap="round"></path>
                            <g id="x" transform="translate(44.000000, 76.000000)" stroke="#112E47" stroke-width="2" stroke-linecap="round">
                                <path d="M0.5,3.5 L6.07066233,2" id="Path-21"></path>
                                <path d="M3.09811237,0 L3.09811237,5.5" id="Path-21-Copy"></path>
                            </g>
                            <path d="M17.8034775,64.8388411 L18.2756897,64.7492367 L18.2756897,64.7492367 C20.0726481,64.4082557 21.8096476,65.5759246 22.1722623,67.3686427 L22.1722623,67.3686427 L22.1722623,67.3686427 C22.5343818,69.1589122 24.2730177,70.3217314 26.065894,69.9727472 L31.5197254,68.9111565 L31.5197254,68.9111565 C32.5491107,68.7107862 33.5643287,69.3172968 33.8757554,70.3186937 L33.8757554,70.3186937 L33.8757554,70.3186937 C34.2384938,71.485084 34.422984,72.6995714 34.422984,73.9210646 L34.422984,74.5832006 L34.422984,74.5832006 C34.422984,75.2945993 34.9996866,75.8713019 35.7110853,75.8713019 C35.9798211,75.8713019 36.2418277,75.7872506 36.4604126,75.6309188 L38.4058481,74.2395448 L38.4058481,74.2395448 C39.3679267,73.5514669 39.5900481,72.2137508 38.9019702,71.2516723 C38.5884389,70.813289 38.1211478,70.5092355 37.5933332,70.400178" id="Path-23" stroke="#112E47" stroke-linecap="round" transform="translate(28.552644, 70.280697) scale(-1, 1) rotate(299.000000) translate(-28.552644, -70.280697) "></path>
                        </g>
                    </g>
                    <g id="paper-01" transform="translate(150.000000, 450.000000)" stroke="#112E47" stroke-width="2" fill="#FFFFFF">
                        <path d="M0.781349152,29.6701412 L69.0983429,0.829054837 L69.0983249,0.829012138 C69.6071509,0.614203298 70.1937728,0.852551287 70.4085817,1.36137727 C70.44572,1.44934836 70.4700675,1.54218509 70.4808824,1.63705979 C71.7600005,12.8582296 75.3800503,21.7473544 81.341032,28.3044342 C87.1263149,34.6682454 95.9391536,39.7403048 107.779548,43.5206125 L107.779546,43.5206178 C108.305664,43.6885924 108.595996,44.2512653 108.428021,44.7773827 C108.340811,45.0505379 108.140538,45.2731138 107.878073,45.3885763 C70.4840498,61.8387845 48.5246921,71.0425924 42,73 C32,76 22,69 13,58 C7.14692389,50.8462403 2.87988944,41.7892306 0.19889666,30.8289709 L0.19894274,30.8289597 C0.0822958941,30.3520916 0.329073435,29.8610765 0.781349152,29.6701412 Z" id="Rectangle-10"></path>
                        <path d="M53,54 L120.554629,25 C121.890744,26.6071718 122.372534,28.9405051 122,32 C121.627466,35.0594949 120.061399,38.201267 117.3018,41.4253162 C67.7672666,62.4751054 42.6666667,73 42,73 C41,73 48.3666626,69.0079462 51,63 C52.7555583,58.9947026 53.422225,55.9947026 53,54 Z" id="Rectangle"></path>
                    </g>
                    <g id="paper-01-copy" transform="translate(294.500000, 346.000000) scale(-1, 1) rotate(20.000000) translate(-294.500000, -346.000000) translate(233.000000, 309.000000)" stroke="#112E47" stroke-width="2" fill="#FFFFFF">
                        <path d="M0.781349152,29.6701412 L69.0983429,0.829054837 L69.0983249,0.829012138 C69.6071509,0.614203298 70.1937728,0.852551287 70.4085817,1.36137727 C70.44572,1.44934836 70.4700675,1.54218509 70.4808824,1.63705979 C71.7600005,12.8582296 75.3800503,21.7473544 81.341032,28.3044342 C87.1263149,34.6682454 95.9391536,39.7403048 107.779548,43.5206125 L107.779546,43.5206178 C108.305664,43.6885924 108.595996,44.2512653 108.428021,44.7773827 C108.340811,45.0505379 108.140538,45.2731138 107.878073,45.3885763 C70.4840498,61.8387845 48.5246921,71.0425924 42,73 C32,76 22,69 13,58 C7.14692389,50.8462403 2.87988944,41.7892306 0.19889666,30.8289709 L0.19894274,30.8289597 C0.0822958941,30.3520916 0.329073435,29.8610765 0.781349152,29.6701412 Z" id="Rectangle-10"></path>
                        <path d="M53,54 L120.554629,25 C121.890744,26.6071718 122.372534,28.9405051 122,32 C121.627466,35.0594949 120.061399,38.201267 117.3018,41.4253162 C67.7672666,62.4751054 42.6666667,73 42,73 C41,73 48.3666626,69.0079462 51,63 C52.7555583,58.9947026 53.422225,55.9947026 53,54 Z" id="Rectangle"></path>
                    </g>
                    <g id="pencil" transform="translate(89.000000, 807.000000)" stroke="#112E47">
                        <path d="M17.0081051,-0.983107569 L21.9425345,-0.978769287 L21.9425337,-0.977889714 C22.4944749,-0.977404455 22.9416545,-0.529831538 22.9416545,0.0221098992 L22.9425341,39.0221099 L22.9434129,39.0221099 C22.9434129,39.5743946 22.4956977,40.0221099 21.9434129,40.0221099 C21.9431198,40.0221099 21.9428268,40.0221098 21.9425337,40.0221095 L17.0081051,40.0168924 L17.0081058,40.0160129 C16.4561646,40.0155276 16.008985,39.5679547 16.008985,39.0160132 L16.0081055,0.0160132448 L16.0072267,0.0160132448 C16.0072267,-0.536271505 16.4549419,-0.983986755 17.0072267,-0.983986755 C17.0075197,-0.983986755 17.0078128,-0.983986626 17.0081058,-0.983986369 Z" id="Rectangle-11" stroke-width="2" fill="#FFFFFF" transform="translate(19.475320, 19.519062) rotate(-44.000000) translate(-19.475320, -19.519062) "></path>
                        <path d="M36.0007029,34.1497333 L38.7102309,38.4663307 L32.0523597,37.7724798 L34.3047029,34.1530327 L34.3047029,34.1530327 C34.5964986,33.6841258 35.21317,33.5405489 35.6820769,33.8323446 C35.8110064,33.9125761 35.9199704,34.0211169 36.0007029,34.1497333 Z" id="Triangle" fill="#112E47" transform="translate(35.381295, 36.073785) rotate(-225.000000) translate(-35.381295, -36.073785) "></path>
                        <path d="M3.05207526,7.03846651 C0.523496842,5.21303144 0.241519068,3.31800247 2.20614194,1.3533796 C4.17076481,-0.611243269 6.05311414,-0.202541196 7.85318994,2.57948582" id="Path-2" stroke-width="2"></path>
                    </g>
                    <g id="laptop" transform="translate(80.884042, 86.670990) rotate(2.000000) translate(-80.884042, -86.670990) translate(2.884042, 2.670990)">
                        <g id="Path-3">
                            <use fill="#FFFFFF" fill-rule="evenodd" xlink:href="#path-3"></use>
                            <path stroke="#112E47" stroke-width="2" d="M139.009792,140.552461 L154.684304,66.0305877 L82.7723603,1.93576537 L64.658049,74.8413396 L139.009792,140.552461 Z"></path>
                        </g>
                        <g id="Path-3-Copy">
                            <use fill="#112E47" fill-rule="evenodd" xlink:href="#path-4"></use>
                            <path stroke="#112E47" stroke-width="2" d="M136.048935,132.648389 L149.820419,67.9615712 L84.5329245,9.73525678 L68.6985577,73.2050996 L136.048935,132.648389 Z"></path>
                        </g>
                        <g id="Rectangle-3">
                            <use fill="#FFFFFF" fill-rule="evenodd" xlink:href="#path-5"></use>
                            <path stroke="#112E47" stroke-width="2" d="M138.725539,142.269559 L1.18354671,98.606553 L1.29203466,101.713242 L71.1318858,165.959397 C71.9286828,166.692376 73.0586,166.939174 74.0884481,166.605173 L138.343646,145.765899 L138.725539,142.269559 Z"></path>
                        </g>
                        <g id="Rectangle-3-Copy">
                            <use fill="#FFFFFF" fill-rule="evenodd" xlink:href="#path-6"></use>
                            <path stroke="#112E47" stroke-width="2" d="M63.918714,75.1794784 L1.95066716,96.3537584 C1.79146634,96.4081568 1.64856311,96.5018416 1.53518721,96.6261396 C1.16300189,97.0341794 1.19206775,97.6666769 1.60010761,98.0388622 L72.8923052,163.0666 C73.1576733,163.30865 73.5324694,163.38979 73.8741882,163.27917 L138.631712,142.316055 L63.918714,75.1794784 Z"></path>
                        </g>
                    </g>
                    <g id="Group-4-Copy" transform="translate(280.526279, 704.428203) rotate(60.000000) translate(-280.526279, -704.428203) translate(272.526279, 693.428203)" stroke-width="1.80000007">
                        <polyline id="Path-13" stroke="#32EAFF" points="2.96296296 17.1111111 0 17.1111111 0 0 10.6666667 0 10.6666667 17.1111111 7.7037037 17.1111111"></polyline>
                        <polyline id="Path-13-Copy" stroke="#2762A7" transform="translate(10.666667, 13.444444) rotate(-180.000000) translate(-10.666667, -13.444444) " points="8.2962963 22 5.33333333 22 5.33333333 4.88888889 16 4.88888889 16 22 13.037037 22"></polyline>
                    </g>
                </g>
            </g>
            <g id="Group-2" transform="translate(276.000000, 228.000000)">
                <path d="M18.5094559,56.7244689 C33.8988586,53.299315 44.8695892,47.5203112 51.4216475,39.3874574 C57.9737058,31.2546036 62.7642848,24.3297636 65.7933845,18.6129374" id="Path-29" stroke="#112E47" stroke-width="2" stroke-linecap="round" transform="translate(42.151420, 37.668703) rotate(2.000000) translate(-42.151420, -37.668703) "></path>
                <path d="M78.3612345,4.58766972 L78.3612345,82.3503323 L4.59857183,82.3503323 C4.32242945,82.3503323 4.09857183,82.57419 4.09857183,82.8503323 C4.09857183,83.1264747 4.32242945,83.3503323 4.59857183,83.3503323 L78.3612345,83.3503323 L78.3612345,95.112995 C78.3612345,95.3891373 78.5850921,95.612995 78.8612345,95.612995 C79.1373768,95.612995 79.3612345,95.3891373 79.3612345,95.112995 L79.3612345,83.3503323 L95.1238971,83.3503323 C95.4000394,83.3503323 95.6238971,83.1264747 95.6238971,82.8503323 C95.6238971,82.57419 95.4000394,82.3503323 95.1238971,82.3503323 L79.3612345,82.3503323 L79.3612345,4.58766972 C79.3612345,4.31152735 79.1373768,4.08766972 78.8612345,4.08766972 C78.5850921,4.08766972 78.3612345,4.31152735 78.3612345,4.58766972 Z" id="Combined-Shape" stroke="#112E47" transform="translate(49.861234, 49.850332) rotate(4.000000) translate(-49.861234, -49.850332) "></path>
                <g id="Group-5" transform="translate(43.303789, 66.259054) rotate(-2.000000) translate(-43.303789, -66.259054) translate(14.803789, 36.759054)">
                    <g id="bar" transform="translate(21.604698, 32.501828) rotate(4.000000) translate(-21.604698, -32.501828) translate(14.104698, 9.001828)">
                        <g id="Rectangle-13">
                            <use fill="#FFFFFF" fill-rule="evenodd" xlink:href="#path-7"></use>
                            <path stroke="#112E47" stroke-width="2" d="M1.71428571,7.91176471 L1.71428571,42.2568145 L7.54291105,45.4082628 L13.2857143,42.2606801 L13.2857143,7.91176471 L1.71428571,7.91176471 Z"></path>
                        </g>
                        <g id="Rectangle-2" transform="translate(7.459435, 6.847255) rotate(36.000000) translate(-7.459435, -6.847255) ">
                            <use fill="#FFFFFF" fill-rule="evenodd" xlink:href="#path-8"></use>
                            <path stroke="#112E47" stroke-width="2" d="M4.72679946,3.55237325 L2.75765203,10.1421375 L10.1920707,10.1421375 L12.1612181,3.55237325 L4.72679946,3.55237325 Z"></path>
                        </g>
                        <path d="M7.6479672,11.6847682 L7.6479672,45.8250157" id="Path-4" stroke="#112E47" stroke-width="2"></path>
                    </g>
                    <g id="bar-copy-3" transform="translate(46.570691, 29.338291) rotate(4.000000) translate(-46.570691, -29.338291) translate(39.070691, 0.838291)">
                        <g id="Rectangle-13">
                            <use fill="#97E2FF" fill-rule="evenodd" xlink:href="#path-9"></use>
                            <path stroke="#112E47" stroke-width="2" d="M1.71428571,7.8533471 L1.71428571,51.3853023 L7.54232862,55.3361167 L13.2857143,51.3893537 L13.2857143,7.8533471 L1.71428571,7.8533471 Z"></path>
                        </g>
                        <g id="Rectangle-2" transform="translate(7.144748, 6.965485) rotate(36.000000) translate(-7.144748, -6.965485) ">
                            <use fill="#97E2FF" fill-rule="evenodd" xlink:href="#path-10"></use>
                            <path stroke="#112E47" stroke-width="2" d="M4.46924015,3.74115853 L2.54225958,10.1898111 L9.82025513,10.1898111 L11.7472357,3.74115853 L4.46924015,3.74115853 Z"></path>
                        </g>
                        <path d="M7.6479672,10.0220521 L7.6479672,55.8250157" id="Path-4" stroke="#112E47" stroke-width="2"></path>
                    </g>
                    <g id="bar-copy" transform="translate(33.717462, 37.889227) rotate(4.000000) translate(-33.717462, -37.889227) translate(26.217462, 19.889227)">
                        <g id="Rectangle-13">
                            <use fill="#FFFFFF" fill-rule="evenodd" xlink:href="#path-11"></use>
                            <path stroke="#112E47" stroke-width="2" d="M1.61463361,7.13075574 L1.61463361,30.6517218 L7.40301997,33.9403765 L13.1860622,30.651966 L13.1860622,7.13075574 L1.61463361,7.13075574 Z"></path>
                        </g>
                        <g id="Rectangle-2" transform="translate(7.200611, 7.405715) rotate(36.000000) translate(-7.200611, -7.405715) ">
                            <use fill="#FFFFFF" fill-rule="evenodd" xlink:href="#path-12"></use>
                            <path stroke="#112E47" stroke-width="2" d="M4.85711203,3.8891445 L3.06379118,10.9222846 L9.5441103,10.9222846 L11.3374312,3.8891445 L4.85711203,3.8891445 Z"></path>
                        </g>
                        <path d="M7.34534486,11.3886972 L7.56913422,33.962366" id="Path-4" stroke="#112E47" stroke-width="2"></path>
                    </g>
                    <g id="bar-copy-2" transform="translate(9.325673, 41.492084) rotate(4.000000) translate(-9.325673, -41.492084) translate(1.825673, 27.992084)">
                        <g id="Rectangle-13">
                            <use fill="#B4F295" fill-rule="evenodd" xlink:href="#path-13"></use>
                            <path stroke="#112E47" stroke-width="2" d="M2,7.95263325 L2,22.0483815 L7.45434608,25.0761497 L13.1860622,22.0355077 L13.1860622,7.95263325 L2,7.95263325 Z"></path>
                        </g>
                        <g id="Rectangle-2" transform="translate(7.556004, 6.952633) rotate(36.000000) translate(-7.556004, -6.952633) ">
                            <use fill="#B4F295" fill-rule="evenodd" xlink:href="#path-14"></use>
                            <path stroke="#112E47" stroke-width="2" d="M4.88611431,3.83021634 L2.97962058,10.0750502 L10.225894,10.0750502 L12.1323877,3.83021634 L4.88611431,3.83021634 Z"></path>
                        </g>
                        <path d="M7.56913422,10.5734 L7.56913422,24.0360273" id="Path-4" stroke="#112E47" stroke-width="2"></path>
                    </g>
                </g>
            </g>
        </g>
    </g>
</svg>