<?xml version="1.0" encoding="UTF-8"?>
<svg width="375px" height="186px" viewBox="0 0 375 186" version="1.1" xmlns="http://www.w3.org/2000/svg" xmlns:xlink="http://www.w3.org/1999/xlink">
    <!-- Generator: Sketch 47.1 (45422) - http://www.bohemiancoding.com/sketch -->
    <title>human-centered-mobile</title>
    <desc>Created with Sketch.</desc>
    <defs>
        <ellipse id="path-1" cx="57.4685539" cy="52.2023758" rx="35.075181" ry="35.55814"></ellipse>
    </defs>
    <g id="assets" stroke="none" stroke-width="1" fill="none" fill-rule="evenodd">
        <g id="human-centered-mobile">
            <g id="human-centered" transform="translate(140.000000, 30.000000)">
                <g id="nebulus">
                    <g id="globe" transform="translate(57.468554, 52.202376) rotate(-195.000000) translate(-57.468554, -52.202376) ">
                        <use fill="#ACFAFF" fill-rule="evenodd" xlink:href="#path-1"></use>
                        <ellipse stroke="#ACFAFF" stroke-width="0.998399976" cx="57.4685539" cy="52.2023758" rx="35.574381" ry="36.05734"></ellipse>
                    </g>
                    <path d="M93.375097,36.4026582 C99.3906501,23.2056613 96.7869969,15.8161909 85.5641374,14.2342469 C77.9266227,13.1576835 56.141721,19.8568723 39.7786593,34.1020612 C27.4247107,44.8570369 18.0112432,60.9129648 16.7110483,71.4030697 C15.0385062,84.89731 20.6529002,90.292133 33.5542304,87.5875388" id="orbit-04" stroke="#FFFFFF" stroke-width="1.49759996" stroke-linejoin="round" transform="translate(56.473513, 51.193634) rotate(-13.000000) translate(-56.473513, -51.193634) "></path>
                    <path d="M93.375097,39.9332536 C99.3906501,26.7362568 96.7869969,19.3467864 85.5641374,17.7648424 C77.9266227,16.688279 56.141721,23.3874678 39.7786593,37.6326566 C27.4247107,48.3876324 18.0112432,64.4435603 16.7110483,74.9336652 C15.0385062,88.4279055 20.6529002,93.8227285 33.5542304,91.1181343" id="orbit-03" stroke="#FFFFFF" stroke-width="1.49759996" stroke-linejoin="round" transform="translate(56.473513, 54.724230) rotate(-123.000000) translate(-56.473513, -54.724230) "></path>
                    <path d="M93.375097,37.9157705 C99.3906501,24.7187737 96.7869969,17.3293033 85.5641374,15.7473593 C77.9266227,14.6707958 56.141721,21.3699846 39.7786593,35.6151735 C27.4247107,46.3701493 18.0112432,62.4260772 16.7110483,72.9161821 C15.0385062,86.4104223 20.6529002,91.8052454 33.5542304,89.1006512" id="orbit-02" stroke="#FFFFFF" stroke-width="1.49759996" stroke-linejoin="round" transform="translate(56.473513, 52.706747) rotate(-339.000000) translate(-56.473513, -52.706747) "></path>
                    <path d="M92.8775767,38.4201413 C98.8931298,25.2231445 96.2894766,17.833674 85.0666171,16.2517301 C77.4291024,15.1751666 55.6442007,21.8743554 39.281139,36.1195443 C26.9271904,46.87452 17.5137229,62.9304479 16.213528,73.4205528 C14.5409859,86.9147931 20.1553799,92.3096162 33.0567101,89.605022" id="orbit" stroke="#FFFFFF" stroke-width="1.49759996" stroke-linejoin="round" transform="translate(55.975993, 53.211117) rotate(108.000000) translate(-55.975993, -53.211117) "></path>
                    <g id="dark-orbits" transform="translate(0.000000, 0.504371)" stroke="#112E47" stroke-width="1.49759996" stroke-linejoin="round">
                        <path d="M90.9370308,36.9047384 C96.9628437,23.686481 94.3547499,16.285106 83.1127493,14.7006135 C75.4622085,13.6223157 53.6401518,20.332297 37.2491823,34.6004351 C24.8741635,45.3727373 15.4446409,61.4545316 14.1422285,71.9615362 C12.4668338,85.477516 18.5763203,90.2044015 32.4706878,86.1421929" id="Path-26-Copy-7" transform="translate(53.981504, 51.069444) rotate(-15.000000) translate(-53.981504, -51.069444) "></path>
                        <path d="M91.3665563,38.4590006 C97.3923692,25.2407432 94.7842753,17.8393682 83.5422748,16.2548757 C75.891734,15.1765779 54.0696772,21.8865592 37.6787077,36.1546973 C25.303689,46.9269995 17.3464314,63.254455 14.571754,73.5157985 C11.0969476,86.3663666 15.9470292,92.8507749 29.1219986,92.9690232" id="Path-26-Copy-6" transform="translate(54.002347, 54.555927) rotate(-119.000000) translate(-54.002347, -54.555927) "></path>
                        <path d="M96.1810106,33.5956722 C98.199953,25.0690665 94.2275431,19.9124454 84.263781,18.1258088 C76.6678491,16.763756 54.7911835,23.7574923 38.400214,38.0256305 C26.0251952,48.7979327 16.5956726,64.8797269 15.2932602,75.3867316 C13.6178655,88.9027113 20.4318952,92.1443408 35.7353492,85.11162" id="Path-26-Copy-5" transform="translate(55.868271, 53.340353) rotate(-342.000000) translate(-55.868271, -53.340353) "></path>
                        <path d="M90.1071912,38.4931323 C97.9759521,26.1871864 96.2893323,19.2419672 85.0473318,17.6574747 C77.3967909,16.5791769 55.5747342,23.2891582 39.1837647,37.5572963 C26.8087459,48.3295985 17.3792234,64.4113928 16.076811,74.9183975 C14.4014163,88.4343772 19.1039118,93.3817356 30.1842976,89.7604727" id="Path-26-Copy-4" transform="translate(55.356904, 54.226857) rotate(110.000000) translate(-55.356904, -54.226857) "></path>
                    </g>
                </g>
                <circle id="Oval-6-Copy" stroke="#112E47" stroke-width="0.998399976" fill="#A6F9FC" cx="5.5" cy="2.5" r="2.5"></circle>
                <circle id="Oval-6-Copy" stroke="#112E47" stroke-width="0.998399976" fill="#A6F9FC" cx="107.5" cy="108.5" r="2.5"></circle>
            </g>
            <path d="M-133.864493,309.363652 L125.680026,49.819132" id="Line-3-Copy" stroke="#112E47" stroke-width="1.2" stroke-linecap="square"></path>
            <path d="M267.135507,119.363652 L526.680026,-140.180868" id="Line-3" stroke="#112E47" stroke-width="1.2" stroke-linecap="square"></path>
        </g>
    </g>
</svg>