<?xml version="1.0" encoding="UTF-8"?>
<svg width="180px" height="46px" viewBox="0 0 180 46" version="1.1" xmlns="http://www.w3.org/2000/svg" xmlns:xlink="http://www.w3.org/1999/xlink">
    <!-- Generator: Sketch 47.1 (45422) - http://www.bohemiancoding.com/sketch -->
    <title>IntVentures</title>
    <desc>Created with Sketch.</desc>
    <defs></defs>
    <g id="Page-1" stroke="none" stroke-width="1" fill="none" fill-rule="evenodd">
        <g id="IntVentures">
            <g id="logo" transform="translate(-2.000000, 2.000000)">
                <path d="M51.5,29 L53,29 L53,11.15 L51.5,11.15 L51.5,29 Z M59.25,16.5 L57.875,16.5 L57.875,29 L59.325,29 L59.325,22.05 C59.325,18.775 61,17.425 63.1,17.425 C65.25,17.425 66.375,18.725 66.375,21.225 L66.375,29 L67.825,29 L67.825,20.925 C67.825,17.95 66.175,16.2 63.4,16.2 C61.45,16.2 59.825,17.25 59.25,18.9 L59.25,16.5 Z M77.825,27.575 C76.975,27.85 76.375,27.925 75.9,27.925 C74.725,27.925 74,27.425 74,26.025 L74,17.675 L77.475,17.675 L77.475,16.5 L74.025,16.5 L74.025,13.275 L72.575,13.275 L72.575,16.5 L70.675,16.5 L70.675,17.675 L72.575,17.675 L72.575,25.9 C72.575,28.125 73.7,29.2 75.8,29.2 C76.2,29.2 76.925,29.15 77.825,28.85 L77.825,27.575 Z M86.8,29 L88.55,29 L95.875,11.15 L94.35,11.15 L87.725,27.55 L87.675,27.55 L81.05,11.15 L79.5,11.15 L86.8,29 Z M108.55,25.45 C107.95,28.1 105.825,29.3 103.625,29.3 C100.175,29.3 97.8,26.825 97.8,22.825 C97.8,18.75 100.25,16.2 103.475,16.2 C107.075,16.2 108.625,19.15 108.625,22.3 L108.625,23 L99.225,23 C99.275,26.25 101,28.025 103.625,28.025 C105.475,28.025 106.575,27.125 107.175,25.45 L108.55,25.45 Z M103.475,17.475 C101.375,17.475 99.625,18.85 99.275,21.8 L107.175,21.8 C107.075,19.325 105.925,17.475 103.475,17.475 Z M113.8,16.5 L112.425,16.5 L112.425,29 L113.875,29 L113.875,22.05 C113.875,18.775 115.55,17.425 117.65,17.425 C119.8,17.425 120.925,18.725 120.925,21.225 L120.925,29 L122.375,29 L122.375,20.925 C122.375,17.95 120.725,16.2 117.95,16.2 C116,16.2 114.375,17.25 113.8,18.9 L113.8,16.5 Z M132.375,27.575 C131.525,27.85 130.925,27.925 130.45,27.925 C129.275,27.925 128.55,27.425 128.55,26.025 L128.55,17.675 L132.025,17.675 L132.025,16.5 L128.575,16.5 L128.575,13.275 L127.125,13.275 L127.125,16.5 L125.225,16.5 L125.225,17.675 L127.125,17.675 L127.125,25.9 C127.125,28.125 128.25,29.2 130.35,29.2 C130.75,29.2 131.475,29.15 132.375,28.85 L132.375,27.575 Z M145.625,29 L145.625,16.5 L144.175,16.5 L144.175,23.45 C144.175,26.725 142.6,28.15 140.5,28.15 C138.35,28.15 137.275,26.825 137.275,24.325 L137.275,16.5 L135.8,16.5 L135.8,24.575 C135.8,27.6 137.375,29.3 140.2,29.3 C142.125,29.3 143.65,28.3 144.25,26.625 L144.25,29 L145.625,29 Z M156.8,16.275 C156.475,16.225 156.125,16.2 155.8,16.2 C153.925,16.2 152.275,17.425 151.75,19.55 L151.75,16.5 L150.375,16.5 L150.375,29 L151.825,29 L151.825,22.625 C151.825,19.225 153.75,17.525 155.8,17.525 C156.075,17.525 156.525,17.55 156.8,17.625 L156.8,16.275 Z M169.35,25.45 C168.75,28.1 166.625,29.3 164.425,29.3 C160.975,29.3 158.6,26.825 158.6,22.825 C158.6,18.75 161.05,16.2 164.275,16.2 C167.875,16.2 169.425,19.15 169.425,22.3 L169.425,23 L160.025,23 C160.075,26.25 161.8,28.025 164.425,28.025 C166.275,28.025 167.375,27.125 167.975,25.45 L169.35,25.45 Z M164.275,17.475 C162.175,17.475 160.425,18.85 160.075,21.8 L167.975,21.8 C167.875,19.325 166.725,17.475 164.275,17.475 Z M172.125,25.35 C172.325,28 174.5,29.3 177.325,29.3 C180.05,29.3 182,27.675 182,25.6 C182,23.6 180.8,22.725 178.85,22.3 L176.35,21.8 C174.8,21.5 174,21 174,19.8 C174,18.4 175.175,17.425 177.05,17.425 C178.975,17.425 180.15,18.225 180.325,19.675 L181.7,19.675 C181.45,17.35 179.75,16.2 177.05,16.2 C174.4,16.2 172.65,17.85 172.65,19.825 C172.65,21.975 174.075,22.7 176.075,23.1 L178.275,23.55 C180,23.9 180.625,24.625 180.625,25.625 C180.625,27.15 179.25,28.075 177.325,28.075 C175.45,28.075 173.7,27.3 173.525,25.35 L172.125,25.35 Z" id="IntVentures" fill="#112E47"></path>
                <g id="logomark" transform="translate(22.460108, 21.030864) rotate(60.000000) translate(-22.460108, -21.030864) translate(8.960108, 3.030864)" stroke-width="3">
                    <polyline id="bottom-link" stroke="#2762A7" transform="translate(18.000000, 22.000000) rotate(-180.000000) translate(-18.000000, -22.000000) " points="14 36 9 36 9 8 27 8 27 36 22 36"></polyline>
                    <polyline id="top-link" stroke="#32EAFF" points="5 28 0 28 0 0 18 0 18 28 13 28"></polyline>
                </g>
            </g>
        </g>
    </g>
</svg>