<?xml version="1.0" encoding="UTF-8"?>
<svg width="272px" height="112px" viewBox="0 0 272 112" version="1.1" xmlns="http://www.w3.org/2000/svg" xmlns:xlink="http://www.w3.org/1999/xlink">
    <!-- Generator: Sketch 47.1 (45422) - http://www.bohemiancoding.com/sketch -->
    <title>mobile-hero-02</title>
    <desc>Created with Sketch.</desc>
    <defs>
        <path d="M6.5039942,14.1945558 L17.5557218,3.99535774 C17.7310031,3.82413522 17.9834907,3.78168537 18.1928917,3.88868022 C21.5831499,5.65626956 24.2261167,8.16161238 26.121792,11.3985715 C28.038987,14.7316096 29.0971758,18.8944032 29.2963582,23.843634 C29.3047992,24.0530432 29.2226335,24.2471353 29.0759986,24.3640589 L16.4089373,33.7885842 C16.5263323,29.3869878 15.6769354,25.5566718 13.8607468,22.3489987 C12.1704133,19.414024 9.75201239,17.0036621 6.60554416,15.1286085 C6.32943299,14.9670628 6.23024094,14.6152539 6.38399476,14.3419409 C6.41530371,14.2862267 6.45587267,14.2363998 6.5039942,14.1945558 Z" id="path-1"></path>
        <path d="M6.5039942,14.1945558 L17.5557218,3.99535774 C17.7310031,3.82413522 17.9834907,3.78168537 18.1928917,3.88868022 C21.5831499,5.65626956 24.2261167,8.16161238 26.121792,11.3985715 C28.038987,14.7316096 29.0971758,18.8944032 29.2963582,23.843634 C29.3047992,24.0530432 29.2226335,24.2471353 29.0759986,24.3640589 L16.4089373,33.7885842 C16.5263323,29.3869878 15.6769354,25.5566718 13.8607468,22.3489987 C12.1704133,19.414024 9.75201239,17.0036621 6.60554416,15.1286085 C6.32943299,14.9670628 6.23024094,14.6152539 6.38399476,14.3419409 C6.41530371,14.2862267 6.45587267,14.2363998 6.5039942,14.1945558 Z" id="path-2"></path>
        <path d="M0.385222689,14.4900946 L34.6876749,0.0881532126 L34.6876804,0.0881664189 C34.9932073,-0.0401095404 35.3448739,0.103580706 35.4731499,0.409107567 C35.4948587,0.460813487 35.5092114,0.51530758 35.5157889,0.570998797 C36.1742909,6.14650337 37.9972506,10.5683292 40.984668,13.8364763 C43.8657289,16.9882725 48.2338432,19.509073 54.0890109,21.3988776 L54.0890279,21.3988249 C54.4044091,21.5006169 54.5775574,21.8388025 54.4757655,22.1541837 C54.4229837,22.3177171 54.3026237,22.4507743 54.1451853,22.5196381 C35.4093711,30.7147096 24.4011937,35.3016292 21.1206532,36.280397 C16.0714682,37.7868499 11.0222832,34.2717932 6.47801672,28.7481328 C3.53764927,25.1740485 1.39001709,20.6538961 0.0351201736,15.1876755 L0.0351093535,15.1876782 C-0.0360370087,14.900644 0.112559545,14.6045727 0.385222689,14.4900946 Z" id="path-3"></path>
        <path d="M26.5978836,26.5219189 L60.5090664,12.0099256 C61.1797713,12.8141761 61.4216212,13.9818078 61.2346159,15.5128205 C61.0476107,17.0438333 60.261474,18.6160186 58.8762058,20.2293766 C34.0107802,30.7629766 21.4107402,36.0297767 21.0760857,36.0297767 C20.5741041,36.0297767 24.5899571,33.0272953 25.5939204,31.025641 C26.2632292,29.6912049 26.5978836,28.1899642 26.5978836,26.5219189 Z" id="path-4"></path>
        <path d="M0.200471109,20.4003 L24.8843822,0.122495602 L24.8843943,0.12251036 C25.0534124,-0.0163378458 25.2894996,-0.0395038584 25.482283,0.06384262 C32.5701451,3.86347151 38.0033974,8.89879138 41.7820398,15.1698022 C45.5790384,21.4712769 47.4964718,29.2284317 47.5343398,38.4412666 L47.5343122,38.4412667 C47.5350304,38.6159816 47.4511689,38.7802463 47.3092374,38.8821347 L20.9646062,57.7941743 L20.9646131,57.7941839 C20.7223365,57.9681072 20.3849399,57.9126959 20.2110166,57.6704193 C20.1403224,57.5719417 20.1048194,57.4525416 20.1102219,57.331437 C20.474897,49.156818 18.9629933,42.1043884 15.574511,36.1741482 C12.145736,30.1733911 7.0450373,25.2102433 0.272414827,21.2847048 L0.272445337,21.2846522 C0.0144502313,21.1351134 -0.0734709901,20.8047419 0.0760677927,20.5467468 C0.108445916,20.4908857 0.150580779,20.4412848 0.200471109,20.4003 Z" id="path-5"></path>
    </defs>
    <g id="assets" stroke="none" stroke-width="1" fill="none" fill-rule="evenodd">
        <g id="mobile-hero-02">
            <g id="mobile-illsutration" transform="translate(-11.000000, 0.000000)">
                <g id="moneyeuro-copy-2" transform="translate(24.171814, 35.457114) rotate(336.000000) translate(-24.171814, -35.457114) translate(6.171814, 16.457114)">
                    <g id="paper-02-copy" transform="translate(17.804278, 18.809413) rotate(-31.000000) translate(-17.804278, -18.809413) ">
                        <use fill="#FFFFFF" fill-rule="evenodd" xlink:href="#path-1"></use>
                        <path stroke="#112E47" stroke-width="1.19999993" d="M6.92628799,14.6212943 C10.1494146,16.5448237 12.6386934,19.0248888 14.3828643,22.0533751 C16.0831996,25.0564332 16.9615958,28.5825368 17.0168445,32.5884701 L28.7005938,23.895934 C28.6944242,23.9001105 28.6977671,23.8906734 28.6968436,23.8677616 C28.501073,19.0033093 27.464527,14.9362635 25.604044,11.7017826 C23.7714516,8.57254064 21.2233427,6.15343037 17.9563929,4.44205102 L6.92628799,14.6212943 Z"></path>
                    </g>
                    <path d="M20.243979,17.1492939 L18.8021938,17.1492939 C18.8106008,17.3936666 18.8477309,17.6008186 18.9135854,17.770756 C18.9794398,17.9406934 19.0691126,18.0776244 19.1826065,18.1815531 C19.2961004,18.2854817 19.4313102,18.3606182 19.5882399,18.4069648 C19.7451697,18.4533113 19.9203119,18.4764843 20.1136719,18.4764843 C20.2621947,18.4764843 20.4058113,18.4659511 20.544526,18.4448845 C20.6832407,18.4238179 20.8156483,18.3894096 20.9417525,18.3416586 L21.0762631,19.2980783 C20.9109264,19.3374027 20.7385864,19.3682999 20.5592381,19.390771 C20.3798898,19.413242 20.1977419,19.4244774 20.0127889,19.4244774 C19.6709062,19.4244774 19.3563508,19.3767271 19.0691132,19.2812251 C18.7818757,19.1857231 18.5324731,19.0431744 18.3208982,18.8535749 C18.1093232,18.6639753 17.9425878,18.4266283 17.820687,18.1415267 C17.6987862,17.8564251 17.6322321,17.5256841 17.6210229,17.1492939 L16.902232,17.1492939 L16.902232,16.525725 L17.6210229,16.525725 L17.6210229,15.9948489 L16.902232,15.9948489 L16.902232,15.3754934 L17.6294298,15.3754934 C17.6518483,15.0047208 17.7275098,14.6788954 17.8564164,14.3980071 C17.985323,14.1171188 18.1569623,13.8818784 18.3713396,13.6922789 C18.5857169,13.5026793 18.8379217,13.3601306 19.1279616,13.2646286 C19.4180015,13.1691266 19.7353592,13.1213763 20.0800442,13.1213763 C20.2509856,13.1213763 20.4184215,13.1333139 20.5823571,13.1571894 C20.7462927,13.1810649 20.9109264,13.2126644 21.0762631,13.2519887 L20.9417525,14.2126218 C20.8212529,14.1732974 20.6909471,14.1409957 20.5508312,14.1157158 C20.4107153,14.0904359 20.2706016,14.0777961 20.1304857,14.0777961 C19.7437659,14.0777961 19.4355155,14.1803188 19.2057255,14.3853672 C18.9759355,14.5904156 18.8442285,14.9204544 18.8106007,15.3754934 L20.243979,15.3754934 L20.243979,15.9948489 L18.8021938,15.9948489 L18.8021938,16.525725 L20.243979,16.525725 L20.243979,17.1492939 Z" id="€" fill="#112E47" transform="translate(18.989248, 16.272927) rotate(24.000000) translate(-18.989248, -16.272927) "></path>
                </g>
                <ellipse id="Oval-6-Copy" stroke="#112E47" stroke-width="1.19999993" fill="#516CFF" cx="82.0046948" cy="45.0024814" rx="3.00469484" ry="3.00248139"></ellipse>
                <g id="money-copy-2" transform="translate(270.990340, 23.758866) rotate(-18.000000) translate(-270.990340, -23.758866) translate(252.990340, 4.758866)">
                    <g id="paper-02-copy" transform="translate(17.804278, 18.809413) rotate(-31.000000) translate(-17.804278, -18.809413) ">
                        <use fill="#FFFFFF" fill-rule="evenodd" xlink:href="#path-2"></use>
                        <path stroke="#112E47" stroke-width="1.19999993" d="M6.89868001,14.6464423 L6.89769757,14.6473224 C6.89802993,14.6470334 6.89835748,14.6467399 6.89868001,14.6464423 Z M6.92628799,14.6212943 C10.1494146,16.5448237 12.6386934,19.0248888 14.3828643,22.0533751 C16.0831996,25.0564332 16.9615958,28.5825368 17.0168445,32.5884701 L28.7005938,23.895934 C28.6944242,23.9001105 28.6977671,23.8906734 28.6968436,23.8677616 C28.501073,19.0033093 27.464527,14.9362635 25.604044,11.7017826 C23.7714516,8.57254064 21.2233427,6.15343037 17.9563929,4.44205102 L6.92628799,14.6212943 Z"></path>
                    </g>
                    <path d="M19.0973077,17.6146223 C19.124663,17.523176 19.1372564,17.43366 19.1350884,17.3457882 C19.1329203,17.2578887 19.1108667,17.1688385 19.0689268,17.0782291 C19.026987,16.9870508 18.9640232,16.8939681 18.8800337,16.7985033 C18.7960442,16.7018365 18.6862579,16.5982187 18.5506716,16.4868999 C18.3858312,16.3473353 18.2337427,16.1924168 18.0944013,16.0221802 C17.95506,15.8487206 17.8410847,15.6621033 17.7524722,15.4630167 C17.6638596,15.2616321 17.6070952,15.0495056 17.5821771,14.8278185 C17.557259,14.6054168 17.5781169,14.3776585 17.6447516,14.1466306 C17.709282,13.9248783 17.8054279,13.7486787 17.9331923,13.6184773 C18.0609566,13.4908254 18.20991,13.4093406 18.380057,13.3732761 C18.5502041,13.3387688 18.735845,13.3479406 18.9369855,13.3993413 C19.138126,13.4503648 19.3446853,13.5402856 19.5566694,13.6673004 C19.7763621,13.7959949 19.965689,13.9442537 20.1246559,14.1116878 C20.2836228,14.2756061 20.4077596,14.4488231 20.49707,14.6321291 C20.5863804,14.8129657 20.6388922,14.9998318 20.6546068,15.1942142 C20.6703215,15.3881024 20.6438098,15.5820657 20.5750709,15.7781388 L19.7830249,15.4380081 C19.8135401,15.3323936 19.8282413,15.2296028 19.8271289,15.1292463 C19.8260165,15.0288727 19.8064178,14.9334065 19.7683322,14.8424767 C19.7302466,14.7510395 19.6731492,14.665301 19.5970382,14.5850199 C19.5209272,14.503913 19.4240958,14.4315134 19.3065409,14.3677956 C19.1986217,14.3085465 19.098014,14.270012 19.0047148,14.2526786 C18.9114155,14.2352737 18.8272679,14.237399 18.7522693,14.2593586 C18.6772707,14.2816525 18.6130884,14.322369 18.5597204,14.3816247 C18.5063524,14.4413682 18.4659914,14.5162115 18.4386361,14.6060534 C18.409878,14.70088 18.4036787,14.7973938 18.4200381,14.8951443 C18.4363974,14.9926777 18.4728618,15.0916018 18.5294322,15.1915161 C18.5860027,15.2906749 18.660049,15.3916473 18.7515735,15.4940524 C18.843098,15.5951899 18.9496446,15.6980516 19.0712167,15.8022602 C19.2435885,15.9522126 19.3959817,16.1065048 19.528401,16.2655505 C19.6608203,16.4214424 19.7651583,16.5828029 19.841418,16.7505095 C19.9176778,16.9162261 19.9623094,17.0890366 19.975314,17.2701646 C19.9883186,17.4509268 19.9632575,17.6405594 19.9001299,17.8407406 C19.8327939,18.0563224 19.7359022,18.2405716 19.6094522,18.3937852 C19.4830021,18.5495089 19.3361954,18.6740983 19.1690277,18.7667754 C19.0018599,18.8609199 18.8184099,18.9199864 18.6186723,18.9424968 C18.4189346,18.9645017 18.2121132,18.9479428 17.9982019,18.8910719 C17.8652301,18.8542903 17.7371257,18.8001728 17.6138851,18.7284043 C17.4906445,18.6551219 17.3779216,18.5641775 17.2757129,18.4554772 C17.1735042,18.3451418 17.0840464,18.2185385 17.0073367,18.0757823 C16.930627,17.9315496 16.8724491,17.7736672 16.8328012,17.6025902 C16.7931534,17.4306495 16.7747963,17.2459024 16.7777294,17.0490446 C16.7806626,16.8522582 16.8101854,16.6468633 16.8662988,16.4339051 L17.6641261,16.7922934 C17.6216868,16.9619814 17.604219,17.115639 17.6117221,17.252473 C17.6192252,17.3891725 17.6485887,17.5098421 17.6998135,17.614036 C17.7510383,17.7174961 17.8223268,17.8048074 17.9136812,17.8757783 C18.0050356,17.9457566 18.1114158,18.0003756 18.2328249,18.0396963 C18.3407441,18.073881 18.4411765,18.0875444 18.534125,18.0811635 C18.6270735,18.0746962 18.7105198,18.0520928 18.7844663,18.0136372 C18.8584127,17.9754749 18.9222001,17.9222014 18.9758302,17.8539476 C19.0294603,17.7861632 19.0699524,17.7064188 19.0973077,17.6146223 Z" id="S" stroke="#112E47" stroke-width="0.599999964" fill="#112E47"></path>
                    <g id="moneysuff" transform="translate(16.583977, 12.037221)" stroke="#112E47" stroke-width="1.19999993">
                        <path d="M2.85930638,1.41036154 L3.30633504,0.157503974" id="Path-19"></path>
                        <path d="M0.571861275,7.71557246 L1.01888994,6.46271489" id="Path-19-Copy"></path>
                    </g>
                </g>
                <ellipse id="Oval-6-Copy-2" stroke="#112E47" stroke-width="1.19999993" fill="#ACFAFF" cx="219.144623" cy="64.4916871" rx="3.00469484" ry="3.00248139"></ellipse>
                <ellipse id="Oval-6-Copy-3" stroke="#112E47" stroke-width="1.19999993" fill="#ACFAFF" cx="127.004695" cy="96.0024814" rx="3.00469484" ry="3.00248139"></ellipse>
                <g id="paper-01-copy" transform="translate(24.000000, 75.000000)">
                    <g id="Rectangle-10">
                        <use fill="#FFFFFF" fill-rule="evenodd" xlink:href="#path-3"></use>
                        <path stroke="#112E47" stroke-width="1.19999993" d="M0.617492404,15.0433132 L0.617496719,15.0433235 C1.95184456,20.4266405 4.06097665,24.8657612 6.94136538,28.36694 C11.8701771,34.358024 16.5901311,37.0059683 20.949112,35.7054417 C24.1943115,34.7372181 35.2032639,30.1499756 53.9047395,21.9699238 L53.90477,21.9698901 L53.9047173,21.9698731 C47.9577366,20.050435 43.5008665,17.4784144 40.54181,14.2412933 C37.4636842,10.8739138 35.5923552,6.33476195 34.9199304,0.641373418 L34.9199446,0.641371738 L0.617492404,15.0433132 Z"></path>
                    </g>
                    <g id="Rectangle">
                        <use fill="#FFFFFF" fill-rule="evenodd" xlink:href="#path-4"></use>
                        <path stroke="#112E47" stroke-width="1.19999993" d="M27.1917172,26.9204247 C27.1417805,28.5222297 26.7885015,29.9822309 26.1302401,31.2946412 C25.8681345,31.817215 25.4328257,32.398582 24.838605,33.0547396 C24.5448693,33.3790921 24.2157848,33.7177434 23.8450437,34.0806067 C23.7057407,34.2169496 23.5647528,34.3527314 23.4147314,34.4951867 C28.3085659,32.4805527 40.6672826,27.2912775 58.511301,19.7323413 C59.7680742,18.2409338 60.4717509,16.8096896 60.6390423,15.4400743 C60.779494,14.2901961 60.6584961,13.400987 60.2954236,12.7539838 L27.1917172,26.9204247 Z"></path>
                    </g>
                </g>
                <g id="logo-paper" transform="translate(162.000000, 29.000000) scale(-1, -1) translate(-162.000000, -29.000000) translate(138.000000, 0.000000)">
                    <g id="Group-9">
                        <g id="paper-02-copy">
                            <use fill="#FFFFFF" fill-rule="evenodd" xlink:href="#path-5"></use>
                            <path stroke="#112E47" stroke-width="1.07999991" d="M0.543247875,20.8175577 L0.543261893,20.8175412 L0.543209255,20.8175107 C7.39576018,24.7893772 12.5656759,29.8198754 16.04337,35.9062467 C19.485151,41.9297658 21.0187164,49.083239 20.6496854,57.3555028 L46.9943283,38.4434637 L46.9943444,38.4434861 C46.9568563,29.3230769 45.0629394,21.6610602 41.3195163,15.4484991 C37.5923034,9.2628403 32.231416,4.29458528 25.2271499,0.539770195 L25.2271589,0.539753362 L0.543247875,20.8175577 Z"></path>
                        </g>
                    </g>
                    <g id="logomark" transform="translate(28.129165, 25.580127) rotate(-90.000000) translate(-28.129165, -25.580127) translate(23.129165, 19.080127)" stroke-width="1.07999998">
                        <polyline id="Path-13" stroke="#32EAFF" points="1.85185185 10.1111111 0 10.1111111 0 0 6.66666667 0 6.66666667 10.1111111 4.81481481 10.1111111"></polyline>
                        <polyline id="Path-13-Copy" stroke="#2762A7" transform="translate(6.666667, 7.944444) rotate(-180.000000) translate(-6.666667, -7.944444) " points="5.18518519 13 3.33333333 13 3.33333333 2.88888889 10 2.88888889 10 13 8.14814815 13"></polyline>
                    </g>
                </g>
            </g>
        </g>
    </g>
</svg>