<?xml version="1.0" encoding="UTF-8"?>
<svg width="266px" height="98px" viewBox="0 0 266 98" version="1.1" xmlns="http://www.w3.org/2000/svg" xmlns:xlink="http://www.w3.org/1999/xlink">
    <!-- Generator: Sketch 47.1 (45422) - http://www.bohemiancoding.com/sketch -->
    <title>mobile-hero-01@2x</title>
    <desc>Created with Sketch.</desc>
    <defs>
        <path d="M6.5039942,14.1945558 L17.5557218,3.99535774 C17.7310031,3.82413522 17.9834907,3.78168537 18.1928917,3.88868022 C21.5831499,5.65626956 24.2261167,8.16161238 26.121792,11.3985715 C28.038987,14.7316096 29.0971758,18.8944032 29.2963582,23.843634 C29.3047992,24.0530432 29.2226335,24.2471353 29.0759986,24.3640589 L16.4089373,33.7885842 C16.5263323,29.3869878 15.6769354,25.5566718 13.8607468,22.3489987 C12.1704133,19.414024 9.75201239,17.0036621 6.60554416,15.1286085 C6.32943299,14.9670628 6.23024094,14.6152539 6.38399476,14.3419409 C6.41530371,14.2862267 6.45587267,14.2363998 6.5039942,14.1945558 Z" id="path-1"></path>
        <path d="M6.5039942,14.1945558 L17.5557218,3.99535774 C17.7310031,3.82413522 17.9834907,3.78168537 18.1928917,3.88868022 C21.5831499,5.65626956 24.2261167,8.16161238 26.121792,11.3985715 C28.038987,14.7316096 29.0971758,18.8944032 29.2963582,23.843634 C29.3047992,24.0530432 29.2226335,24.2471353 29.0759986,24.3640589 L16.4089373,33.7885842 C16.5263323,29.3869878 15.6769354,25.5566718 13.8607468,22.3489987 C12.1704133,19.414024 9.75201239,17.0036621 6.60554416,15.1286085 C6.32943299,14.9670628 6.23024094,14.6152539 6.38399476,14.3419409 C6.41530371,14.2862267 6.45587267,14.2363998 6.5039942,14.1945558 Z" id="path-2"></path>
        <path d="M6.5039942,14.1945558 L17.5557218,3.99535774 C17.7310031,3.82413522 17.9834907,3.78168537 18.1928917,3.88868022 C21.5831499,5.65626956 24.2261167,8.16161238 26.121792,11.3985715 C28.038987,14.7316096 29.0971758,18.8944032 29.2963582,23.843634 C29.3047992,24.0530432 29.2226335,24.2471353 29.0759986,24.3640589 L16.4089373,33.7885842 C16.5263323,29.3869878 15.6769354,25.5566718 13.8607468,22.3489987 C12.1704133,19.414024 9.75201239,17.0036621 6.60554416,15.1286085 C6.32943299,14.9670628 6.23024094,14.6152539 6.38399476,14.3419409 C6.41530371,14.2862267 6.45587267,14.2363998 6.5039942,14.1945558 Z" id="path-3"></path>
        <path d="M2.32190684,23.4802681 L28.6424986,1.8314294 L28.6424993,1.83143029 C28.8304477,1.67684168 29.0931565,1.65109021 29.3075454,1.76624056 C36.8690896,5.82761816 42.6660379,11.2084415 46.6983903,17.9087105 C50.7512799,24.6431047 52.7987264,32.9325723 52.8407296,42.7771133 L52.8407745,42.7771131 C52.8416025,42.9711753 52.7485259,43.153656 52.5909431,43.2669187 L24.5086474,63.4510867 L24.5086758,63.4511262 C24.2395759,63.644542 23.8646328,63.5831878 23.6712171,63.3140879 C23.5926327,63.2047532 23.5531048,63.0721653 23.5589906,62.9376479 C23.9405175,54.2179566 22.3253928,46.6937215 18.7136164,40.3649427 C15.0570081,33.9576066 9.6196632,28.6567644 2.40158181,24.4624162 L2.4015922,24.4623983 C2.11509149,24.2959159 2.01779745,23.9287005 2.18427989,23.6421998 C2.22015438,23.5804631 2.26676099,23.5256258 2.32190684,23.4802681 Z" id="path-4"></path>
    </defs>
    <g id="assets" stroke="none" stroke-width="1" fill="none" fill-rule="evenodd">
        <g id="intventures">
            <g id="mobile-hero-01" transform="translate(-11.000000, -12.000000)">
                <ellipse id="Oval-6" stroke="#112E47" stroke-width="1.19999993" fill="#516CFF" cx="168.008473" cy="85.752233" rx="3.00469484" ry="3.00248139"></ellipse>
                <g id="money-copy-4" transform="translate(264.990340, 24.464089) rotate(-18.000000) translate(-264.990340, -24.464089) translate(246.990340, 5.464089)">
                    <g id="paper-02-copy" transform="translate(17.804278, 18.809413) rotate(-31.000000) translate(-17.804278, -18.809413) ">
                        <use fill="#FFFFFF" fill-rule="evenodd" xlink:href="#path-1"></use>
                        <path stroke="#112E47" stroke-width="1.19999993" d="M6.89868001,14.6464423 L6.89769757,14.6473224 C6.89802993,14.6470334 6.89835748,14.6467399 6.89868001,14.6464423 Z M6.92628799,14.6212943 C10.1494146,16.5448237 12.6386934,19.0248888 14.3828643,22.0533751 C16.0831996,25.0564332 16.9615958,28.5825368 17.0168445,32.5884701 L28.7005938,23.895934 C28.6944242,23.9001105 28.6977671,23.8906734 28.6968436,23.8677616 C28.501073,19.0033093 27.464527,14.9362635 25.604044,11.7017826 C23.7714516,8.57254064 21.2233427,6.15343037 17.9563929,4.44205102 L6.92628799,14.6212943 Z"></path>
                    </g>
                    <path d="M19.0973077,17.6146223 C19.124663,17.523176 19.1372564,17.43366 19.1350884,17.3457882 C19.1329203,17.2578887 19.1108667,17.1688385 19.0689268,17.0782291 C19.026987,16.9870508 18.9640232,16.8939681 18.8800337,16.7985033 C18.7960442,16.7018365 18.6862579,16.5982187 18.5506716,16.4868999 C18.3858312,16.3473353 18.2337427,16.1924168 18.0944013,16.0221802 C17.95506,15.8487206 17.8410847,15.6621033 17.7524722,15.4630167 C17.6638596,15.2616321 17.6070952,15.0495056 17.5821771,14.8278185 C17.557259,14.6054168 17.5781169,14.3776585 17.6447516,14.1466306 C17.709282,13.9248783 17.8054279,13.7486787 17.9331923,13.6184773 C18.0609566,13.4908254 18.20991,13.4093406 18.380057,13.3732761 C18.5502041,13.3387688 18.735845,13.3479406 18.9369855,13.3993413 C19.138126,13.4503648 19.3446853,13.5402856 19.5566694,13.6673004 C19.7763621,13.7959949 19.965689,13.9442537 20.1246559,14.1116878 C20.2836228,14.2756061 20.4077596,14.4488231 20.49707,14.6321291 C20.5863804,14.8129657 20.6388922,14.9998318 20.6546068,15.1942142 C20.6703215,15.3881024 20.6438098,15.5820657 20.5750709,15.7781388 L19.7830249,15.4380081 C19.8135401,15.3323936 19.8282413,15.2296028 19.8271289,15.1292463 C19.8260165,15.0288727 19.8064178,14.9334065 19.7683322,14.8424767 C19.7302466,14.7510395 19.6731492,14.665301 19.5970382,14.5850199 C19.5209272,14.503913 19.4240958,14.4315134 19.3065409,14.3677956 C19.1986217,14.3085465 19.098014,14.270012 19.0047148,14.2526786 C18.9114155,14.2352737 18.8272679,14.237399 18.7522693,14.2593586 C18.6772707,14.2816525 18.6130884,14.322369 18.5597204,14.3816247 C18.5063524,14.4413682 18.4659914,14.5162115 18.4386361,14.6060534 C18.409878,14.70088 18.4036787,14.7973938 18.4200381,14.8951443 C18.4363974,14.9926777 18.4728618,15.0916018 18.5294322,15.1915161 C18.5860027,15.2906749 18.660049,15.3916473 18.7515735,15.4940524 C18.843098,15.5951899 18.9496446,15.6980516 19.0712167,15.8022602 C19.2435885,15.9522126 19.3959817,16.1065048 19.528401,16.2655505 C19.6608203,16.4214424 19.7651583,16.5828029 19.841418,16.7505095 C19.9176778,16.9162261 19.9623094,17.0890366 19.975314,17.2701646 C19.9883186,17.4509268 19.9632575,17.6405594 19.9001299,17.8407406 C19.8327939,18.0563224 19.7359022,18.2405716 19.6094522,18.3937852 C19.4830021,18.5495089 19.3361954,18.6740983 19.1690277,18.7667754 C19.0018599,18.8609199 18.8184099,18.9199864 18.6186723,18.9424968 C18.4189346,18.9645017 18.2121132,18.9479428 17.9982019,18.8910719 C17.8652301,18.8542903 17.7371257,18.8001728 17.6138851,18.7284043 C17.4906445,18.6551219 17.3779216,18.5641775 17.2757129,18.4554772 C17.1735042,18.3451418 17.0840464,18.2185385 17.0073367,18.0757823 C16.930627,17.9315496 16.8724491,17.7736672 16.8328012,17.6025902 C16.7931534,17.4306495 16.7747963,17.2459024 16.7777294,17.0490446 C16.7806626,16.8522582 16.8101854,16.6468633 16.8662988,16.4339051 L17.6641261,16.7922934 C17.6216868,16.9619814 17.604219,17.115639 17.6117221,17.252473 C17.6192252,17.3891725 17.6485887,17.5098421 17.6998135,17.614036 C17.7510383,17.7174961 17.8223268,17.8048074 17.9136812,17.8757783 C18.0050356,17.9457566 18.1114158,18.0003756 18.2328249,18.0396963 C18.3407441,18.073881 18.4411765,18.0875444 18.534125,18.0811635 C18.6270735,18.0746962 18.7105198,18.0520928 18.7844663,18.0136372 C18.8584127,17.9754749 18.9222001,17.9222014 18.9758302,17.8539476 C19.0294603,17.7861632 19.0699524,17.7064188 19.0973077,17.6146223 Z" id="S" stroke="#112E47" stroke-width="0.599999964" fill="#112E47"></path>
                    <g id="moneysuff" transform="translate(16.583977, 12.037221)" stroke="#112E47" stroke-width="1.19999993">
                        <path d="M2.85930638,1.41036154 L3.30633504,0.157503974" id="Path-19"></path>
                        <path d="M0.571861275,7.71557246 L1.01888994,6.46271489" id="Path-19-Copy"></path>
                    </g>
                </g>
                <g id="money-copy-3" transform="translate(22.990340, 98.464089) rotate(-18.000000) translate(-22.990340, -98.464089) translate(4.990340, 79.464089)">
                    <g id="paper-02-copy" transform="translate(17.804278, 18.809413) rotate(-31.000000) translate(-17.804278, -18.809413) ">
                        <use fill="#FFFFFF" fill-rule="evenodd" xlink:href="#path-2"></use>
                        <path stroke="#112E47" stroke-width="1.19999993" d="M6.89868001,14.6464423 L6.89769757,14.6473224 C6.89802993,14.6470334 6.89835748,14.6467399 6.89868001,14.6464423 Z M6.92628799,14.6212943 C10.1494146,16.5448237 12.6386934,19.0248888 14.3828643,22.0533751 C16.0831996,25.0564332 16.9615958,28.5825368 17.0168445,32.5884701 L28.7005938,23.895934 C28.6944242,23.9001105 28.6977671,23.8906734 28.6968436,23.8677616 C28.501073,19.0033093 27.464527,14.9362635 25.604044,11.7017826 C23.7714516,8.57254064 21.2233427,6.15343037 17.9563929,4.44205102 L6.92628799,14.6212943 Z"></path>
                    </g>
                    <path d="M19.0973077,17.6146223 C19.124663,17.523176 19.1372564,17.43366 19.1350884,17.3457882 C19.1329203,17.2578887 19.1108667,17.1688385 19.0689268,17.0782291 C19.026987,16.9870508 18.9640232,16.8939681 18.8800337,16.7985033 C18.7960442,16.7018365 18.6862579,16.5982187 18.5506716,16.4868999 C18.3858312,16.3473353 18.2337427,16.1924168 18.0944013,16.0221802 C17.95506,15.8487206 17.8410847,15.6621033 17.7524722,15.4630167 C17.6638596,15.2616321 17.6070952,15.0495056 17.5821771,14.8278185 C17.557259,14.6054168 17.5781169,14.3776585 17.6447516,14.1466306 C17.709282,13.9248783 17.8054279,13.7486787 17.9331923,13.6184773 C18.0609566,13.4908254 18.20991,13.4093406 18.380057,13.3732761 C18.5502041,13.3387688 18.735845,13.3479406 18.9369855,13.3993413 C19.138126,13.4503648 19.3446853,13.5402856 19.5566694,13.6673004 C19.7763621,13.7959949 19.965689,13.9442537 20.1246559,14.1116878 C20.2836228,14.2756061 20.4077596,14.4488231 20.49707,14.6321291 C20.5863804,14.8129657 20.6388922,14.9998318 20.6546068,15.1942142 C20.6703215,15.3881024 20.6438098,15.5820657 20.5750709,15.7781388 L19.7830249,15.4380081 C19.8135401,15.3323936 19.8282413,15.2296028 19.8271289,15.1292463 C19.8260165,15.0288727 19.8064178,14.9334065 19.7683322,14.8424767 C19.7302466,14.7510395 19.6731492,14.665301 19.5970382,14.5850199 C19.5209272,14.503913 19.4240958,14.4315134 19.3065409,14.3677956 C19.1986217,14.3085465 19.098014,14.270012 19.0047148,14.2526786 C18.9114155,14.2352737 18.8272679,14.237399 18.7522693,14.2593586 C18.6772707,14.2816525 18.6130884,14.322369 18.5597204,14.3816247 C18.5063524,14.4413682 18.4659914,14.5162115 18.4386361,14.6060534 C18.409878,14.70088 18.4036787,14.7973938 18.4200381,14.8951443 C18.4363974,14.9926777 18.4728618,15.0916018 18.5294322,15.1915161 C18.5860027,15.2906749 18.660049,15.3916473 18.7515735,15.4940524 C18.843098,15.5951899 18.9496446,15.6980516 19.0712167,15.8022602 C19.2435885,15.9522126 19.3959817,16.1065048 19.528401,16.2655505 C19.6608203,16.4214424 19.7651583,16.5828029 19.841418,16.7505095 C19.9176778,16.9162261 19.9623094,17.0890366 19.975314,17.2701646 C19.9883186,17.4509268 19.9632575,17.6405594 19.9001299,17.8407406 C19.8327939,18.0563224 19.7359022,18.2405716 19.6094522,18.3937852 C19.4830021,18.5495089 19.3361954,18.6740983 19.1690277,18.7667754 C19.0018599,18.8609199 18.8184099,18.9199864 18.6186723,18.9424968 C18.4189346,18.9645017 18.2121132,18.9479428 17.9982019,18.8910719 C17.8652301,18.8542903 17.7371257,18.8001728 17.6138851,18.7284043 C17.4906445,18.6551219 17.3779216,18.5641775 17.2757129,18.4554772 C17.1735042,18.3451418 17.0840464,18.2185385 17.0073367,18.0757823 C16.930627,17.9315496 16.8724491,17.7736672 16.8328012,17.6025902 C16.7931534,17.4306495 16.7747963,17.2459024 16.7777294,17.0490446 C16.7806626,16.8522582 16.8101854,16.6468633 16.8662988,16.4339051 L17.6641261,16.7922934 C17.6216868,16.9619814 17.604219,17.115639 17.6117221,17.252473 C17.6192252,17.3891725 17.6485887,17.5098421 17.6998135,17.614036 C17.7510383,17.7174961 17.8223268,17.8048074 17.9136812,17.8757783 C18.0050356,17.9457566 18.1114158,18.0003756 18.2328249,18.0396963 C18.3407441,18.073881 18.4411765,18.0875444 18.534125,18.0811635 C18.6270735,18.0746962 18.7105198,18.0520928 18.7844663,18.0136372 C18.8584127,17.9754749 18.9222001,17.9222014 18.9758302,17.8539476 C19.0294603,17.7861632 19.0699524,17.7064188 19.0973077,17.6146223 Z" id="S" stroke="#112E47" stroke-width="0.599999964" fill="#112E47"></path>
                    <g id="moneysuff" transform="translate(16.583977, 12.037221)" stroke="#112E47" stroke-width="1.19999993">
                        <path d="M2.85930638,1.41036154 L3.30633504,0.157503974" id="Path-19"></path>
                        <path d="M0.571861275,7.71557246 L1.01888994,6.46271489" id="Path-19-Copy"></path>
                    </g>
                </g>
                <g id="moneyeuro-copy" transform="translate(224.122335, 73.800274) rotate(317.000000) translate(-224.122335, -73.800274) translate(206.122335, 54.800274)">
                    <g id="paper-02-copy" transform="translate(17.804278, 18.809413) rotate(-31.000000) translate(-17.804278, -18.809413) ">
                        <use fill="#FFFFFF" fill-rule="evenodd" xlink:href="#path-3"></use>
                        <path stroke="#112E47" stroke-width="1.19999993" d="M6.89868001,14.6464423 L6.89769757,14.6473224 C6.89802993,14.6470334 6.89835748,14.6467399 6.89868001,14.6464423 Z M6.92628799,14.6212943 C10.1494146,16.5448237 12.6386934,19.0248888 14.3828643,22.0533751 C16.0831996,25.0564332 16.9615958,28.5825368 17.0168445,32.5884701 L28.7005938,23.895934 C28.6944242,23.9001105 28.6977671,23.8906734 28.6968436,23.8677616 C28.501073,19.0033093 27.464527,14.9362635 25.604044,11.7017826 C23.7714516,8.57254064 21.2233427,6.15343037 17.9563929,4.44205102 L6.92628799,14.6212943 Z"></path>
                    </g>
                    <path d="M20.243979,17.1492939 L18.8021938,17.1492939 C18.8106008,17.3936666 18.8477309,17.6008186 18.9135854,17.770756 C18.9794398,17.9406934 19.0691126,18.0776244 19.1826065,18.1815531 C19.2961004,18.2854817 19.4313102,18.3606182 19.5882399,18.4069648 C19.7451697,18.4533113 19.9203119,18.4764843 20.1136719,18.4764843 C20.2621947,18.4764843 20.4058113,18.4659511 20.544526,18.4448845 C20.6832407,18.4238179 20.8156483,18.3894096 20.9417525,18.3416586 L21.0762631,19.2980783 C20.9109264,19.3374027 20.7385864,19.3682999 20.5592381,19.390771 C20.3798898,19.413242 20.1977419,19.4244774 20.0127889,19.4244774 C19.6709062,19.4244774 19.3563508,19.3767271 19.0691132,19.2812251 C18.7818757,19.1857231 18.5324731,19.0431744 18.3208982,18.8535749 C18.1093232,18.6639753 17.9425878,18.4266283 17.820687,18.1415267 C17.6987862,17.8564251 17.6322321,17.5256841 17.6210229,17.1492939 L16.902232,17.1492939 L16.902232,16.525725 L17.6210229,16.525725 L17.6210229,15.9948489 L16.902232,15.9948489 L16.902232,15.3754934 L17.6294298,15.3754934 C17.6518483,15.0047208 17.7275098,14.6788954 17.8564164,14.3980071 C17.985323,14.1171188 18.1569623,13.8818784 18.3713396,13.6922789 C18.5857169,13.5026793 18.8379217,13.3601306 19.1279616,13.2646286 C19.4180015,13.1691266 19.7353592,13.1213763 20.0800442,13.1213763 C20.2509856,13.1213763 20.4184215,13.1333139 20.5823571,13.1571894 C20.7462927,13.1810649 20.9109264,13.2126644 21.0762631,13.2519887 L20.9417525,14.2126218 C20.8212529,14.1732974 20.6909471,14.1409957 20.5508312,14.1157158 C20.4107153,14.0904359 20.2706016,14.0777961 20.1304857,14.0777961 C19.7437659,14.0777961 19.4355155,14.1803188 19.2057255,14.3853672 C18.9759355,14.5904156 18.8442285,14.9204544 18.8106007,15.3754934 L20.243979,15.3754934 L20.243979,15.9948489 L18.8021938,15.9948489 L18.8021938,16.525725 L20.243979,16.525725 L20.243979,17.1492939 Z" id="€" fill="#112E47" transform="translate(18.989248, 16.272927) rotate(24.000000) translate(-18.989248, -16.272927) "></path>
                </g>
                <g id="sign-here" transform="translate(92.020662, 63.837917) scale(-1, 1) rotate(4.000000) translate(-92.020662, -63.837917) translate(64.520662, 30.837917)">
                    <g id="close" transform="translate(-0.000000, 0.000000)">
                        <g id="paper-02" transform="translate(27.471869, 32.629394) scale(-1, 1) rotate(4.000000) translate(-27.471869, -32.629394) ">
                            <use fill="#FFFFFF" fill-rule="evenodd" xlink:href="#path-4"></use>
                            <path stroke="#112E47" stroke-width="1.19999993" d="M2.70305319,23.9436533 L2.70303531,23.9436429 C10.0097911,28.1895188 15.523889,33.5651872 19.2347278,40.0675492 C22.9055185,46.4997365 24.5446798,54.1359486 24.158417,62.9638756 L24.1584261,62.9639061 L24.1584656,62.9638777 L52.2407613,42.7797097 L52.2407351,42.7796733 C52.1991695,33.0376892 50.1777976,24.8537893 46.1843077,18.2180954 C42.2090074,11.6126258 36.4923679,6.30634648 29.0236397,2.29482121 L2.70304845,23.9436589 Z"></path>
                        </g>
                        <path d="M8.06259781,40.1911105 L26.4121426,51.3668428" id="Path-20" stroke="#032E49" stroke-width="1.19999993" stroke-linecap="round"></path>
                        <g id="x" transform="translate(25.339593, 43.636063)" stroke="#112E47" stroke-width="1.19999993" stroke-linecap="round">
                            <path d="M0.287949922,2.00955553 L3.49609349,1.14831744" id="Path-21"></path>
                            <path d="M1.78420243,0 L1.78420243,3.15787297" id="Path-21-Copy"></path>
                        </g>
                        <path d="M10.2528185,37.2275303 L10.5299932,37.1750942 L10.5299932,37.1750942 C11.5623042,36.9798007 12.5599024,37.6503938 12.7688011,38.680038 L12.7688011,38.680038 L12.7688011,38.680038 C12.9774155,39.7082817 13.9759525,40.3760984 15.0059298,40.176219 L18.1547603,39.5651507 L18.1547603,39.5651507 C18.7462308,39.4503688 19.3294246,39.7986641 19.5088409,40.3738355 L19.5088409,40.3738355 L19.5088409,40.3738355 C19.717735,41.0435066 19.8239897,41.7409558 19.8239897,42.4424515 L19.8239897,42.8223393 L19.8239897,42.8223393 C19.8239897,43.2315145 20.1556917,43.5632164 20.5648669,43.5632164 C20.7190734,43.5632164 20.8694369,43.5150988 20.994994,43.4255719 L22.1177206,42.6250263 L22.1177206,42.6250263 C22.6702495,42.2310528 22.798784,41.4637609 22.4048104,40.911232 C22.2247912,40.6587637 21.9559744,40.4836925 21.6522749,40.4211316" id="Path-23" stroke="#112E47" stroke-width="0.599999964" stroke-linecap="round" transform="translate(16.443002, 40.352255) scale(-1, 1) rotate(299.000000) translate(-16.443002, -40.352255) "></path>
                    </g>
                </g>
            </g>
        </g>
    </g>
</svg>