<?xml version="1.0" encoding="UTF-8"?>
<svg width="62px" height="62px" viewBox="0 0 62 62" version="1.1" xmlns="http://www.w3.org/2000/svg" xmlns:xlink="http://www.w3.org/1999/xlink" style="background: #FFFFFF;">
    <!-- Generator: Sketch 47.1 (45422) - http://www.bohemiancoding.com/sketch -->
    <title>Artboard 3@2x</title>
    <desc>Created with Sketch.</desc>
    <defs></defs>
    <g id="assets" stroke="none" stroke-width="1" fill="none" fill-rule="evenodd">
        <g id="Artboard-3" fill-rule="nonzero" fill="#112E47">
            <g id="pixel-union">
                <path d="M31.000113,4.29409834 C24.245776,4.29409834 17.7990398,6.82264426 12.847366,11.4143914 C12.7542496,11.5009514 12.700459,11.6216382 12.6984248,11.7486531 C12.6963908,11.875894 12.7465651,11.9983888 12.8369696,12.0876608 L15.7875424,14.9990595 C15.9624749,15.1712755 16.2413724,15.1785076 16.4248933,15.0153319 C20.424609,11.4487442 25.7372222,9.40317137 31.000113,9.40317137 C42.9086295,9.40317137 52.5972668,19.0915612 52.5972668,31 C52.5972668,42.9084388 42.9086295,52.5968287 31.000113,52.5968287 C19.0913705,52.5968287 9.40295927,42.9084388 9.40295927,31 C9.40295927,29.0733058 9.65767366,27.1606242 10.160096,25.3150658 C10.1892513,25.2364159 10.4672449,24.5265337 10.945258,24.5265337 C11.1249367,24.5265337 11.3457493,24.620552 11.5848688,24.798418 L22.8262013,35.6457623 C23.0092701,35.8218204 23.2996942,35.8195603 23.4791468,35.6398864 L23.7817754,35.3372654 L33.724901,24.9346991 C33.7364275,24.9218168 34.036796,24.6006634 34.4119743,24.6006634 C34.6373071,24.6006634 34.8680643,24.7224802 35.0979175,24.9622718 L40.0611177,29.7244269 C40.2862246,29.9558561 40.3990041,30.1927096 40.3949358,30.4379252 C40.3879296,30.8490286 40.0523034,31.17538 40.0489132,31.1785441 C40.0441669,31.1832902 40.0364826,31.1905223 40.0319622,31.1954945 L30.7133052,40.9311195 C30.5480911,41.0940691 30.3781309,41.1813073 30.2172111,41.1813073 C29.9715372,41.1813073 29.7758117,40.9853606 29.7742296,40.9833266 C29.7672232,40.9758684 29.7604429,40.9686363 29.7529847,40.9618562 L28.6197659,39.8779354 C28.4947817,39.7581527 28.3137469,39.7183757 28.1498889,39.7726168 C27.986031,39.8275362 27.8657932,39.9687894 27.8379938,40.1394233 L26.4105087,48.8568951 C26.3860995,49.0062845 26.4358221,49.1586119 26.5440813,49.2646083 C26.6521144,49.3708308 26.8051238,49.4173879 26.9542911,49.3904931 L35.7551572,47.7777202 C35.9266996,47.7463056 36.0663742,47.6217767 36.1172268,47.454985 C36.1676273,47.288193 36.121069,47.1071629 35.9960848,46.9855722 L34.7923507,45.8141872 C34.4205625,45.3275982 34.8680643,44.8724237 34.9627629,44.7851858 C34.9695432,44.7788577 34.9788097,44.7698175 34.98559,44.7630371 L46.8423502,32.4306128 C46.8769298,32.396034 47.8532969,31.4056792 47.810129,30.1409542 C47.7857198,29.425422 47.4496414,28.7813073 46.8120646,28.2262384 L36.3739752,18.2105931 C36.3624486,18.1990668 36.3497919,18.1886706 36.3369094,18.1785003 C35.6335634,17.6336019 34.9105543,17.3574235 34.1875452,17.3574235 C32.9334107,17.3574235 32.1527689,18.1970328 32.1199971,18.2327416 L23.7885558,26.9707798 C23.4915774,27.2955492 23.2074816,27.4566909 22.9378507,27.4566909 C22.5676447,27.4566909 22.2930414,27.154748 22.2905554,27.1518098 C22.2803849,27.1400575 22.2699883,27.1287574 22.2589137,27.1181352 L13.0552962,18.2885649 L9.91939426,15.3999927 C9.82107962,15.3093646 9.68908906,15.2648416 9.55506469,15.2793059 C9.42194429,15.2933183 9.30125426,15.3636059 9.22373256,15.4729924 C6.04466272,19.9492508 4.29398195,25.4633252 4.29398195,31 C4.29398195,45.7255933 16.2743701,57.7059017 31.000113,57.7059017 C45.7256299,57.7059017 57.7060181,45.7255933 57.7060181,31 C57.7060181,16.2744067 45.7256299,4.29409834 31.000113,4.29409834 L31.000113,4.29409834 Z M0,31 C0,13.8794299 13.879332,0 31.000113,0 C48.12225,0 62,13.8794299 62,31 C62,48.1205701 48.12225,62 31.000113,62 C13.879332,62 0,48.1205701 0,31 L0,31 Z" id="Logo" transform="translate(31.000000, 31.000000) scale(-1, 1) rotate(-180.000000) translate(-31.000000, -31.000000) "></path>
            </g>
        </g>
    </g>
</svg>