<svg xmlns="http://www.w3.org/2000/svg" viewBox="0 0 351.333 86.376"><path d="M25.913 53.723c.72.72.78 1.92.06 2.64-2.94 3.063-6.963 4.743-11.226 4.743h-3.902c-1.02 0-1.86-.84-1.86-1.86s.84-1.862 1.86-1.862h3.902c3.242 0 6.304-1.26 8.525-3.602.72-.78 1.92-.78 2.64-.06zm22.512-34.758c-.72-.72-1.92-.72-2.64 0-.72.72-.72 1.92 0 2.64l3.66 3.663h-7.143c-4.262 0-8.224 1.68-11.226 4.742-.72.72-.72 1.92.06 2.64.36.362.84.542 1.32.542s.96-.18 1.322-.54c2.28-2.343 5.283-3.603 8.525-3.603h7.143l-3.662 3.66c-.72.72-.72 1.92 0 2.642.36.36.84.54 1.32.54s.96-.18 1.322-.54l6.844-6.844c.72-.72.72-1.92 0-2.64l-6.845-6.903zm0 32.117c-.72-.72-1.92-.72-2.64 0-.72.72-.72 1.92 0 2.64l3.66 3.663h-7.143c-6.544 0-11.887-5.343-11.887-11.887v-5.283c0-.12 0-.24-.06-.36-.54-8.165-7.324-14.59-15.608-14.59h-3.902c-1.02 0-1.86.842-1.86 1.862s.84 1.86 1.86 1.86h3.902c6.544 0 11.887 5.344 11.887 11.888v5.283c0 .12 0 .24.06.36.54 8.166 7.324 14.59 15.608 14.59h7.144l-3.662 3.662c-.72.72-.72 1.92 0 2.64.36.362.84.542 1.32.542s.96-.18 1.322-.54l6.844-6.845c.72-.72.72-1.92 0-2.64l-6.845-6.845z"></path><path fill="none" d="M-532.402-2179.165h1444v625h-1444z"></path><path d="M83.796 25.094h21.345v5.35H90.546v9.497h11.797v5.05H90.545v10.497h15.396v5.35H83.797V25.093zM125.34 46.84l-7.398 13.995h-6.898l10.298-18.395-9.598-17.346h7.598l6.698 12.597 6.548-12.596h6.898l-9.298 17.146 10.198 18.595h-7.6L125.34 46.84zM159.136 61.335c-9.698 0-15.296-6.3-15.296-16.496v-3.75c0-10.098 6.548-16.446 15.296-16.446 8.198 0 12.797 4.8 13.646 11.147l-6.798.9c-.55-3.948-2.8-6.697-6.898-6.697-5 0-8.198 3.95-8.198 10.997v3.85c0 7.098 3 10.996 8.248 10.996 4.5 0 6.998-3.45 7.598-7.098l6.348.95c-.85 5.15-4.95 11.647-13.946 11.647zM180.083 25.094h6.75V40.09h13.796V25.094h6.747v35.74h-6.748V45.59H186.83v15.245h-6.75v-35.74zM234.725 52.287h-11.997l-2.4 8.548h-6.348l10.547-35.74h9.1l10.446 35.74h-6.948l-2.4-8.548zm-10.698-4.898h9.348l-4.7-16.697-4.648 16.696zM250.674 25.094h7.898l13.097 24.793V25.094h6.147v35.74h-6.898l-14.147-26.742v26.743h-6.1v-35.74zM301.165 61.335c-10.098 0-15.696-6.648-15.696-16.446v-3.85c0-9.897 6.548-16.395 15.695-16.395 7.748 0 12.797 4.25 13.696 10.548l-6.647 1c-.5-3.45-2.85-6.198-6.998-6.198-5.5 0-8.698 4.25-8.698 10.997v4c0 6.547 2.75 10.996 8.798 10.996 5.25 0 7.648-3.45 7.698-8.397v-.45h-7.298v-5.05h13.946v4.6c0 9.346-5.397 14.645-14.495 14.645zM323.263 25.094h21.345v5.35h-14.596v9.497h11.797v5.05H330.01v10.497h15.396v5.35h-22.145V25.093z"></path></svg>
