<?xml version="1.0" encoding="UTF-8"?>
<svg width="56px" height="56px" viewBox="0 0 56 56" version="1.1" xmlns="http://www.w3.org/2000/svg" xmlns:xlink="http://www.w3.org/1999/xlink">
    <!-- Generator: Sketch 47.1 (45422) - http://www.bohemiancoding.com/sketch -->
    <title>Artboard 2@2x</title>
    <desc>Created with Sketch.</desc>
    <defs></defs>
    <g id="assets" stroke="none" stroke-width="1" fill="none" fill-rule="evenodd">
        <g id="Artboard-2">
            <g id="shopify-exchanges">
                <rect id="Rectangle" fill="#112E47" x="0" y="0" width="56" height="56"></rect>
                <path d="M24.9316969,35.4739003 C25.3541226,35.8751357 25.3893248,36.5438615 24.9668991,36.9450969 C23.2419942,38.6520193 20.8816908,39.5882353 18.3805788,39.5882353 L16.0912663,39.5882353 C15.49283,39.5882353 15,39.1201273 15,38.5517104 C15,37.9832936 15.49283,37.514071 16.0912663,37.514071 L18.3805788,37.514071 C20.2826677,37.514071 22.0791502,36.811909 23.3822161,35.5067793 C23.8046418,35.0721076 24.5086846,35.0721076 24.9311102,35.473343 L24.9316969,35.4739003 Z M38.3624645,14.3273587 C37.9103284,13.8908804 37.1567681,13.8908804 36.704632,14.3273587 C36.2524958,14.763837 36.2524958,15.4913007 36.704632,15.927779 L39.0029908,18.1483622 L34.5174233,18.1483622 C31.8410284,18.1483622 29.3530236,19.1668115 27.467867,21.0230566 C27.0157309,21.4595348 27.0157309,22.1869986 27.505545,22.6234769 C27.7316131,22.8429284 28.0330372,22.952048 28.3344613,22.952048 C28.6358854,22.952048 28.9373095,22.8429284 29.1646336,22.6246893 C30.5963981,21.2043163 32.4821826,20.4404793 34.5180513,20.4404793 L39.0036187,20.4404793 L36.704004,22.6592438 C36.2518678,23.0957221 36.2518678,23.8231859 36.704004,24.2608766 C36.9300721,24.4791157 37.2314962,24.5882353 37.5329203,24.5882353 C37.8343444,24.5882353 38.1357685,24.4791157 38.3630925,24.2608766 L42.6608979,20.1119082 C43.113034,19.6754299 43.113034,18.9479661 42.6608979,18.5114879 L38.3624645,14.3267525 L38.3624645,14.3273587 Z M38.5839829,33.538763 C38.1534437,33.0922846 37.4358783,33.0922846 37.005339,33.538763 C36.5747998,33.9852414 36.5747998,34.7293721 37.005339,35.1758505 L39.1939135,37.4473093 L34.9226054,37.4473093 C31.0094821,37.4473093 27.8145222,34.1340675 27.8145222,30.076075 L27.8145222,26.8000397 C27.8145222,26.7256266 27.8145222,26.6512136 27.7786439,26.5768005 C27.4557395,21.5136114 23.399103,17.5294118 18.4455099,17.5294118 L16.1122264,17.5294118 C15.5022958,17.5294118 15,18.0515435 15,18.6840545 C15,19.3165656 15.5022958,19.8374571 16.1122264,19.8374571 L18.4455099,19.8374571 C22.3586332,19.8374571 25.5535932,23.151319 25.5535932,27.2093116 L25.5535932,30.4853468 C25.5535932,30.5597599 25.5535932,30.634173 25.5894714,30.708586 C25.9123759,35.7723952 29.9690123,39.7559747 34.9226054,39.7559747 L39.1945115,39.7559747 L37.0047411,42.0268135 C36.5742018,42.4732919 36.5742018,43.2174226 37.0047411,43.663901 C37.2200107,43.8883804 37.5070368,44 37.794063,44 C38.0810892,44 38.3681153,43.8883804 38.5845809,43.6651412 L42.6770956,39.4204958 C43.1076348,38.9740174 43.1076348,38.2298868 42.6770956,37.7834084 L38.5839829,33.538763 Z" id="Shape" fill="#FFFFFF" fill-rule="nonzero"></path>
            </g>
        </g>
    </g>
</svg>